<svg width="22" height="22" viewBox="0 0 22 22" fill="none" xmlns="http://www.w3.org/2000/svg">
<path d="M20.0529 2.34082L16.124 6.26968" stroke="#A1BD71" stroke-width="1.5" stroke-linecap="round" stroke-linejoin="round"/>
<path d="M2.52973 20.9152C2.38273 20.9928 2.21472 21.0213 2.05034 20.9965C1.88596 20.9717 1.73385 20.8949 1.6163 20.7774C1.49875 20.6598 1.42194 20.5077 1.39714 20.3433C1.37233 20.1789 1.40084 20.0109 1.47847 19.8639C1.47847 19.8639 4.49319 10.1205 8.42205 6.26948C9.44342 5.24811 10.8287 4.67432 12.2731 4.67432C13.7175 4.67432 15.1028 5.24811 16.1242 6.26948C17.1455 7.29084 17.7193 8.67611 17.7193 10.1205C17.7193 11.565 17.1455 12.9502 16.1242 13.9716C12.2731 17.9005 2.52973 20.9152 2.52973 20.9152Z" stroke="#A1BD71" stroke-width="1.5" stroke-linecap="round" stroke-linejoin="round"/>
<path d="M20.8312 6.23096H16.0845" stroke="#A1BD71" stroke-width="1.5" stroke-linecap="round" stroke-linejoin="round"/>
<path d="M16.1636 6.3102V1.56348" stroke="#A1BD71" stroke-width="1.5" stroke-linecap="round" stroke-linejoin="round"/>
<path d="M9.16138 14.0107L12.0497 16.899" stroke="#A1BD71" stroke-width="1.5" stroke-linecap="round" stroke-linejoin="round"/>
<path d="M8.42236 6.27002L12.2734 10.1211" stroke="#A1BD71" stroke-width="1.5" stroke-linecap="round" stroke-linejoin="round"/>
</svg>
