<svg width="25" height="25" viewBox="0 0 25 25" fill="none" xmlns="http://www.w3.org/2000/svg">
<path d="M18.6581 17.2863C21.2141 17.2863 23.2861 15.2143 23.2861 12.6583C23.2861 10.1023 21.2141 8.03027 18.6581 8.03027C16.1021 8.03027 14.03 10.1023 14.03 12.6583C14.03 15.2143 16.1021 17.2863 18.6581 17.2863Z" stroke="#A1BD71" stroke-width="1.5" stroke-linecap="round" stroke-linejoin="round"/>
<path d="M21.7435 16.1113V21.9147L18.6581 20.372L15.5728 21.9147V16.1104" stroke="#A1BD71" stroke-width="1.5" stroke-linecap="round" stroke-linejoin="round"/>
<path d="M12.4873 18.8294H4.00254C3.79797 18.8294 3.60178 18.7482 3.45712 18.6035C3.31247 18.4588 3.2312 18.2627 3.2312 18.0581V5.71665C3.2312 5.51208 3.31247 5.31589 3.45712 5.17123C3.60178 5.02658 3.79797 4.94531 4.00254 4.94531H20.972C21.1766 4.94531 21.3728 5.02658 21.5174 5.17123C21.6621 5.31589 21.7433 5.51208 21.7433 5.71665" stroke="#A1BD71" stroke-width="1.5" stroke-linecap="round" stroke-linejoin="round"/>
<path d="M7.08789 13.4297H10.9446" stroke="#A1BD71" stroke-width="1.5" stroke-linecap="round" stroke-linejoin="round"/>
<path d="M7.08789 10.3447H10.9446" stroke="#A1BD71" stroke-width="1.5" stroke-linecap="round" stroke-linejoin="round"/>
</svg>
