<svg width="240" height="327" viewBox="0 0 240 327" fill="none" xmlns="http://www.w3.org/2000/svg">
<path d="M14.9627 68.5401C12.1106 59.4908 9.52956 42.3861 22.0217 46.3622C34.5138 50.3383 22.5207 62.8042 14.9627 68.5401Z" fill="#A1BD71"/>
<path d="M51.5901 35.1752C45.1791 42.1698 31.6565 52.9574 28.8539 40.1509C26.0512 27.3443 42.8436 31.4977 51.5901 35.1752Z" fill="#A1BD71"/>
<rect width="0.925781" height="8.11258" transform="matrix(0.213785 0.976881 0.976881 -0.213785 23.1865 40.6345)" fill="#A1BD71"/>
<rect x="21.034" y="50.1736" width="0.925781" height="9.59702" transform="rotate(-162.344 21.034 50.1736)" fill="#A1BD71"/>
<path d="M72.6046 101.484C67.4763 93.5013 60.4942 77.6746 73.5921 78.2308C86.6899 78.787 78.3912 93.9648 72.6046 101.484Z" fill="#A1BD71"/>
<path d="M99.1851 59.672C94.8359 68.1046 84.6206 82.0646 78.5534 70.4435C72.4862 58.8223 89.7798 58.4203 99.1851 59.672Z" fill="#A1BD71"/>
<rect width="0.925781" height="8.11258" transform="matrix(0.462807 0.886459 0.886459 -0.462807 73.2119 72.3979)" fill="#A1BD71"/>
<rect x="73.6398" y="82.1677" width="0.925781" height="9.59702" transform="rotate(-177.568 73.6398 82.1677)" fill="#A1BD71"/>
<path d="M126.602 122.451C121.474 114.468 114.492 98.6414 127.59 99.1976C140.688 99.7538 132.389 114.932 126.602 122.451Z" fill="#A1BD71"/>
<path d="M153.183 80.6388C148.834 89.0714 138.618 103.031 132.551 91.4103C126.484 79.7891 143.778 79.3871 153.183 80.6388Z" fill="#A1BD71"/>
<rect width="0.925781" height="8.11258" transform="matrix(0.462807 0.886459 0.886459 -0.462807 127.21 93.3647)" fill="#A1BD71"/>
<rect x="127.638" y="103.135" width="0.925781" height="9.59702" transform="rotate(-177.568 127.638 103.135)" fill="#A1BD71"/>
<path d="M175.817 156.215C173.971 146.908 173.275 129.624 185.258 134.941C197.24 140.259 183.957 151.339 175.817 156.215Z" fill="#A1BD71"/>
<path d="M215.871 127.053C208.734 133.305 194.114 142.55 192.728 129.514C191.341 116.478 207.579 122.442 215.871 127.053Z" fill="#A1BD71"/>
<rect width="0.925781" height="8.11258" transform="matrix(0.105735 0.994394 0.994394 -0.105735 187.041 129.376)" fill="#A1BD71"/>
<rect x="183.859" y="138.622" width="0.925781" height="9.59702" transform="rotate(-156.07 183.859 138.622)" fill="#A1BD71"/>
<path d="M186.465 195.386C190.452 186.776 200.066 172.395 206.621 183.749C213.176 195.102 195.915 196.237 186.465 195.386Z" fill="#A1BD71"/>
<path d="M236.011 195.397C226.561 196.249 209.3 195.113 215.855 183.76C222.41 172.407 232.023 186.788 236.011 195.397Z" fill="#A1BD71"/>
<rect width="0.925781" height="8.11258" transform="matrix(-0.5 0.866025 0.866025 0.5 211.34 180.3)" fill="#A1BD71"/>
<rect x="203.324" y="185.9" width="0.925781" height="9.59702" transform="rotate(-120 203.324 185.9)" fill="#A1BD71"/>
<path d="M169.974 244.854C176.054 237.57 189.062 226.167 192.455 238.83C195.848 251.493 178.881 248.122 169.974 244.854Z" fill="#A1BD71"/>
<path d="M217.829 257.688C208.48 256.065 192.101 250.501 201.371 241.231C210.641 231.961 216.205 248.34 217.829 257.688Z" fill="#A1BD71"/>
<rect width="0.925781" height="8.11258" transform="matrix(-0.707107 0.707107 0.707107 0.707107 197.906 236.72)" fill="#A1BD71"/>
<rect x="188.714" y="240.055" width="0.925781" height="9.59702" transform="rotate(-105 188.714 240.055)" fill="#A1BD71"/>
<path d="M167.868 308.347C169.491 298.999 175.056 282.62 184.325 291.89C193.595 301.16 177.216 306.724 167.868 308.347Z" fill="#A1BD71"/>
<path d="M215.729 295.535C206.821 298.803 189.854 302.174 193.247 289.511C196.64 276.848 209.649 288.251 215.729 295.535Z" fill="#A1BD71"/>
<path d="M204.325 314.329C198.713 313.354 188.882 310.015 194.446 304.45C200.011 298.886 203.35 308.718 204.325 314.329Z" fill="#A1BD71"/>
<rect width="0.925781" height="8.11258" transform="matrix(-0.258819 0.965926 0.965926 0.258819 187.991 287.337)" fill="#A1BD71"/>
<rect x="181.698" y="294.822" width="0.925781" height="9.59702" transform="rotate(-135 181.698 294.822)" fill="#A1BD71"/>
<path d="M32.8273 0.825439C12.3392 17.1548 -5.06812 47.3476 102.107 84.5755C258.112 138.764 205.544 210.555 193.249 248.854C192.302 251.805 191.095 254.65 189.998 257.549C185.46 269.539 184.548 291.055 195.353 305.184" stroke="#A1BD71"/>
</svg>
