<svg width="760" height="317" viewBox="0 0 760 317" fill="none" xmlns="http://www.w3.org/2000/svg">
<path d="M1.01215 15.8744C78.1393 -8.5277 206.886 37.9913 307.23 127.182C441.699 246.706 588.343 334.594 732.155 265.413" stroke="#A1BD71"/>
<path d="M436.206 253.165C430.25 245.78 421.606 230.796 434.688 229.94C447.77 229.085 441.151 245.067 436.206 253.165Z" fill="#A1BD71"/>
<path d="M458.137 208.737C454.72 217.589 446.065 232.566 438.783 221.665C431.501 210.763 448.652 208.504 458.137 208.737Z" fill="#A1BD71"/>
<rect width="0.925781" height="8.11258" transform="matrix(0.555441 0.831556 0.831556 -0.555441 433.683 224.183)" fill="#A1BD71"/>
<rect x="435.159" y="233.849" width="0.925781" height="9.59702" transform="rotate(176.259 435.159 233.849)" fill="#A1BD71"/>
<path d="M507.14 291.732C501.184 284.346 492.54 269.362 505.622 268.507C518.704 267.651 512.085 283.634 507.14 291.732Z" fill="#A1BD71"/>
<path d="M529.071 247.304C525.654 256.155 516.999 271.133 509.717 260.231C502.435 249.33 519.586 247.071 529.071 247.304Z" fill="#A1BD71"/>
<rect width="0.925781" height="8.11258" transform="matrix(0.555441 0.831556 0.831556 -0.555441 504.617 262.749)" fill="#A1BD71"/>
<rect x="506.093" y="272.416" width="0.925781" height="9.59702" transform="rotate(176.259 506.093 272.416)" fill="#A1BD71"/>
<path d="M585.046 309.972C576.823 305.238 563.349 294.389 575.238 288.865C587.126 283.34 586.73 300.634 585.046 309.972Z" fill="#A1BD71"/>
<path d="M589.441 260.621C589.453 270.109 586.795 287.202 576.066 279.668C565.337 272.134 580.512 263.831 589.441 260.621Z" fill="#A1BD71"/>
<rect width="0.925781" height="8.11258" transform="matrix(0.818388 0.574667 0.574667 -0.818388 572.22 283.859)" fill="#A1BD71"/>
<rect x="577.089" y="292.339" width="0.925781" height="9.59702" transform="rotate(155.076 577.089 292.339)" fill="#A1BD71"/>
<path d="M672.736 310.835C663.645 308.116 648.041 300.651 658.344 292.544C668.647 284.438 672.231 301.361 672.736 310.835Z" fill="#A1BD71"/>
<path d="M665.683 261.794C667.873 271.026 669.21 288.273 657.038 283.403C644.867 278.534 657.73 266.968 665.683 261.794Z" fill="#A1BD71"/>
<rect width="0.925781" height="8.11258" transform="matrix(0.928461 0.371429 0.371429 -0.928461 654.257 288.365)" fill="#A1BD71"/>
<rect x="660.943" y="295.501" width="0.925781" height="9.59702" transform="rotate(141.804 660.943 295.501)" fill="#A1BD71"/>
<path d="M752.208 285.537C742.859 283.913 726.48 278.349 735.75 269.079C745.02 259.809 750.584 276.188 752.208 285.537Z" fill="#A1BD71"/>
<path d="M739.395 237.676C742.663 246.584 746.034 263.55 733.371 260.157C720.708 256.764 732.111 243.756 739.395 237.676Z" fill="#A1BD71"/>
<rect width="0.925781" height="8.11258" transform="matrix(0.965926 0.258819 0.258819 -0.965926 731.198 265.413)" fill="#A1BD71"/>
<rect x="738.682" y="271.707" width="0.925781" height="9.59702" transform="rotate(135 738.682 271.707)" fill="#A1BD71"/>
<path d="M320.546 173.071C317.278 164.164 313.907 147.197 326.57 150.59C339.233 153.983 327.831 166.991 320.546 173.071Z" fill="#A1BD71"/>
<path d="M355.589 138.045C349.509 145.329 336.5 156.732 333.107 144.069C329.714 131.406 346.681 134.777 355.589 138.045Z" fill="#A1BD71"/>
<rect width="0.925781" height="8.11258" transform="matrix(0.258819 0.965926 0.965926 -0.258819 327.468 144.815)" fill="#A1BD71"/>
<rect x="325.76" y="154.443" width="0.925781" height="9.59702" transform="rotate(-165 325.76 154.443)" fill="#A1BD71"/>
<path d="M368.8 211.847C365.532 202.939 362.161 185.973 374.824 189.366C387.487 192.759 376.084 205.767 368.8 211.847Z" fill="#A1BD71"/>
<path d="M403.842 176.82C397.762 184.105 384.754 195.507 381.361 182.844C377.968 170.181 394.934 173.552 403.842 176.82Z" fill="#A1BD71"/>
<rect width="0.925781" height="8.11258" transform="matrix(0.258819 0.965926 0.965926 -0.258819 375.722 183.59)" fill="#A1BD71"/>
<rect x="374.014" y="193.219" width="0.925781" height="9.59702" transform="rotate(-165 374.014 193.219)" fill="#A1BD71"/>
<path d="M271.719 131.137C268.45 122.229 265.08 105.263 277.743 108.656C290.406 112.049 279.003 125.057 271.719 131.137Z" fill="#A1BD71"/>
<path d="M306.761 96.1104C300.681 103.395 287.673 114.797 284.28 102.134C280.887 89.4713 297.853 92.8421 306.761 96.1104Z" fill="#A1BD71"/>
<rect width="0.925781" height="8.11258" transform="matrix(0.258819 0.965926 0.965926 -0.258819 278.641 102.88)" fill="#A1BD71"/>
<rect x="276.933" y="112.509" width="0.925781" height="9.59702" transform="rotate(-165 276.933 112.509)" fill="#A1BD71"/>
<path d="M210.372 90.9406C207.104 82.0331 203.733 65.0664 216.396 68.4594C229.059 71.8524 217.656 84.8606 210.372 90.9406Z" fill="#A1BD71"/>
<path d="M245.414 55.9141C239.334 63.1983 226.326 74.6009 222.933 61.938C219.54 49.275 236.507 52.6458 245.414 55.9141Z" fill="#A1BD71"/>
<rect width="0.925781" height="8.11258" transform="matrix(0.258819 0.965926 0.965926 -0.258819 217.294 62.6841)" fill="#A1BD71"/>
<rect x="215.586" y="72.3125" width="0.925781" height="9.59702" transform="rotate(-165 215.586 72.3125)" fill="#A1BD71"/>
<path d="M141.193 55.9318C135.236 48.5466 126.593 33.5625 139.674 32.7071C152.756 31.8517 146.137 47.8338 141.193 55.9318Z" fill="#A1BD71"/>
<path d="M163.123 11.504C159.706 20.3554 151.051 35.3329 143.77 24.4315C136.488 13.53 153.638 11.2709 163.123 11.504Z" fill="#A1BD71"/>
<rect width="0.925781" height="8.11258" transform="matrix(0.555441 0.831556 0.831556 -0.555441 138.669 26.9495)" fill="#A1BD71"/>
<rect x="140.145" y="36.616" width="0.925781" height="9.59702" transform="rotate(176.259 140.145 36.616)" fill="#A1BD71"/>
</svg>
