<svg width="428" height="266" viewBox="0 0 428 266" fill="none" xmlns="http://www.w3.org/2000/svg">
<path d="M427.425 -0.124512H389.336C372.767 -0.124512 359.336 13.307 359.336 29.8755V48.4604C359.336 65.0289 345.904 78.4604 329.336 78.4604H216.4C189.309 78.4604 183.528 116.632 209.404 124.654V124.654C235.279 132.676 229.499 170.848 202.408 170.848C168.032 170.848 133.137 170.848 89.5791 170.848C73.0106 170.848 59.5464 184.28 59.5464 200.848V234.274C59.5464 250.843 46.1149 264.274 29.5464 264.274H0.840942" stroke="url(#paint0_linear_528_964)" stroke-width="1.5"/>
<path d="M281.798 54.181C273.188 58.1686 258.808 67.7823 270.161 74.3371C281.514 80.892 282.65 63.6309 281.798 54.181Z" fill="#9EBC6A"/>
<path d="M281.809 103.727C282.66 94.277 281.525 77.016 270.172 83.5708C258.818 90.1256 273.199 99.7394 281.809 103.727Z" fill="#9EBC6A"/>
<rect x="267.126" y="79.2209" width="0.925781" height="8.11258" transform="rotate(-30 267.126 79.2209)" fill="#9EBC6A"/>
<rect width="0.925781" height="9.59702" transform="matrix(-0.866025 -0.5 -0.5 0.866025 272.312 71.2048)" fill="#9EBC6A"/>
<path d="M164.949 100.728C172.708 106.191 188.224 113.838 188.224 100.728C188.224 87.6186 172.708 95.2659 164.949 100.728Z" fill="#9EBC6A"/>
<path d="M221.467 100.68C213.708 95.2173 198.192 87.57 198.192 100.68C198.192 113.789 213.708 106.142 221.467 100.68Z" fill="#9EBC6A"/>
<rect x="186.041" y="101.339" width="0.925781" height="14.4563" transform="rotate(-90 186.041 101.339)" fill="#9EBC6A"/>
<path d="M118.083 143.291C112.62 151.049 104.973 166.565 118.083 166.565C131.192 166.565 123.545 151.049 118.083 143.291Z" fill="#9EBC6A"/>
<path d="M118.131 199.808C123.593 192.05 131.241 176.534 118.131 176.534C105.021 176.534 112.669 192.05 118.131 199.808Z" fill="#9EBC6A"/>
<rect x="117.471" y="164.383" width="0.925781" height="14.4563" fill="#9EBC6A"/>
<path d="M334.43 46.7733C333.578 56.2232 334.714 73.4843 346.067 66.9294C357.42 60.3746 343.039 50.7608 334.43 46.7733Z" fill="#9EBC6A"/>
<path d="M362.731 95.6942C363.582 86.2443 362.447 68.9833 351.093 75.5381C339.74 82.0929 354.121 91.7067 362.731 95.6942Z" fill="#9EBC6A"/>
<rect x="344.447" y="65.3448" width="0.925781" height="14.4563" transform="rotate(-30 344.447 65.3448)" fill="#9EBC6A"/>
<path d="M190.498 146.457C181.889 150.445 167.508 160.058 178.861 166.613C190.214 173.168 191.35 155.907 190.498 146.457Z" fill="#9EBC6A"/>
<path d="M190.51 196.003C191.361 186.553 190.226 169.292 178.872 175.847C167.519 182.402 181.9 192.016 190.51 196.003Z" fill="#9EBC6A"/>
<rect x="175.826" y="171.497" width="0.925781" height="8.11258" transform="rotate(-30 175.826 171.497)" fill="#9EBC6A"/>
<rect width="0.925781" height="9.59702" transform="matrix(-0.866025 -0.5 -0.5 0.866025 181.013 163.481)" fill="#9EBC6A"/>
<path d="M35.0819 204.639C39.0694 213.248 48.6832 227.629 55.238 216.276C61.7928 204.922 44.5318 203.787 35.0819 204.639Z" fill="#9EBC6A"/>
<path d="M84.6278 204.628C75.1779 203.776 57.9169 204.911 64.4717 216.265C71.0265 227.618 80.6403 213.237 84.6278 204.628Z" fill="#9EBC6A"/>
<rect x="60.1218" y="219.311" width="0.925781" height="8.11258" transform="rotate(-120 60.1218 219.311)" fill="#9EBC6A"/>
<rect width="0.925781" height="9.59702" transform="matrix(-0.5 0.866025 0.866025 0.5 52.1057 214.124)" fill="#9EBC6A"/>
<defs>
<linearGradient id="paint0_linear_528_964" x1="374.112" y1="24.8925" x2="-14.7121" y2="359.281" gradientUnits="userSpaceOnUse">
<stop stop-color="#A1BD71"/>
<stop offset="0.807571" stop-color="#A1BD71" stop-opacity="0.76"/>
<stop offset="1" stop-color="#A1BD71" stop-opacity="0"/>
</linearGradient>
</defs>
</svg>
