<svg width="245" height="225" viewBox="0 0 245 225" fill="none" xmlns="http://www.w3.org/2000/svg">
<g clip-path="url(#clip0_634_2955)">
<path d="M72.5591 28.309L194.177 57.1867C211.876 61.3901 218.989 82.8436 207.343 96.8731L117.786 204.741C104.864 220.299 79.8344 214.349 75.2195 194.642L43.132 57.8964C38.9514 40.1003 54.8594 24.1056 72.5591 28.309Z" fill="#E2E9D7"/>
<path d="M83.3091 221.719C81.3817 221.719 79.4271 221.5 77.4725 221.036C68.1612 218.825 60.9944 211.62 58.7956 202.258L26.6809 65.5115C24.6721 56.941 27.1696 48.0703 33.359 41.8471C39.5757 35.5967 48.3712 33.0855 56.8953 35.1326L178.54 64.0103C187.064 66.0301 193.824 72.2533 196.593 80.6055C199.361 88.9849 197.678 98.0194 192.032 104.788L102.529 212.629C97.6697 218.498 90.6387 221.719 83.3091 221.719ZM51.0859 35.7877C44.8693 35.7877 38.8698 38.2442 34.3363 42.8024C28.4726 48.6981 26.0837 57.0775 28.0111 65.2113L60.0986 201.957C62.216 210.965 68.8127 217.624 77.7711 219.753C86.7296 221.882 95.6066 218.907 101.497 211.811L191.055 103.97C196.375 97.5554 197.977 89.0122 195.371 81.0968C192.738 73.1813 186.358 67.313 178.268 65.3751L56.5967 36.4428C54.7778 36.0061 52.9047 35.7877 51.0859 35.7877Z" fill="#818E6C"/>
<mask id="mask0_634_2955" style="mask-type:alpha" maskUnits="userSpaceOnUse" x="42" y="-11" width="176" height="225">
<path d="M66.7687 7.282L205.021 -10.9999C222.721 -6.79657 218.989 82.8439 207.343 96.8733L117.786 204.742C104.864 220.3 79.8345 214.349 75.2196 194.643L43.1321 57.8967C38.9515 40.1006 60.2088 20.4016 66.7687 7.282Z" fill="#E2E9D7"/>
</mask>
<g mask="url(#mask0_634_2955)">
<path d="M186.711 93.5167C186.195 99.9855 184.539 106.482 181.879 112.486C180.549 115.489 178.974 118.382 177.21 121.139C175.445 123.896 173.491 126.516 171.4 128.972C167.22 133.913 162.496 138.307 157.528 142.238C156.28 143.22 155.031 144.175 153.755 145.103C152.506 146.032 151.122 146.96 150.09 147.751C147.864 149.361 145.747 151.081 143.656 152.855C135.404 159.952 128.617 168.304 123.866 177.502C119.089 186.7 116.374 196.772 115.587 207.008C115.424 209.109 115.342 211.238 115.342 213.367H88.7114C89.0643 209.983 89.553 206.626 90.2316 203.296C92.8106 190.085 97.9685 177.311 105.461 166.284C107.334 163.527 109.343 160.88 111.46 158.341C113.578 155.803 115.804 153.401 118.139 151.108C122.808 146.523 127.857 142.456 133.151 138.88C135.811 137.106 138.499 135.414 141.24 133.858C142.679 133.039 143.792 132.411 145.014 131.702C146.208 130.992 147.376 130.283 148.516 129.546C153.131 126.598 157.447 123.295 161.302 119.556C163.229 117.7 164.994 115.707 166.65 113.633C168.279 111.558 169.772 109.375 171.075 107.082C173.681 102.497 175.5 97.5017 176.45 92.2065C177.02 89.1222 177.264 85.9288 177.237 82.7353C177.237 80.4698 177.074 78.2044 176.803 75.9117C176.558 73.9191 176.233 71.9539 175.825 69.9887C175.825 69.9614 175.825 69.9341 175.798 69.9068C175.065 66.4131 174.061 62.9194 172.866 59.4803C170.966 54.076 168.577 48.8081 165.835 43.6767C163.094 38.5453 160.026 33.5777 156.687 28.7466C153.348 23.9154 149.792 19.248 146.018 14.7171C142.218 10.2681 138.254 5.87368 134.047 1.7522L134.074 1.77949C138.689 5.46426 143.032 9.44928 147.267 13.5981C151.502 17.7741 155.574 22.114 159.429 26.6722C163.284 31.2304 166.921 36.0069 170.287 41.0291C173.626 46.0513 176.694 51.3192 179.273 56.86C181.852 62.4281 183.969 68.2692 185.327 74.4377C186.684 80.579 187.254 87.0479 186.711 93.5167Z" fill="#8AAD4D"/>
<path opacity="0.5" d="M186.711 93.5169C186.195 99.9857 184.539 106.482 181.879 112.487C180.549 115.489 178.974 118.382 177.21 121.139C175.445 123.896 173.491 126.516 171.4 128.973C167.22 133.913 162.496 138.307 157.528 142.238C156.28 143.22 155.031 144.176 153.755 145.104C152.506 146.032 151.122 146.96 150.09 147.751C147.864 149.362 145.747 151.081 143.656 152.855C135.404 159.952 128.617 168.304 123.866 177.502C119.089 186.701 116.374 196.772 115.587 207.008C115.424 209.11 115.342 211.238 115.342 213.367H107.198C104.456 141.392 176.694 148.488 182.829 89.641C187.308 46.8431 135.675 3.11713 134.046 1.77969C138.661 5.46447 143.005 9.44948 147.24 13.5983C151.475 17.7743 155.547 22.1142 159.401 26.6724C163.256 31.2306 166.894 36.0071 170.26 41.0293C173.599 46.0515 176.667 51.3194 179.246 56.8602C181.825 62.4283 183.942 68.2694 185.299 74.4379C186.684 80.5792 187.254 87.048 186.711 93.5169Z" fill="#629B3E"/>
<path d="M124.464 149.034C93.8422 171.088 94.9552 213.367 94.9552 213.367H88.7114C89.0643 209.983 89.553 206.626 90.2316 203.296C92.8106 190.085 97.9685 177.311 105.461 166.284C107.334 163.527 109.343 160.88 111.46 158.341C113.578 155.803 115.804 153.401 118.139 151.108C122.808 146.523 127.857 142.456 133.151 138.88C135.811 137.106 138.499 135.414 141.24 133.858C142.679 133.039 143.792 132.412 145.014 131.702C146.208 130.992 147.376 130.283 148.516 129.546C153.131 126.598 157.447 123.295 161.302 119.556C163.229 117.7 164.994 115.707 166.65 113.633C168.279 111.558 169.772 109.375 171.075 107.082C173.681 102.497 175.5 97.5017 176.45 92.2066C177.02 89.1223 177.264 85.9288 177.237 82.7354C178.893 120.921 152.235 129.027 124.464 149.034Z" fill="#A1BD71"/>
<path d="M119.713 88.249C119.224 92.8617 119.333 97.4745 120.066 101.978C121.505 111.013 125.387 119.474 130.599 127.116L131.576 128.536L132.608 129.955L133.694 131.374C134.101 131.92 134.508 132.439 134.915 132.985C136.517 135.168 138.037 137.461 139.449 139.836C142.245 144.585 144.607 149.771 146.263 155.257C147.919 160.743 148.896 166.53 149.059 172.371C149.249 178.212 148.652 184.08 147.403 189.758C146.181 195.435 144.335 200.921 142.055 206.134C140.969 208.591 139.802 211.02 138.526 213.367H106.221C108.8 210.965 111.216 208.427 113.524 205.78C119.252 199.147 124.002 191.805 126.934 183.917C128.4 179.986 129.404 175.919 129.893 171.798C130.355 167.676 130.3 163.446 129.649 159.215C129.024 154.984 127.803 150.781 126.12 146.659C125.278 144.585 124.301 142.538 123.215 140.545C122.944 140.054 122.672 139.536 122.401 139.044C122.265 138.826 122.102 138.498 121.912 138.225L121.396 137.379L120.392 135.632L119.442 133.858C116.944 129.136 114.8 124.141 113.225 118.955C111.65 113.769 110.646 108.392 110.375 102.961C110.103 97.5291 110.537 92.0975 111.705 86.8569C112.872 81.6164 114.691 76.6214 117.026 71.9268C119.36 67.2321 122.183 62.865 125.332 58.8254C126.445 57.406 127.586 56.014 128.78 54.6766C129.024 54.3763 129.214 54.158 129.35 54.0215C129.377 53.9669 129.432 53.9396 129.459 53.885C131.44 51.6742 133.504 49.5725 135.648 47.5527C139.34 44.0863 143.222 40.8928 147.267 37.945C149.303 36.4711 151.366 35.0518 153.456 33.7143C155.547 32.3769 157.691 31.094 159.863 29.9477C157.8 31.3397 155.845 32.8409 153.918 34.3694C151.991 35.9252 150.09 37.5356 148.271 39.2005C144.607 42.5305 141.159 46.0788 137.983 49.8181C131.63 57.2969 126.31 65.6217 122.998 74.5471C121.342 79.0234 120.229 83.6362 119.713 88.249Z" fill="#8AAD4D"/>
<path opacity="0.5" d="M119.713 88.2492C119.224 92.862 119.333 97.4747 120.066 101.978C121.505 111.013 125.387 119.474 130.599 127.117L131.576 128.536L132.608 129.955L133.694 131.375C134.101 131.921 134.508 132.439 134.915 132.985C136.517 135.169 138.037 137.461 139.449 139.836C142.245 144.585 144.607 149.771 146.263 155.257C147.918 160.744 148.896 166.53 149.059 172.371C149.249 178.212 148.651 184.081 147.403 189.758C146.181 195.435 144.335 200.921 142.055 206.135C140.969 208.591 139.802 211.02 138.526 213.368H126.12C163.799 153.592 114.121 134.759 116.13 94.5815C118.084 55.0043 158.533 30.7394 159.809 30.0025C157.746 31.3945 155.791 32.8957 153.864 34.4242C151.936 35.98 150.036 37.5904 148.217 39.2553C144.552 42.5853 141.105 46.1336 137.928 49.8729C131.576 57.3517 126.255 65.6765 122.943 74.6019C121.342 79.0236 120.229 83.6364 119.713 88.2492Z" fill="#629B3E"/>
<path opacity="0.5" d="M112.791 213.367H106.194C108.773 210.966 111.189 208.427 113.496 205.78C119.224 199.147 123.975 191.805 126.907 183.917C128.373 179.986 129.377 175.919 129.866 171.798C130.327 167.676 130.273 163.446 129.622 159.215C128.997 154.984 127.776 150.781 126.093 146.659C125.251 144.585 124.274 142.538 123.188 140.545C122.916 140.054 122.645 139.536 122.373 139.044C122.238 138.826 122.075 138.498 121.885 138.225L121.369 137.379L120.365 135.632L119.414 133.858C116.917 129.136 114.772 124.141 113.198 118.955C111.623 113.769 110.619 108.392 110.347 102.961C110.076 97.5292 110.51 92.0975 111.678 86.857C112.845 81.6164 114.664 76.6215 116.998 71.9268C119.333 67.2322 122.156 62.865 125.305 58.8254C126.418 57.4061 127.558 56.0141 128.753 54.6766C124.627 59.5351 103.262 86.8024 115.342 115.243C128.699 146.659 155.167 167.704 112.791 213.367Z" fill="#A1BD71"/>
<path d="M157.854 78.9687C157.501 85.4102 156.198 91.8517 154.108 97.993C149.9 110.303 142.598 121.603 132.771 130.555C127.857 135.032 122.265 138.908 116.103 141.91C115.342 142.292 114.555 142.647 113.768 142.975L111.596 143.903C110.32 144.448 109.072 145.022 107.85 145.622C105.407 146.823 103.045 148.106 100.819 149.525C96.3669 152.337 92.4577 155.612 89.4716 159.242C86.4583 162.9 84.4223 166.885 83.3093 171.115C82.1963 175.373 82.0334 179.904 82.6306 184.626C83.2278 189.348 84.5852 194.179 86.4583 198.956C88.3314 203.732 90.7475 208.482 93.5165 213.04C93.5708 213.149 93.6251 213.231 93.6794 213.34H63.655C62.9492 211.266 62.2977 209.191 61.7276 207.062C59.9088 200.402 58.6872 193.388 58.5786 186.073C58.5243 182.415 58.7686 178.703 59.3658 174.964C59.9631 171.252 60.9404 167.54 62.3248 163.964C63.7093 160.388 65.4739 156.977 67.5913 153.838C69.7088 150.699 72.1248 147.833 74.7581 145.267C79.9974 140.163 85.9425 136.342 91.9963 133.367C95.0095 131.866 98.0771 130.61 101.172 129.491C102.719 128.945 104.267 128.426 105.814 127.935L107.796 127.307C108.393 127.116 109.017 126.898 109.614 126.68C114.447 124.933 119.143 122.367 123.459 119.201C132.092 112.841 139.286 104.025 143.901 93.9261C144.96 91.6607 145.855 89.3133 146.616 86.9114C146.616 86.8841 146.616 86.8841 146.616 86.8568C147.539 83.9636 148.271 80.9885 148.733 77.9861C149.629 72.4725 149.737 66.7953 148.977 61.1726C148.244 55.5499 146.643 50.0091 144.254 44.7412C141.892 39.4734 138.797 34.4785 135.132 29.893C131.468 25.2802 127.26 21.0768 122.699 17.2283C118.166 13.3797 113.252 9.94061 108.149 6.80173C108.176 6.80173 108.23 6.82902 108.284 6.85632C108.339 6.88361 108.393 6.91091 108.447 6.9382C108.556 6.99279 108.664 7.04738 108.8 7.10197C113.958 9.61307 119.007 12.479 123.812 15.7271C128.807 19.1389 133.558 23.0147 137.847 27.4092C142.136 31.8036 145.991 36.7439 149.113 42.1755C152.235 47.6072 154.651 53.5301 156.117 59.7533C157.664 66.031 158.234 72.5271 157.854 78.9687Z" fill="#8AAD4D"/>
<path opacity="0.5" d="M157.854 78.9689C157.501 85.4104 156.198 91.8519 154.108 97.9932C149.9 110.303 142.598 121.603 132.771 130.556C127.857 135.032 122.265 138.908 116.103 141.91C115.342 142.292 114.555 142.647 113.768 142.975L111.596 143.903C110.32 144.449 109.072 145.022 107.85 145.622C105.407 146.823 103.045 148.106 100.819 149.525C96.3669 152.337 92.4578 155.612 89.4716 159.242C86.4583 162.9 84.4223 166.885 83.3093 171.115C82.1963 175.373 82.0334 179.904 82.6306 184.626C83.2279 189.348 84.5852 194.179 86.4583 198.956C88.3314 203.733 90.7475 208.482 93.5165 213.04C93.5708 213.149 93.6251 213.231 93.6794 213.34H80.1331C71.2561 187.165 66.424 155.667 99.5974 142.047C132.771 128.427 159.755 101.35 153.484 63.0834C147.674 27.7915 114.067 9.74973 108.854 7.15674C114.012 9.66784 119.062 12.5338 123.867 15.7818C128.862 19.1937 133.612 23.0695 137.901 27.4639C142.191 31.8584 146.045 36.7987 149.167 42.2303C152.289 47.6619 154.705 53.5849 156.171 59.808C157.664 66.0312 158.234 72.5273 157.854 78.9689Z" fill="#629B3E"/>
<path d="M146.643 86.9389C132.309 138.799 99.6517 123.104 76.2784 148.052C51.6291 174.336 70.5504 213.368 70.5504 213.368H63.6823C62.9764 211.293 62.3249 209.219 61.7548 207.09C59.936 200.43 58.7144 193.415 58.6058 186.1C58.5515 182.443 58.7958 178.731 59.3931 174.991C59.9903 171.279 60.9676 167.567 62.3521 163.992C63.7365 160.416 65.5011 157.004 67.6185 153.865C69.736 150.726 72.152 147.86 74.7853 145.295C80.0246 140.191 85.9697 136.369 92.0235 133.394C95.0368 131.893 98.1043 130.638 101.199 129.518C102.746 128.973 104.294 128.454 105.841 127.963L107.796 127.308C108.393 127.117 109.017 126.898 109.615 126.68C114.447 124.933 119.143 122.367 123.459 119.201C132.092 112.841 139.286 104.025 143.901 93.9263C144.96 91.6608 145.855 89.3135 146.643 86.9389Z" fill="#A1BD71"/>
<path d="M105.244 58.1427C103.696 58.6067 98.2399 57.9789 95.5524 57.6241C94.6566 57.5149 94.0593 57.4057 94.0593 57.4057C94.0593 57.4057 96.584 51.0188 98.3214 48.3166C98.5928 47.8799 98.8372 47.5524 99.0815 47.334C100.656 45.8601 103.153 45.942 104.619 47.5251C105.38 48.3439 105.732 49.4357 105.651 50.4729C105.651 50.5548 105.624 50.6367 105.624 50.7186C106.031 50.8823 106.411 51.128 106.737 51.4282C107.253 51.8922 107.66 52.4927 107.877 53.2297C108.474 55.3314 107.307 57.5149 105.244 58.1427Z" fill="#82A040"/>
<path d="M105.624 50.7463C105.135 50.9919 104.619 51.2649 104.131 51.5105L103.398 51.8927L102.665 52.2748C102.176 52.5477 101.688 52.7934 101.199 53.0663L100.466 53.4757L99.733 53.8852C99.4887 54.0216 99.2444 54.1581 99 54.2946C98.7557 54.431 98.5114 54.5675 98.2671 54.704L97.5341 55.1134L96.8283 55.5501C96.584 55.6866 96.3668 55.8504 96.1225 55.9868C95.8782 56.1233 95.661 56.2871 95.4167 56.4509C95.1995 56.6146 94.9552 56.7511 94.738 56.9149C94.5208 57.0786 94.2765 57.2424 94.0593 57.4062C94.9009 56.6692 95.8239 56.0141 96.7469 55.4137C97.6698 54.7859 98.6471 54.24 99.6244 53.6941C100.602 53.1482 101.579 52.6296 102.583 52.1383C103.588 51.647 104.592 51.183 105.624 50.7463Z" fill="#A1BD71"/>
<path d="M94.0591 57.4331C94.0591 57.4058 94.0591 57.4058 94.0591 57.4331C93.6519 57.2693 85.4808 53.9667 84.042 52.4109C82.5761 50.8278 82.6575 48.3167 84.232 46.8428C85.1279 45.9967 86.2952 45.6691 87.4082 45.8056C87.5168 45.5599 87.6254 45.3416 87.7611 45.1505C88.2497 44.4136 88.9827 43.8404 89.8785 43.5674C91.9417 42.9397 94.1406 44.1133 94.765 46.1877C95.0093 47.0066 94.955 48.8899 94.7921 50.8824C94.5749 54.0213 94.0591 57.4331 94.0591 57.4331Z" fill="#82A040"/>
<path d="M87.4084 45.8058C87.6528 46.2971 87.9242 46.8157 88.1686 47.307L88.5486 48.044L88.9287 48.7809C89.2001 49.2722 89.4445 49.7635 89.7159 50.2548L90.1231 50.9918L90.5303 51.7287C90.6661 51.9744 90.8018 52.2201 90.9375 52.4657C91.0733 52.7114 91.209 52.957 91.3447 53.2027L91.7519 53.9396L92.1863 54.6493C92.322 54.8949 92.4849 55.1133 92.6206 55.3589C92.7564 55.6046 92.9192 55.8229 93.0821 56.0686C93.245 56.2869 93.3807 56.5326 93.5436 56.751C93.7065 56.9693 93.8694 57.215 94.0323 57.4333C93.2993 56.5872 92.6478 55.6592 92.0505 54.7312C91.4262 53.8031 90.8832 52.8205 90.3403 51.8379C89.7974 50.8553 89.2816 49.8727 88.7929 48.8628C88.3314 47.8529 87.8428 46.843 87.4084 45.8058Z" fill="#A1BD71"/>
<path d="M83.5263 67.3138C82.6848 66.413 82.359 65.2394 82.4948 64.1203C81.4632 63.6836 80.6216 62.7829 80.2687 61.6365C79.6444 59.5621 80.8117 57.3512 82.8748 56.7235C84.9108 56.0957 93.7607 57.4058 94.0321 57.4331C93.9236 57.7061 90.5845 66.0309 89.0371 67.5048C87.4898 68.9787 85.0194 68.8969 83.5263 67.3138Z" fill="#82A040"/>
<path d="M82.5219 64.0931C83.0106 63.8475 83.5263 63.5745 84.015 63.3289L84.7479 62.9467L85.4809 62.5646C85.9696 62.2917 86.4582 62.046 86.9468 61.7731L87.6798 61.3637L88.4128 60.9542C88.6571 60.8178 88.9014 60.6813 89.1457 60.5448C89.39 60.4083 89.6344 60.2719 89.8787 60.1354L90.6116 59.726L91.3175 59.2893C91.5618 59.1528 91.779 58.989 92.0233 58.8525C92.2676 58.7161 92.4848 58.5523 92.7291 58.3885C92.9463 58.2248 93.1906 58.0883 93.4078 57.9245C93.6249 57.7608 93.8693 57.597 94.0864 57.4332C93.2449 58.1702 92.3219 58.8253 91.3989 59.4257C90.4759 60.0535 89.4986 60.5994 88.5213 61.1453C87.5441 61.6912 86.5668 62.2098 85.5624 62.7011C84.5579 63.1924 83.5263 63.6564 82.5219 64.0931Z" fill="#A1BD71"/>
<path d="M100.384 69.6612C99.8958 70.4254 99.1629 70.9986 98.2399 71.2988C96.1767 71.9266 93.9779 70.753 93.3535 68.6786C92.8105 66.8498 93.7607 59.6713 94.005 57.8699C94.0321 57.597 94.0593 57.4605 94.0593 57.4605C94.0593 57.4605 94.1407 57.4878 94.2765 57.5424C95.5795 58.0883 102.746 61.0361 104.076 62.4827C105.379 63.902 105.461 66.031 104.348 67.5322C104.212 67.7233 104.049 67.887 103.886 68.0508C102.991 68.8969 101.823 69.2245 100.71 69.088C100.629 69.2518 100.52 69.4701 100.384 69.6612Z" fill="#82A040"/>
<path d="M100.71 69.0332C100.466 68.5419 100.194 68.0233 99.9501 67.532L99.5701 66.795L99.19 66.0581C98.9185 65.5668 98.6742 65.0755 98.4028 64.5842L97.9956 63.8472L97.5884 63.1102C97.4526 62.8646 97.3169 62.6189 97.1812 62.3733C97.0454 62.1276 96.9097 61.882 96.7739 61.6363L96.3668 60.8994L95.9324 60.1897C95.7967 59.9441 95.6338 59.7257 95.498 59.4801C95.3623 59.2344 95.1994 59.0161 95.0366 58.7704C94.8737 58.552 94.7379 58.3064 94.5751 58.088C94.4122 57.8697 94.2493 57.624 94.0864 57.4057C94.8194 58.2518 95.4709 59.1798 96.0681 60.1078C96.6925 61.0359 97.2354 62.0185 97.7784 63.0011C98.3213 63.9837 98.8371 64.9663 99.3258 65.9762C99.8144 66.9861 100.276 68.0233 100.71 69.0332Z" fill="#A1BD71"/>
<path opacity="0.25" d="M83.5264 67.3138C82.6848 66.4131 82.3591 65.2394 82.4948 64.1203C82.7663 65.567 84.3679 67.9962 87.4898 66.3585C90.5574 64.7481 93.9236 57.6788 94.0322 57.4332C93.9236 57.7061 90.5845 66.031 89.0372 67.5049C87.4898 68.9788 85.0194 68.8969 83.5264 67.3138Z" fill="#629B3E"/>
<path opacity="0.25" d="M82.5219 64.0931C81.4903 63.6564 80.6487 62.7557 80.2958 61.6093C79.6715 59.5349 80.8388 57.324 82.9019 56.6963C84.9379 56.0685 93.7878 57.3786 94.0592 57.4059C94.0592 57.4059 79.1014 56.8054 82.5219 64.0931Z" fill="#629B3E"/>
<path opacity="0.25" d="M94.0592 57.4059C93.652 57.2422 85.508 53.9395 84.0692 52.3837C82.6033 50.8006 82.6847 48.2895 84.2592 46.8156C85.1551 45.9695 86.3224 45.642 87.4354 45.7784C81.3545 48.8627 93.6792 57.1603 94.0592 57.4059Z" fill="#629B3E"/>
<path d="M94.8192 50.9097C94.9549 43.1853 88.0868 44.7684 87.7882 45.1505C88.2768 44.4136 89.0098 43.8404 89.9057 43.5674C91.9688 42.9397 94.1677 44.1133 94.7921 46.1877C95.0364 47.0066 94.9821 48.8899 94.8192 50.9097Z" fill="#A1BD71"/>
<path opacity="0.25" d="M105.244 58.1427C103.696 58.6067 98.2398 57.9789 95.5523 57.6241C94.765 57.4603 94.2493 57.3239 94.2221 57.3239C94.3578 57.3512 102.773 58.2792 105.298 56.778C107.85 55.2768 106.71 51.4282 106.71 51.4282C107.225 51.8922 107.633 52.4927 107.85 53.2297C108.474 55.3314 107.307 57.5149 105.244 58.1427Z" fill="#629B3E"/>
<path d="M105.651 50.5001C105.651 50.5001 103.479 44.7682 98.3212 48.3438C98.5927 47.9071 98.837 47.5796 99.0813 47.3612C100.656 45.8873 103.153 45.9692 104.619 47.5523C105.379 48.3711 105.705 49.4356 105.651 50.5001Z" fill="#A1BD71"/>
<path d="M104.348 67.505C105.515 62.592 94.1677 57.5698 94.1677 57.5698C94.1677 57.5698 94.1949 57.5425 94.2763 57.5152C95.5794 58.0611 102.746 61.0089 104.076 62.4555C105.406 63.8748 105.461 66.0038 104.348 67.505Z" fill="#A1BD71"/>
<path opacity="0.25" d="M98.2399 71.2986C96.1767 71.9264 93.9779 70.7527 93.3535 68.6783C92.8105 66.8496 93.7607 59.6711 94.005 57.8697C93.7878 60.217 93.082 71.4624 100.384 69.6882C99.8958 70.4252 99.1629 70.9984 98.2399 71.2986Z" fill="#629B3E"/>
<path d="M79.3457 61.5819C77.7169 67.0681 65.2837 81.9437 59.0942 89.1495C57.0039 91.5787 55.6195 93.1345 55.6195 93.1345C55.6195 93.1345 41.9103 73.2913 37.2954 62.9739C36.5624 61.3363 36.0466 59.9169 35.8838 58.8797C34.6079 51.3464 39.6843 44.1952 47.1768 42.9124C51.0859 42.2573 54.8865 43.3218 57.8183 45.56C58.0355 45.7237 58.2798 45.9148 58.497 46.1059C59.7729 45.2597 61.1845 44.6047 62.6776 44.2225C65.0394 43.5948 67.5912 43.5948 70.1158 44.359C77.364 46.5426 81.5175 54.267 79.3457 61.5819Z" fill="#8AAD4D"/>
<path d="M58.4699 46.106C58.2528 48.0712 58.0356 50.0091 57.8184 51.9743L57.5198 54.8948L57.2212 57.8153C57.0312 59.7806 56.8411 61.7185 56.6783 63.6837L56.4339 66.6315L56.2168 69.5793C56.1353 70.5619 56.081 71.5445 55.9996 72.5271C55.9453 73.5097 55.8639 74.4923 55.8096 75.475L55.6467 78.4228L55.5381 81.3706C55.4838 82.3532 55.4838 83.3358 55.4567 84.3184C55.4295 85.301 55.4024 86.2836 55.4295 87.2662C55.4295 88.2488 55.4295 89.2314 55.4567 90.214C55.5109 91.1966 55.5381 92.1793 55.5652 93.1619C55.0766 89.2587 54.9409 85.301 54.968 81.3706C54.968 77.4402 55.2123 73.4824 55.4838 69.552C55.7824 65.6216 56.1896 61.6912 56.6783 57.7881C57.1669 53.8849 57.7641 49.9818 58.4699 46.106Z" fill="#A1BD71"/>
<path d="M55.5923 93.162C55.5923 93.162 55.5651 93.162 55.5651 93.1893C54.3164 94.0354 28.8527 111.75 21.5231 112.978C14.0306 114.261 6.91812 109.157 5.64222 101.623C4.9364 97.3926 6.2123 93.2711 8.81839 90.2687C8.32975 89.5318 7.8954 88.7402 7.56964 87.9214C6.37518 85.0828 6.13086 81.8074 7.081 78.6139C9.25274 71.2717 16.9353 67.1229 24.2378 69.3065C27.0882 70.1526 32.4904 73.9739 38.0283 78.341C46.6338 85.0828 55.5923 93.162 55.5923 93.162Z" fill="#8AAD4D"/>
<path d="M8.81848 90.2685C10.773 90.4869 12.7005 90.7052 14.655 90.9236L17.5597 91.2238L20.4916 91.5241C22.4462 91.7151 24.3736 91.9062 26.3281 92.07L29.26 92.3156L32.1918 92.534C33.1691 92.6158 34.1464 92.6704 35.1237 92.7523C36.101 92.8069 37.0783 92.8888 38.0555 92.9434L40.9874 93.1072L43.9192 93.2163C44.8965 93.2709 45.8738 93.2709 46.8511 93.2982C47.8284 93.3255 48.8057 93.3528 49.7829 93.3255C50.7602 93.3255 51.7375 93.3255 52.7148 93.2982C53.6921 93.2436 54.6694 93.2163 55.6466 93.189C51.7647 93.6803 47.8284 93.8168 43.9192 93.7895C40.0101 93.7895 36.0738 93.5439 32.1647 93.2709C28.2556 92.9707 24.3464 92.5613 20.4644 92.07C16.5282 91.5514 12.6733 90.9782 8.81848 90.2685Z" fill="#A1BD71"/>
<path d="M64.0348 143.384C59.827 144.094 55.7279 142.811 52.7417 140.218C49.457 142.429 45.2221 143.22 41.1229 141.992C33.8205 139.808 29.667 132.084 31.8659 124.742C34.0105 117.536 54.9406 93.9261 55.5922 93.1891L55.6193 93.1618C55.6193 93.1618 55.6193 93.1618 55.6464 93.1891C56.2165 94.0079 74.1062 119.992 75.355 127.417C76.5766 134.95 71.5273 142.101 64.0348 143.384Z" fill="#8AAD4D"/>
<path d="M52.7147 140.19C52.9319 138.225 53.1491 136.287 53.3662 134.322L53.6649 131.402L53.9635 128.454C54.1535 126.489 54.3435 124.551 54.5064 122.585L54.7507 119.638L54.9679 116.69C55.0493 115.707 55.1036 114.725 55.1851 113.742C55.2394 112.759 55.3208 111.777 55.3751 110.794L55.538 107.846L55.6466 104.899C55.7009 103.916 55.7009 102.933 55.7009 101.951C55.728 100.968 55.7552 99.9855 55.728 99.0029C55.728 98.0203 55.728 97.0377 55.7009 96.0551C55.6466 95.0724 55.6194 94.0898 55.5923 93.1072C56.0809 97.0104 56.2167 100.968 56.1895 104.899C56.1895 108.829 55.9452 112.787 55.6737 116.717C55.3751 120.647 54.9679 124.578 54.4793 128.481C54.0178 132.439 53.4205 136.315 52.7147 140.19Z" fill="#A1BD71"/>
<path d="M103.561 98.2112C104.837 101.104 105.108 104.462 104.131 107.71C101.959 115.052 94.2767 119.201 86.9742 117.017C80.6218 115.107 61.4562 98.3477 56.6784 94.117C55.9726 93.4892 55.5925 93.1344 55.5925 93.1344C55.5925 93.1344 55.8097 92.9706 56.2441 92.6977C60.3432 89.859 82.8479 74.4649 89.6617 73.3185C96.3398 72.1721 102.719 76.1025 104.918 82.2711C105.19 83.0354 105.407 83.8269 105.543 84.673C106.248 88.9037 104.972 93.0252 102.394 96.0276C102.828 96.7373 103.235 97.4469 103.561 98.2112Z" fill="#8AAD4D"/>
<path d="M102.366 96.0549C100.412 95.8365 98.4843 95.6182 96.5297 95.3998L93.625 95.0996L90.6931 94.7993C88.7386 94.6083 86.8111 94.4172 84.8566 94.2534L81.9247 94.0078L78.9929 93.7894C78.0156 93.7075 77.0383 93.653 76.061 93.5711C75.0838 93.5165 74.1065 93.4346 73.1292 93.38L70.1973 93.2162L67.2655 93.1071C66.2882 93.0525 65.3109 93.0525 64.3336 93.0525C63.3564 93.0252 62.3791 92.9979 61.4018 93.0252C60.4245 93.0252 59.4472 93.0252 58.4699 93.0525C57.4927 93.1071 56.5154 93.1344 55.5381 93.1617C59.4201 92.6704 63.3564 92.5339 67.2655 92.5612C71.1746 92.5612 75.1109 92.8068 79.02 93.0798C82.9292 93.38 86.8383 93.7894 90.7203 94.2807C94.6566 94.7447 98.5386 95.3179 102.366 96.0549Z" fill="#A1BD71"/>
<path opacity="0.5" d="M64.0351 143.384C59.8273 144.094 55.7281 142.811 52.742 140.218C57.4927 142.21 67.6999 142.238 68.9758 129.846C70.2245 117.645 56.0811 93.9807 55.6196 93.2164C56.1896 94.0353 74.0794 120.02 75.3281 127.444C76.5769 134.95 71.5276 142.101 64.0351 143.384Z" fill="#629B3E"/>
<path opacity="0.5" d="M52.7148 140.19C49.43 142.401 45.1951 143.193 41.096 141.965C33.7935 139.781 29.64 132.057 31.8389 124.714C33.9835 117.509 54.9137 93.8988 55.5652 93.1618C55.5923 93.1618 55.5923 93.1618 55.5923 93.1618C55.5923 93.1618 24.7536 136.124 52.7148 140.19Z" fill="#629B3E"/>
<path opacity="0.5" d="M55.538 93.189C54.3164 94.0351 28.8527 111.749 21.5231 112.978C14.0306 114.26 6.91812 109.156 5.64222 101.623C4.9364 97.3923 6.2123 93.2708 8.81839 90.2684C5.96798 114.097 54.0992 93.7894 55.538 93.189Z" fill="#629B3E"/>
<path opacity="0.5" d="M79.3457 61.5819C77.7169 67.0681 65.2837 81.9437 59.0942 89.1495C57.0854 91.1147 55.728 92.4521 55.6466 92.534C55.9452 92.1792 75.0022 69.1698 75.5452 58.7706C76.0881 48.2894 62.6776 44.1952 62.6776 44.1952C65.0394 43.5675 67.5912 43.5675 70.1158 44.3317C77.364 46.5426 81.5175 54.2669 79.3457 61.5819Z" fill="#629B3E"/>
<path d="M57.7911 45.5602C57.7911 45.5602 36.8338 40.8655 37.2682 63.0014C36.5352 61.3637 36.0194 59.9444 35.8565 58.9072C34.5806 51.3739 39.6571 44.2227 47.1496 42.9399C51.0587 42.2848 54.8593 43.322 57.7911 45.5602Z" fill="#A1BD71"/>
<path d="M104.918 82.2986C92.8648 69.3064 56.1895 93.08 56.1895 93.08C56.1895 93.08 56.2167 92.9435 56.2167 92.6978C60.3158 89.8592 82.8205 74.465 89.6343 73.3187C96.3396 72.1996 102.719 76.1027 104.918 82.2986Z" fill="#A1BD71"/>
<path opacity="0.5" d="M104.131 107.71C101.959 115.052 94.2765 119.201 86.974 117.017C80.6217 115.107 61.4561 98.3477 56.6782 94.117C63.0577 99.303 94.5751 123.131 103.534 98.1839C104.809 101.104 105.108 104.462 104.131 107.71Z" fill="#629B3E"/>
</g>
</g>
<defs>
<clipPath id="clip0_634_2955">
<rect width="245" height="225" fill="white"/>
</clipPath>
</defs>
</svg>
