<svg width="245" height="225" viewBox="0 0 245 225" fill="none" xmlns="http://www.w3.org/2000/svg">
<path d="M166.707 211.974L43.0408 176.16C25.0464 170.961 18.9176 148.864 31.6508 135.286L129.739 31.0244C143.871 15.9798 169.337 23.3638 173.003 43.5523L198.582 183.627C201.912 201.88 184.673 217.173 166.707 211.974Z" fill="#E2E9D7"/>
<path d="M168.973 203.318C166.539 203.318 164.048 202.986 161.613 202.267L37.9754 166.453C29.3 163.937 22.6955 157.299 20.2888 148.671C17.8821 140.042 20.1209 130.999 26.2776 124.445L124.337 20.1834C131.054 13.0206 141.128 10.3104 150.587 13.0483C160.074 15.7862 167.043 23.4467 168.806 33.0709L194.384 173.146C195.979 181.94 192.929 190.762 186.212 196.736C181.371 201.023 175.242 203.318 168.973 203.318ZM143.087 13.3248C136.427 13.3248 130.102 16.0351 125.345 21.096L27.2851 125.385C21.4642 131.58 19.3373 140.153 21.6041 148.311C23.8709 156.47 30.1395 162.747 38.3392 165.126L161.977 200.94C170.177 203.318 178.908 201.354 185.261 195.713C191.641 190.043 194.524 181.719 193.013 173.395L167.434 33.2921C165.755 24.0552 159.319 16.9754 150.195 14.3481C147.817 13.6567 145.438 13.3248 143.087 13.3248Z" fill="#818E6C"/>
<path d="M98.6715 114.267L105.793 113.023L112.235 114.634L101.194 106.3L98.6715 114.267Z" fill="#D38272"/>
<path d="M83.7632 114.935L97.3007 114.295L93.6539 104.282C93.6539 104.282 90.8194 103.121 90.4742 103.144C90.129 103.166 80.461 107.859 80.461 107.859L83.7632 114.935Z" fill="#D38272"/>
<path d="M61.5277 112.589L69.6235 117.1L76.7516 114.026L70.1972 104.935L61.5277 112.589Z" fill="#D38272"/>
<path d="M48.7619 113.071L54.456 115.471L60.5539 111.186L57.4001 98.8402L48.7619 113.071Z" fill="#D38272"/>
<path d="M113.478 113.578L103.004 109.323C102.969 109.305 102.916 109.322 102.889 109.331L97.8952 115.151L92.6151 107.948C92.6068 107.922 92.5717 107.904 92.5451 107.912C92.5184 107.921 92.4917 107.929 92.465 107.938C92.4384 107.946 91.9001 108.378 91.0836 109.043C87.9708 111.54 80.6237 117.44 80.052 117.766C79.8752 117.764 79.0558 117.125 74.8329 111.588C72.5102 108.524 70.2325 105.417 70.2158 105.364C70.2074 105.338 70.1724 105.32 70.1457 105.329C70.1191 105.337 70.0924 105.346 70.0657 105.354L61.0076 112.986L57.4607 99.4015C57.4523 99.3752 57.4089 99.3309 57.3823 99.3394C57.3472 99.3215 57.3022 99.3648 57.2756 99.3732L45.7779 117.731L38.559 107.749C38.5156 107.705 38.4806 107.687 38.4356 107.73L24.3181 114.037L21.2436 110.271C21.7032 107.833 22.3791 105.89 23.0438 103.358C23.5472 101.428 24.1307 99.4735 24.7759 97.5279C31.761 75.9592 45.9067 53.9175 62.8546 51.4417C63.6966 51.3196 64.5554 51.2502 65.3959 51.2156C89.1179 50.5654 109.831 87.4623 113.478 113.578Z" fill="#D9B1A9"/>
<path d="M28.4622 112.2L35.4159 116.812L43.8642 115.031L38.6291 107.785L28.4622 112.2Z" fill="#D38272"/>
<path opacity="0.25" d="M108.255 126.549L101.875 120.661L99.6492 118.632C99.6189 118.607 99.5632 118.612 99.5353 118.615L93.387 123.199L89.8138 115.014C89.8114 114.987 89.7812 114.961 89.7533 114.964C89.7254 114.966 89.6975 114.969 89.6696 114.971C89.6417 114.973 89.0219 115.277 88.0795 115.747C89.3618 88.6824 74.3417 55.9772 73.1323 53.3615C73.9806 53.4269 74.8337 53.5474 75.6613 53.6979C76.6052 53.8938 77.5237 54.1197 78.4213 54.4307C101.498 68.937 110.343 101.33 108.255 126.549Z" fill="#D38272"/>
<path opacity="0.25" d="M113.637 122.664L104.983 121.702C105.572 75.1855 75.9008 54.419 72.7175 52.1886C94.2124 59.0412 115.317 97.4142 113.637 122.664Z" fill="#D38272"/>
<path opacity="0.25" d="M43.4119 77.7999C42.953 78.4754 42.2905 78.8516 41.9206 78.6119C41.5507 78.3722 41.6439 77.6229 42.0749 76.9482C42.5339 76.2727 43.1963 75.8965 43.5663 76.1362C43.9362 76.3759 43.8709 77.1245 43.4119 77.7999Z" fill="#D38272"/>
<path opacity="0.25" d="M70.1914 88.555C70.217 89.5779 69.7062 90.4206 69.0907 90.436C68.4473 90.4521 67.923 89.6353 67.8967 88.5848C67.871 87.5618 68.3818 86.7191 68.9973 86.7037C69.6415 86.7152 70.1658 87.532 70.1914 88.555Z" fill="#D38272"/>
<path opacity="0.25" d="M44.5929 100.372C44.0835 101.27 43.1993 101.735 42.6595 101.416C42.1196 101.098 42.0674 100.131 42.6048 99.2322C43.1142 98.3341 43.9984 97.8694 44.5382 98.1878C45.0774 98.4786 45.1023 99.4739 44.5929 100.372Z" fill="#D38272"/>
<path opacity="0.25" d="M87.4962 106.629C87.0622 108.3 85.6617 109.386 84.3937 109.058C83.1258 108.73 82.4695 107.114 82.9029 105.416C83.3369 103.745 84.7374 102.659 86.0054 102.987C87.274 103.342 87.9303 104.958 87.4962 106.629Z" fill="#D38272"/>
<path opacity="0.25" d="M82.0999 65.5168C82.3946 67.2246 81.5654 68.7669 80.2833 68.9926C79.0006 69.1907 77.7105 67.9781 77.4158 66.2703C77.1211 64.5625 77.9503 63.0202 79.2324 62.7945C80.5431 62.5957 81.8332 63.8083 82.0999 65.5168Z" fill="#D38272"/>
<path opacity="0.25" d="M63.2128 64.7446C62.6188 65.617 61.6206 66.0016 60.9374 65.5484C60.2549 65.1229 60.2 64.0454 60.794 63.1729C61.388 62.3005 62.3862 61.9158 63.0694 62.369C63.7239 62.7953 63.7789 63.8728 63.2128 64.7446Z" fill="#D38272"/>
<path d="M114.039 119.052C115.326 144.605 95.4288 166.343 69.5706 167.615C68.5072 167.67 67.4158 167.698 66.3524 167.67C41.9494 167.255 21.6882 148.173 20.4288 123.698C20.233 119.66 20.5128 115.097 21.2404 110.257L24.2348 113.355C24.2628 113.382 24.3188 113.382 24.3468 113.382L38.3393 106.8L45.8953 116.646C45.9232 116.673 45.9512 116.673 45.9792 116.673C46.0072 116.673 46.0352 116.646 46.0632 116.618L56.9774 98.0888L60.8953 111.502C60.8953 111.529 60.9232 111.557 60.9512 111.557C60.9792 111.557 61.0072 111.557 61.0352 111.529L69.9344 103.675C70.3262 104.201 72.5371 107.049 74.7759 109.815C79.1975 115.291 80.0091 115.816 80.233 115.816C80.2609 115.816 80.2889 115.788 80.3169 115.788C80.7087 115.567 84.4867 112.414 87.7609 109.676C89.9997 107.796 91.9867 106.109 92.4065 105.749L97.9195 112.857C97.9475 112.885 97.9755 112.885 98.0035 112.885C98.0315 112.885 98.0594 112.885 98.0874 112.857L102.929 106.911L113.311 112.553C113.703 114.82 113.955 117.005 114.039 119.052Z" fill="#D9B1A9"/>
<path opacity="0.25" d="M37.8635 135.617C38.1994 136.585 37.9755 137.553 37.3878 137.747C36.7721 137.94 36.0165 137.332 35.6807 136.336C35.3449 135.368 35.5688 134.4 36.1565 134.207C36.7721 134.013 37.5277 134.649 37.8635 135.617Z" fill="#D38272"/>
<path opacity="0.25" d="M49.3654 158.488C49.9811 159.318 50.065 160.286 49.5613 160.673C49.0576 161.06 48.1341 160.673 47.5184 159.843C46.9027 159.014 46.8188 158.046 47.3225 157.659C47.8262 157.299 48.7497 157.659 49.3654 158.488Z" fill="#D38272"/>
<path opacity="0.25" d="M65.9885 145.712C65.6527 146.375 65.0371 146.735 64.6173 146.541C64.1975 146.348 64.1695 145.629 64.5053 144.965C64.8412 144.301 65.4568 143.942 65.8766 144.135C66.2684 144.356 66.3244 145.048 65.9885 145.712Z" fill="#D38272"/>
<path opacity="0.25" d="M79.9811 134.041C79.3654 135.12 78.33 135.673 77.6583 135.285C76.9867 134.898 76.9587 133.737 77.6024 132.686C78.218 131.607 79.2535 131.054 79.9251 131.441C80.5688 131.801 80.5968 132.962 79.9811 134.041Z" fill="#D38272"/>
<path opacity="0.25" d="M92.6863 152.377C91.427 154.534 89.468 155.778 88.3207 155.114C87.1733 154.451 87.2572 152.183 88.5165 149.998C89.7759 147.841 91.7348 146.597 92.8822 147.26C94.0576 147.924 93.9736 150.219 92.6863 152.377Z" fill="#D38272"/>
<path opacity="0.25" d="M56.8094 121.43C57.1173 122.84 56.6695 124.113 55.802 124.306C54.9344 124.5 53.983 123.504 53.6751 122.121C53.3673 120.711 53.815 119.439 54.6826 119.245C55.5221 119.052 56.5016 120.047 56.8094 121.43Z" fill="#D38272"/>
<path opacity="0.25" d="M28.4606 122.177C28.7684 123.587 28.3206 124.859 27.4531 125.053C26.5856 125.247 25.6341 124.251 25.3262 122.868C25.0184 121.458 25.4662 120.186 26.3337 119.992C27.1733 119.798 28.1527 120.766 28.4606 122.177Z" fill="#D38272"/>
<path opacity="0.25" d="M101.418 125.855C100.998 127.016 100.074 127.735 99.3468 127.487C98.6191 127.238 98.3953 126.076 98.815 124.915C99.2348 123.753 100.158 123.034 100.886 123.283C101.614 123.532 101.837 124.693 101.418 125.855Z" fill="#D38272"/>
<path opacity="0.25" d="M114.039 119.052C115.326 144.605 95.4289 166.343 69.5706 167.615C68.5072 167.67 67.4158 167.698 66.3524 167.67C91.6788 148.118 89.8878 120.988 87.7609 109.676C89.9997 107.796 91.9867 106.109 92.4065 105.749L97.9195 112.857C97.9475 112.885 97.9755 112.884 98.0035 112.884C98.0315 112.884 98.0594 112.885 98.0874 112.857L102.929 106.911L105 108.045L113.311 112.553C113.703 114.82 113.955 117.005 114.039 119.052Z" fill="#D38272"/>
<path opacity="0.25" d="M114.039 119.052C115.326 144.605 95.4289 166.343 69.5706 167.615C68.5072 167.67 67.4158 167.698 66.3524 167.67C66.3524 167.67 107.91 159.816 105 108.017L113.311 112.525C113.703 114.82 113.955 117.005 114.039 119.052Z" fill="#D38272"/>
<path d="M228.358 103.197L228.344 103.249C228.109 102.665 227.617 102.199 226.955 102.022L226.188 101.816C225.718 101.69 225.419 101.201 225.549 100.716C225.675 100.248 226.165 99.9517 226.653 100.082L227.419 100.288C227.576 100.33 227.733 100.372 227.863 100.444C228.42 101.225 228.618 102.226 228.358 103.197Z" fill="#95B0D8"/>
<path d="M228.444 104.966L213.069 142.414L211.632 145.894L194.82 186.822L194.785 186.813C194.133 187.92 190.39 188.088 184.718 187.441C178.412 186.718 169.703 184.998 160.223 182.458C150.709 179.908 142.289 177.039 136.454 174.491C131.27 172.228 128.13 170.216 128.119 168.931L128.084 168.922L133.997 125.111L134.51 121.383L137.933 96.0625L139.776 82.2113L139.939 81.0471L140.671 81.2432L146.225 82.75L228.444 104.966Z" fill="#DAE7F5"/>
<path d="M228.444 104.966L228.385 105.118C228.345 105.2 228.291 105.26 228.216 105.333C225.788 107.562 206.105 104.555 182.772 98.3033C166.95 94.0637 153.339 89.3761 145.893 85.8013C143.127 84.4841 141.233 83.3264 140.382 82.3921C140.136 82.122 139.974 81.8926 139.92 81.6739C139.899 81.6125 139.891 81.5732 139.888 81.5165C139.876 81.4205 139.882 81.3291 139.91 81.2251C139.919 81.1904 139.928 81.1558 139.955 81.1258C139.964 81.0911 139.987 81.0784 139.996 81.0437C140.032 80.9791 140.081 80.9364 140.134 80.8764C140.258 80.761 140.435 80.6597 140.646 80.5677C141.655 80.1503 143.625 80.0465 146.365 80.2047C146.549 80.2167 146.715 80.2241 146.898 80.2361C155.04 80.8009 169.428 83.56 185.564 87.8836C207.712 93.8181 225.533 100.637 228.14 104.012C228.277 104.197 228.379 104.373 228.434 104.518C228.471 104.658 228.496 104.776 228.463 104.897C228.454 104.932 228.449 104.949 228.444 104.966Z" fill="#E2E9F0"/>
<path d="M227.19 104.63C226.407 104.904 223.446 105.43 213.422 103.877C205.012 102.571 194.23 100.221 183.06 97.2284C171.891 94.2354 161.374 90.8971 153.443 87.8058C143.968 84.1335 141.684 82.2022 141.142 81.574C141.925 81.3006 144.886 80.7747 154.911 82.3272C163.32 83.6329 174.102 85.983 185.272 88.9759C196.442 91.9688 206.958 95.3071 214.889 98.3985C224.364 102.071 226.653 103.985 227.19 104.63Z" fill="#773A42"/>
<path d="M144.642 77.3646C142.967 77.0644 141.293 78.0838 140.847 79.7482L140.629 80.563C140.211 80.7297 139.967 80.9431 139.892 81.2204L140.324 79.6081C140.798 77.8397 142.608 76.8009 144.386 77.2772C144.473 77.3005 144.56 77.3239 144.642 77.3646Z" fill="#E2E9F0"/>
<path d="M144.568 79.0356C144.447 79.4864 144.036 79.7664 143.653 79.6637C143.618 79.6544 143.6 79.6497 143.566 79.6404C143.548 79.6357 143.531 79.631 143.518 79.609C143.488 79.5823 143.453 79.573 143.41 79.5243C143.704 79.473 143.957 79.225 144.05 78.8782C144.143 78.5315 144.048 78.1901 143.819 77.9987C143.858 77.9907 143.915 77.9873 143.955 77.9793C143.972 77.984 143.994 77.9713 144.012 77.976C144.046 77.9853 144.064 77.99 144.099 77.9993C144.495 78.1241 144.693 78.5675 144.568 79.0356Z" fill="#6598D6"/>
<path d="M144.908 77.4173C144.821 77.3939 144.734 77.3706 144.642 77.3646C142.967 77.0644 141.293 78.0838 140.847 79.7482L140.629 80.563C140.69 80.5423 140.757 80.5043 140.836 80.4883C140.875 80.4803 140.897 80.4677 140.937 80.4597C141.121 80.3977 141.336 80.3624 141.556 80.3097C141.617 80.289 141.692 80.2904 141.753 80.2697C141.775 80.257 141.81 80.2664 141.85 80.2584C141.946 80.247 142.043 80.2357 142.161 80.2117C142.314 80.1971 142.49 80.1697 142.678 80.1644C142.748 80.1831 142.84 80.1891 142.919 80.1731C142.993 80.1744 143.072 80.1584 143.164 80.1645C143.26 80.1531 143.369 80.1638 143.466 80.1525C143.562 80.1411 143.654 80.1472 143.746 80.1532C143.899 80.1385 144.065 80.1459 144.214 80.1485C144.865 80.1559 145.569 80.1773 146.343 80.2174C146.527 80.2294 146.693 80.2367 146.876 80.2488C147.01 78.9838 146.198 77.7628 144.908 77.4173ZM143.653 79.6637C143.618 79.6544 143.6 79.6497 143.566 79.6404C143.548 79.6357 143.531 79.631 143.518 79.609C143.488 79.5823 143.453 79.573 143.41 79.5243C143.198 79.3376 143.086 78.9915 143.174 78.6621C143.267 78.3153 143.52 78.0673 143.814 78.016C143.854 78.008 143.91 78.0047 143.95 77.9967C143.967 78.0013 143.989 77.9887 144.007 77.9933C144.042 78.0027 144.059 78.0073 144.094 78.0167C144.477 78.1194 144.693 78.5675 144.573 79.0183C144.447 79.4864 144.053 79.7711 143.653 79.6637Z" fill="#B6C7D9"/>
<path opacity="0.25" d="M213.051 142.41L228.372 105.096C226.945 107.705 206.79 104.72 182.76 98.2812C161.082 92.4728 143.522 85.7978 140.369 82.3701C140.081 82.0513 139.915 81.7652 139.87 81.5118L137.915 96.0578C140.236 97.293 145.622 100.055 152.984 103.18C173.596 111.918 187.018 130.343 190.256 150.74C188.241 150.664 186.219 150.401 184.197 149.934C184.279 148.023 183.026 146.219 181.074 145.696C180.987 145.673 180.917 145.654 180.83 145.631L155.093 138.735C153.977 138.436 152.828 138.611 151.901 139.143C151.416 139.422 150.977 139.806 150.633 140.253C142.816 136.319 137.079 129.43 134.51 121.383L134.014 125.115C137.127 132.248 142.685 138.272 149.916 141.882C149.873 142.112 149.83 142.342 149.827 142.564C149.74 144.492 150.994 146.296 152.945 146.819L178.7 153.72C178.7 153.72 178.7 153.72 178.705 153.702C178.792 153.726 178.857 153.762 178.944 153.785C180.896 154.308 182.901 153.377 183.777 151.642C183.794 151.647 183.829 151.656 183.846 151.661C188.066 152.643 191.07 156.347 191.055 160.654C191.023 169.416 189.104 178.322 185.06 186.79C184.943 187.019 184.848 187.235 184.753 187.451C190.408 188.093 194.151 187.925 194.82 186.822L194.855 186.831L212.531 143.794L213.051 142.41Z" fill="#C0D5F9"/>
<path d="M228.881 103.337L228.449 104.949C228.454 104.932 228.458 104.914 228.463 104.897C228.456 104.784 228.331 104.694 228.271 104.567C228.221 104.405 228.16 104.426 228.14 104.012L228.358 103.197C228.623 102.208 228.42 101.225 227.881 100.449C227.504 99.9018 226.947 99.4737 226.286 99.2222C226.377 99.2283 226.465 99.2516 226.552 99.2749C227.423 99.5084 228.114 100.065 228.558 100.779C228.97 101.54 229.118 102.453 228.881 103.337Z" fill="#E2E9F0"/>
<path d="M227.876 100.466C227.5 99.9192 226.942 99.491 226.281 99.2396C226.198 99.1989 226.111 99.1755 226.024 99.1522C224.735 98.8067 223.421 99.4581 222.904 100.62C223.069 100.702 223.234 100.783 223.382 100.86C224.072 101.212 224.692 101.545 225.26 101.865C225.408 101.941 225.533 102.031 225.681 102.108C225.763 102.148 225.841 102.206 225.923 102.247C226.001 102.305 226.101 102.35 226.179 102.408C226.244 102.444 226.304 102.498 226.369 102.534C226.452 102.574 226.512 102.628 226.577 102.664C226.72 102.758 226.859 102.869 227.001 102.963C227.079 103.021 227.175 103.084 227.248 103.159C227.278 103.186 227.295 103.191 227.326 103.217C227.369 103.266 227.434 103.302 227.477 103.351C227.658 103.511 227.809 103.644 227.938 103.79C227.968 103.817 227.998 103.843 228.011 103.865C228.054 103.914 228.11 103.985 228.153 104.034L228.376 103.201C228.618 102.226 228.42 101.225 227.876 100.466ZM225.972 101.647C225.743 101.455 225.648 101.114 225.741 100.767C225.834 100.42 226.087 100.172 226.381 100.121C226.61 100.313 226.705 100.654 226.612 101.001C226.519 101.347 226.266 101.595 225.972 101.647Z" fill="#B6C7D9"/>
<path d="M225.213 100.644C225.093 101.095 225.309 101.543 225.692 101.646C225.727 101.655 225.744 101.66 225.779 101.669C225.797 101.674 225.814 101.679 225.836 101.666C225.876 101.658 225.928 101.672 225.967 101.664C225.739 101.473 225.643 101.131 225.736 100.785C225.829 100.438 226.082 100.19 226.376 100.138C226.346 100.112 226.298 100.08 226.268 100.054C226.251 100.049 226.238 100.027 226.221 100.022C226.186 100.013 226.168 100.008 226.133 99.9991C225.75 99.8964 225.339 100.176 225.213 100.644Z" fill="#6598D6"/>
<path d="M226.518 103.083C225.746 103.37 222.829 103.938 212.993 102.461C204.741 101.219 194.168 98.9365 183.221 96.0032C172.274 93.0699 161.972 89.7776 154.209 86.7096C144.935 83.0657 142.71 81.1207 142.185 80.486C142.185 80.486 146.888 76.2556 152.239 77.1195C158.254 78.1042 161.064 79.8735 161.064 79.8735C161.064 79.8735 167.912 73.8205 176.349 76.0812C185.828 78.6209 186.235 84.8228 186.23 84.8405C186.23 84.8405 192.034 76.6209 201.217 79.3093C210.382 81.9932 211.415 89.0393 211.415 89.0393C211.415 89.0393 222.993 87.8895 226.518 103.083Z" fill="#D3E2F6"/>
<path d="M227.207 104.635C226.424 104.908 223.463 105.434 213.439 103.882C205.029 102.576 194.248 100.226 183.078 97.233C171.908 94.2401 161.391 90.9018 153.46 87.8104C143.985 84.1381 141.701 82.2068 141.16 81.5786C141.16 81.5786 145.9 77.4787 151.354 78.3827C157.485 79.4121 160.701 79.9411 160.701 79.9411C160.701 79.9411 167.267 75.3123 175.875 77.6188C185.546 80.2102 186.027 86.298 186.022 86.3153C186.022 86.3153 193.374 77.8867 202.746 80.6207C212.1 83.3501 211.691 90.7 211.691 90.7C211.691 90.7 223.46 89.6944 227.207 104.635Z" fill="white"/>
<path opacity="0.3" d="M136.449 174.508C134.459 173.64 132.774 172.817 131.448 172.053C129.315 170.812 128.124 169.75 128.11 168.966L128.075 168.957L133.997 125.11L134.51 121.383L137.933 96.0625L139.585 83.8324L139.776 82.2113L139.888 81.5165C139.896 81.5558 139.899 81.6125 139.925 81.6565C139.996 81.8799 140.154 82.1267 140.386 82.3747C141.238 83.309 143.149 84.4715 145.897 85.784L136.449 174.508Z" fill="#E2E9F0"/>
<path opacity="0.3" d="M131.448 172.053C129.315 170.812 128.124 169.75 128.11 168.966L128.075 168.957L133.997 125.11L134.51 121.383L137.933 96.0625L139.585 83.8324C139.962 84.0264 140.375 84.2298 140.787 84.4333L131.448 172.053Z" fill="#E2E9F0"/>
<path d="M176.364 147.036C176.285 147.331 176.24 147.635 176.218 147.926L156.737 142.706C138.701 137.873 127.953 119.366 132.761 101.422L138.387 80.4268C138.935 78.381 141.054 77.1649 143.11 77.7158L143.877 77.9213C144.347 78.0474 144.646 78.5362 144.516 79.0216C144.39 79.4897 143.9 79.7857 143.412 79.655L142.645 79.4496C141.548 79.1554 140.422 79.8015 140.129 80.8937C140.076 80.9537 140.027 80.9964 139.991 81.0611C139.982 81.0957 139.96 81.1084 139.951 81.1431C139.941 81.1778 139.915 81.2078 139.905 81.2424C139.882 81.3291 139.876 81.4205 139.883 81.5338C139.891 81.5732 139.895 81.6299 139.92 81.6739L134.499 101.906C129.947 118.897 140.132 136.436 157.209 141.011L176.708 146.236C176.552 146.473 176.442 146.741 176.364 147.036Z" fill="#95B0D8"/>
<path d="M184.501 149.216C184.422 149.511 184.313 149.779 184.186 150.042C183.315 151.76 181.306 152.708 179.354 152.185C179.267 152.162 179.197 152.143 179.115 152.103C177.296 151.504 176.155 149.767 176.236 147.931C176.258 147.639 176.302 147.335 176.381 147.04C176.46 146.746 176.574 146.46 176.7 146.197C177.553 144.549 179.405 143.633 181.28 144.023C181.367 144.047 181.441 144.048 181.528 144.071C183.462 144.59 184.738 146.381 184.651 148.309C184.624 148.617 184.58 148.922 184.501 149.216Z" fill="#F4A882"/>
<path d="M176.236 147.931C176.258 147.639 176.302 147.335 176.381 147.04C176.46 146.746 176.574 146.46 176.7 146.197C177.553 144.549 179.405 143.633 181.28 144.023L181.284 144.006L176.597 142.75L155.529 137.105C154.414 136.806 153.265 136.982 152.338 137.514C151.411 138.046 150.684 138.947 150.387 140.057C150.308 140.351 150.264 140.656 150.242 140.947C150.155 142.875 151.408 144.679 153.36 145.202L174.427 150.847L179.115 152.103C179.115 152.103 179.115 152.103 179.119 152.085C177.296 151.504 176.133 149.78 176.236 147.931Z" fill="#F6A274"/>
<path opacity="0.5" d="M179.115 152.103C179.11 152.12 179.11 152.12 179.115 152.103L153.355 145.219C151.403 144.696 150.15 142.892 150.237 140.964L170.346 146.352C170.816 146.479 171.319 146.205 171.45 145.719C171.528 145.424 171.642 145.139 171.769 144.876C172.657 143.163 174.645 142.227 176.597 142.75L181.284 144.006C181.284 144.006 181.284 144.006 181.28 144.023C179.405 143.633 177.553 144.549 176.7 146.197C176.574 146.46 176.46 146.746 176.381 147.04C176.302 147.335 176.258 147.639 176.236 147.931C176.133 149.78 177.296 151.504 179.115 152.103Z" fill="#F37453"/>
<path d="M230.15 105.015L224.519 126.027C219.809 143.607 201.861 154.202 184.182 150.06C183.829 149.984 183.48 149.89 183.114 149.792L180.187 149.008C179.769 148.896 179.499 148.508 179.514 148.103C179.511 148.046 179.529 147.977 179.548 147.908C179.566 147.838 179.58 147.786 179.616 147.722C179.806 147.363 180.233 147.162 180.651 147.274L183.579 148.059C183.927 148.152 184.276 148.245 184.629 148.321C201.367 152.212 218.322 142.187 222.777 125.56L228.203 105.311C228.278 105.238 228.332 105.178 228.372 105.096L228.432 104.944L228.864 103.332C229.105 102.431 228.953 101.535 228.501 100.782C229.887 101.674 230.591 103.368 230.15 105.015Z" fill="#95B0D8"/>
<g clip-path="url(#clip0_634_3325)">
<path fill-rule="evenodd" clip-rule="evenodd" d="M218.746 102.515C214.871 93.8879 207.125 94.5497 207.125 94.5497C207.125 94.5497 206.194 88.8215 198.454 86.563C190.699 84.3007 185.885 90.9215 185.885 90.9215C185.888 90.9072 185.491 85.8698 177.489 83.7255C170.365 81.8169 164.653 86.67 164.653 86.67C164.653 86.67 162.271 85.2093 157.198 84.3575C154.064 83.838 151.215 85.3155 149.766 86.2669C149.701 86.2016 149.65 86.1453 149.611 86.0979C149.611 86.0979 153.502 82.5974 157.93 83.3123C162.907 84.1271 165.233 85.5911 165.233 85.5911C165.233 85.5911 170.899 80.5825 177.881 82.4531C185.724 84.5547 186.061 89.6865 186.057 89.7012C186.057 89.7012 190.859 82.8997 198.458 85.1243C206.042 87.3451 206.896 93.1756 206.896 93.1756C206.896 93.1756 215.273 92.3437 218.746 102.515Z" fill="#D3E2F6"/>
<ellipse cx="196.599" cy="91.7577" rx="4.5791" ry="2.52417" transform="rotate(15 196.599 91.7577)" fill="#E2E9F0"/>
<ellipse cx="209.826" cy="99.5919" rx="2.83838" ry="1.56462" transform="rotate(15 209.826 99.5919)" fill="#E2E9F0"/>
<ellipse cx="176.039" cy="87.9609" rx="4.3855" ry="2.41745" transform="rotate(15 176.039 87.9609)" fill="white"/>
<ellipse cx="169.644" cy="88.3697" rx="3.54101" ry="1.95194" transform="rotate(15 169.644 88.3697)" fill="#E2E9F0"/>
</g>
<defs>
<clipPath id="clip0_634_3325">
<rect width="95" height="112" fill="white" transform="translate(143.325 61.9974) rotate(15)"/>
</clipPath>
</defs>
</svg>
