<svg width="245" height="225" viewBox="0 0 245 225" fill="none" xmlns="http://www.w3.org/2000/svg">
<g clip-path="url(#clip0_634_3453)">
<path d="M150.058 206.279C187.543 189.223 200.205 136.133 178.339 87.6984C156.472 39.2639 108.358 13.8265 70.873 30.8824C33.3876 47.9383 20.7259 101.029 42.5922 149.463C64.4585 197.898 112.573 223.335 150.058 206.279Z" fill="#E2E9D7"/>
<path d="M130.691 204.754C119.217 204.754 107.316 201.653 95.6844 195.521C75.2848 184.727 58.1762 165.809 47.5594 142.274C25.6045 93.6443 38.4078 40.1262 76.1188 22.9733C94.3996 14.6458 115.746 16.0262 136.191 26.8203C156.59 37.6144 173.699 56.5098 184.316 80.0441C194.932 103.578 197.84 128.946 192.475 151.462C187.088 174.023 174.059 191.04 155.779 199.368C147.867 202.966 139.391 204.754 130.691 204.754ZM101.184 18.719C92.6188 18.719 84.3238 20.4615 76.5697 23.9916C39.4221 40.8956 26.8668 93.7574 48.5738 141.822C59.1004 165.13 76.0061 183.844 96.2029 194.525C116.354 205.184 137.34 206.541 155.305 198.349C173.27 190.18 186.096 173.435 191.393 151.213C196.713 128.946 193.828 103.827 183.301 80.5193C172.775 57.2113 155.869 38.4969 135.672 27.816C124.221 21.7513 112.477 18.719 101.184 18.719Z" fill="#818E6C"/>
<path d="M205.594 81.5376C208.029 91.404 196.217 101.361 170.385 94.21C156.072 89.3673 148.115 86.4255 148.115 86.4255L141.217 64.3168C141.217 64.3168 146.199 60.402 152.24 56.193C154.313 54.7447 156.5 53.2738 158.641 51.8934C158.641 51.8934 158.641 51.8934 158.664 51.8934C165.561 47.4807 172.121 44.1769 173.225 46.6661C174.127 48.7253 174.375 51.3503 174.33 53.8169C174.262 58.0485 173.338 61.8729 173.338 61.8729C173.338 61.8729 185.443 50.5357 196.217 43.7469C202.078 40.081 207.533 37.7275 210.463 39.2437C214.16 41.1445 213.844 46.1909 212.334 51.2145C212.334 51.2145 212.334 51.2145 212.334 51.2372C210.441 57.5733 206.654 63.8869 206.654 63.8869C206.654 63.8869 233.297 57.8901 239.631 62.3255C240.15 62.6875 240.555 63.1175 240.758 63.6606C243.598 70.4493 223.086 90.2499 205.594 81.5376Z" fill="#8AAD4D"/>
<path d="M160.061 83.9816C159.971 84.1853 159.881 84.4116 159.813 84.6152C159.047 86.4029 158.033 88.0549 156.816 89.5258C153.389 93.7348 148.34 96.5182 142.818 97.2876C142.57 97.3328 142.322 97.3554 142.074 97.3781C114.641 100.161 43.5696 100.116 18.6168 92.9201C17.6249 92.6486 16.9938 92.0376 16.6557 91.2682C15.5512 88.8016 17.3545 84.6378 20.5102 83.7779C29.504 81.334 49.6331 75.9709 72.2192 70.5172C74.9241 69.8836 77.6516 69.2274 80.4016 68.5711C98.254 64.3621 116.941 60.3115 132.494 57.7544C137.656 56.8945 142.975 57.4149 147.799 59.361C148.475 59.6326 149.129 59.9494 149.783 60.2888C156.32 63.6153 159.701 68.5259 160.895 74.0248C161.121 74.9978 161.234 75.9935 161.324 77.0118C161.482 79.3652 160.963 81.7413 160.061 83.9816Z" fill="#F07651"/>
<path d="M160.061 83.9816C159.971 84.1853 159.881 84.4116 159.791 84.6152C156.816 91.5398 150.256 96.2693 142.795 97.2876C142.547 97.3102 142.299 97.3554 142.051 97.3781C114.619 100.184 43.5471 100.116 18.5942 92.9428C17.6024 92.6712 16.9713 92.0602 16.6106 91.2682C24.3872 92.6486 52.6536 95.3641 85.4733 93.1464C123.275 90.5667 127.625 87.1271 134.387 82.737C141.645 78.0075 153.186 75.9709 160.828 74.0474C161.031 75.0204 161.188 76.0161 161.256 77.0344C161.481 79.3653 160.963 81.7413 160.061 83.9816Z" fill="#EF5A4B"/>
<path d="M54.2766 85.7241C54.2541 85.7241 54.2541 85.7241 54.2315 85.7241C54.0287 85.7014 53.8934 85.5204 53.9159 85.3167C54.209 83.0991 52.3381 80.2931 52.3155 80.2704C52.2028 80.112 52.2479 79.8631 52.4057 79.75C52.586 79.6368 52.8114 79.6821 52.9241 79.8405C53.0143 79.9536 54.9754 82.8954 54.6373 85.3846C54.6147 85.5883 54.4569 85.7241 54.2766 85.7241Z" fill="#EF5A4B"/>
<path d="M78.711 90.8609C78.6659 90.8609 78.6434 90.8609 78.5983 90.8382C78.3954 90.7704 78.3052 90.5667 78.3503 90.3857C79.4323 86.9234 78.3729 85.4299 78.3729 85.4299C78.2602 85.2715 78.2827 85.0452 78.4405 84.9094C78.5983 84.7963 78.8237 84.8189 78.9589 84.9773C79.004 85.0452 80.2663 86.7424 79.0491 90.612C79.004 90.7477 78.8688 90.8609 78.711 90.8609Z" fill="#EF5A4B"/>
<path d="M94.2643 81.945C94.2192 81.945 94.1741 81.945 94.1516 81.9223C93.9712 81.8545 93.8585 81.6508 93.9262 81.4471C94.67 79.2295 92.9118 77.7812 92.8217 77.7359C92.6639 77.6002 92.6413 77.3739 92.754 77.2155C92.8667 77.0571 93.1147 77.0344 93.2725 77.1476C93.295 77.1702 95.5491 78.9579 94.6024 81.6734C94.5573 81.8545 94.4221 81.945 94.2643 81.945Z" fill="#EF5A4B"/>
<path d="M119.555 68.6164C119.352 68.6164 119.195 68.458 119.195 68.2543C119.172 66.0367 118.022 65.4709 117.977 65.4257C117.797 65.3352 117.707 65.1315 117.797 64.9278C117.887 64.7468 118.09 64.6563 118.27 64.7468C118.338 64.7694 119.893 65.5162 119.916 68.2317C119.916 68.4354 119.758 68.5938 119.555 68.6164Z" fill="#EF5A4B"/>
<path d="M142.525 75.3599C142.479 75.3599 142.434 75.3599 142.389 75.3373C142.209 75.2694 142.096 75.0657 142.164 74.8621C142.93 72.8028 141.691 71.1509 141.645 71.083C141.533 70.9246 141.555 70.6983 141.713 70.5625C141.871 70.4494 142.096 70.472 142.232 70.6304C142.299 70.7209 143.764 72.6897 142.863 75.1336C142.795 75.2694 142.66 75.3599 142.525 75.3599Z" fill="#EF5A4B"/>
<path d="M114.438 89.3674C114.393 89.3674 114.371 89.3674 114.326 89.3447C114.123 89.2768 114.033 89.0732 114.078 88.8921C114.371 87.9417 114.393 87.1497 114.1 86.6292C113.83 86.154 113.424 86.0409 113.402 86.0409C113.199 85.9956 113.086 85.7919 113.131 85.5883C113.176 85.3846 113.356 85.2715 113.559 85.3167C113.582 85.3167 114.281 85.4978 114.709 86.2445C115.115 86.9687 115.137 87.9191 114.754 89.0958C114.731 89.2768 114.596 89.3674 114.438 89.3674Z" fill="#EF5A4B"/>
<path d="M30.9467 91.4266C30.9016 91.4266 30.8565 91.4266 30.7889 91.404C30.6085 91.3134 30.5184 91.1098 30.6085 90.9287C31.5778 88.6658 30.1577 87.8964 30.1126 87.8512C29.9323 87.738 29.8422 87.5117 29.9549 87.3307C30.045 87.1497 30.2704 87.0818 30.4508 87.1723C30.4733 87.1723 32.5471 88.2585 31.3073 91.2003C31.2172 91.3361 31.0819 91.4266 30.9467 91.4266Z" fill="#EF5A4B"/>
<path opacity="0.5" d="M205.594 81.5376C208.029 91.404 196.217 101.361 170.385 94.21C164.885 92.3544 160.332 90.7703 156.816 89.5257C158.033 88.0548 159.047 86.4029 159.813 84.6152C159.904 84.4115 159.994 84.1853 160.084 83.9816C160.963 81.7187 161.482 79.3652 161.301 77.0118C161.234 76.0161 161.098 75.0204 160.873 74.0247C159.678 68.5032 156.297 63.6153 149.783 60.2662C149.129 59.9494 148.475 59.6326 147.799 59.361C149.174 58.3653 150.662 57.2791 152.262 56.1703C156.094 58.2296 166.734 64.7468 166.576 73.9795C166.373 85.2262 195.654 65.3804 199.598 75.8803C202.393 78.8448 202.393 78.8448 202.393 78.8448C202.393 78.8448 237.67 82.307 239.203 65.8104C239.338 64.5205 239.473 63.3438 239.631 62.2802C240.15 62.6423 240.555 63.0722 240.758 63.6153C243.598 70.4493 223.086 90.2499 205.594 81.5376Z" fill="#629B3E"/>
<path d="M100.283 79.8631C96.0225 78.7316 91.7397 75.3599 90.8606 79.9536C89.125 80.6551 87.2766 80.5193 85.5635 79.9989C81.5512 78.7995 78.1926 75.473 78.1926 75.473L78.2602 74.5905L78.3729 73.1648C78.3729 73.1648 81.1004 67.6886 65.6824 67.5754C66.2234 67.1002 68.7254 66.2403 71.6106 66.1045C75.8934 65.9009 79.8832 68.3675 81.6865 72.2823C81.7316 72.3728 81.7541 72.4181 81.7541 72.4407C81.709 72.1239 80.6721 66.0367 84.3238 65.6293C88.0881 65.222 90.4549 69.6121 94.2193 66.625C93.9938 68.1185 90.7479 71.0377 86.1496 68.7069C85.0902 67.9375 83.625 70.7661 86.3975 74.0926C89.6885 73.3459 94.1742 70.223 98.7725 76.7629C100.959 79.8857 105.287 76.7855 105.287 76.7855C105.287 76.7855 104.566 81.0172 100.283 79.8631Z" fill="#8AAD4D"/>
<path d="M69.3565 123.718C56.2602 119.758 48.3258 114.35 43.9979 108.421C43.9979 108.398 43.9754 108.398 43.9754 108.398C39.1967 101.836 38.8586 94.5947 40.9098 87.8286C44.4037 76.1972 60.836 64.7242 78.4631 71.6034C79.4549 71.9881 80.4467 72.4181 81.4385 72.9385C82.9037 73.6853 84.3914 74.5678 85.8565 75.6088C85.9016 75.6314 85.9467 75.6767 86.0143 75.7219C86.4877 76.0387 86.9385 76.4008 87.4119 76.7402C87.9078 77.1023 88.3811 77.5096 88.877 77.917C123.297 81.3113 113.672 137.138 69.3565 123.718Z" fill="#C0252B"/>
<path opacity="0.5" d="M69.4692 123.741C56.3729 119.826 48.3934 114.463 44.0655 108.534C44.0655 108.512 44.043 108.512 44.043 108.512C44.043 108.512 70.0553 118.808 85.7212 107.131C98.0737 97.9438 87.7499 78.5053 87.5696 77.6228C87.502 77.306 87.4344 76.9892 87.3667 76.6724C87.5921 76.8308 87.8176 77.0118 88.0204 77.1702C88.2909 77.3739 88.5614 77.6002 88.8319 77.8265C89.7561 77.917 90.6577 78.0527 91.5143 78.2111C122.734 84.1174 112.635 136.64 69.4692 123.741Z" fill="#AF1C27"/>
<path d="M56.8463 74.9073C52.9693 76.3782 49.4754 79.5463 48.709 83.6422C48.0779 87.0139 49.4529 90.6346 52.0225 92.8522C54.5922 95.0925 58.2664 95.9298 61.6024 95.1831C64.0594 94.64 66.2459 93.3275 68.4098 92.0602C70.6414 90.7251 72.8504 89.4126 75.082 88.0775C75.916 87.5796 76.7725 87.0592 77.4037 86.3124C78.7111 84.7736 78.8012 82.4881 78.2377 80.542C75.6004 71.6034 63.7664 72.2823 56.8463 74.9073Z" fill="#CC333E"/>
<path opacity="0.5" d="M100.283 79.8631C96.7213 78.9127 93.1598 76.4461 91.5819 78.2564C90.7254 78.098 89.8237 77.9622 88.8996 77.8717C88.6291 77.6454 88.3586 77.4191 88.0881 77.2155C89.1926 76.2424 92.1229 74.1153 94.8955 76.2424C98.4118 78.9127 102.221 81.5376 105.309 76.8081C105.309 76.8081 104.566 81.0172 100.283 79.8631Z" fill="#629B3E"/>
<path opacity="0.5" d="M86.4426 74.1379C85.9692 74.6357 85.9692 75.292 86.0369 75.6993C85.9918 75.6541 85.9242 75.6088 85.8791 75.5862C85.2705 74.3189 83.7151 70.8567 83.9856 68.9106C84.3012 66.5119 86.2848 68.0959 88.6065 68.6616C92.7315 69.5442 94.2643 66.6476 94.2643 66.6476C94.0389 68.1412 90.793 71.0603 86.1946 68.7295C85.1352 67.9601 83.6475 70.8114 86.4426 74.1379Z" fill="#629B3E"/>
<path opacity="0.5" d="M81.4385 72.9159C80.4467 72.4181 79.4549 71.9655 78.4631 71.5808C77.9897 69.9515 75.5779 67.666 65.6824 67.5981C66.1107 67.4849 76.3217 64.4752 81.4385 72.9159Z" fill="#629B3E"/>
<path d="M154.652 111.906L154.449 112.042C152.059 113.626 149.625 115.21 147.1 116.59C145.838 117.314 144.576 117.971 143.291 118.649C142.006 119.306 140.721 119.917 139.414 120.55C136.822 121.818 134.162 122.881 131.502 123.99C130.172 124.533 128.82 125.008 127.445 125.484C126.926 125.665 126.385 125.868 125.867 126.072C125.033 126.366 124.199 126.66 123.365 126.909L119.24 128.199C117.865 128.606 116.467 128.968 115.092 129.353C112.32 130.145 109.502 130.733 106.707 131.367C101.094 132.544 95.4139 133.426 89.711 134.083C78.3053 135.305 66.8319 135.508 55.4713 134.49C49.7909 133.992 44.1332 133.223 38.5204 132.091C37.1229 131.797 35.7254 131.48 34.3278 131.163L32.2315 130.666C31.5327 130.507 30.834 130.326 30.1352 130.122C28.7377 129.738 27.3627 129.33 25.9877 128.901L23.9139 128.199L22.877 127.837L21.7725 127.43L21.6147 127.362C19.045 126.411 17.4897 123.832 17.67 121.184C17.7151 120.618 17.8278 120.03 18.0532 119.464C18.1659 119.147 18.3012 118.853 18.4815 118.582C19.5409 116.726 21.4795 115.572 23.5532 115.481C23.711 115.481 23.8913 115.481 24.0717 115.481L25.9426 115.572L27.9036 115.64C29.2336 115.685 30.5635 115.753 31.8709 115.776C34.5307 115.843 37.1905 115.934 39.8504 115.911C42.5102 115.957 45.17 115.979 47.8299 115.934C49.1598 115.889 50.4897 115.934 51.8196 115.911L55.8094 115.821L63.7663 115.549L67.7336 115.346C69.0635 115.278 70.3709 115.165 71.7008 115.097C76.9979 114.803 82.2499 114.327 87.502 113.739C98.0061 112.608 108.42 110.91 118.721 108.715C121.313 108.217 123.838 107.516 126.43 106.95C128.977 106.294 131.547 105.683 134.094 104.959C137.07 104.189 140.022 103.307 142.975 102.424C142.975 102.424 142.975 102.424 142.998 102.424C145.117 101.791 147.236 101.112 149.377 100.501C150.391 100.207 151.406 100.161 152.375 100.365C153.367 100.569 154.268 100.976 155.057 101.61H155.08C156.094 102.402 156.861 103.488 157.244 104.823C158.055 107.539 156.928 110.412 154.652 111.906Z" fill="#8AAD4D"/>
<path opacity="0.5" d="M157.244 104.8C156.861 103.488 156.072 102.379 155.08 101.587H155.057C154.268 100.976 153.367 100.546 152.375 100.342C148.768 105.66 138.039 119.419 121.156 124.375C76.9077 137.364 21.4118 127.362 17.67 121.184C17.4897 123.832 19.045 126.411 21.6372 127.384L21.795 127.452L22.8995 127.86L23.9364 128.222L26.0102 128.923C27.3852 129.353 28.7827 129.738 30.1577 130.145C30.8565 130.349 31.5327 130.53 32.2541 130.688L34.3504 131.186C35.7479 131.503 37.1454 131.82 38.543 132.114C44.1557 133.245 49.8135 134.015 55.4938 134.513C66.8545 135.508 78.3504 135.327 89.7336 134.105C95.4139 133.449 101.094 132.566 106.729 131.39C109.525 130.756 112.342 130.168 115.115 129.376C116.49 128.991 117.887 128.629 119.262 128.222L123.387 126.932C124.221 126.683 125.055 126.389 125.867 126.095C126.408 125.913 126.926 125.71 127.445 125.506C128.797 125.031 130.15 124.533 131.502 124.013C134.162 122.904 136.844 121.84 139.414 120.573C140.721 119.939 142.006 119.328 143.291 118.672C144.576 117.993 145.838 117.337 147.1 116.613C149.625 115.255 152.059 113.648 154.449 112.064L154.652 111.929C156.928 110.412 158.055 107.539 157.244 104.8Z" fill="#629B3E"/>
<path opacity="0.5" d="M39.2643 122.27C39.3094 122.677 38.9938 123.04 38.588 123.085C38.1823 123.13 37.8217 122.813 37.7766 122.406C37.7315 121.999 38.0471 121.637 38.4528 121.591C38.8585 121.546 39.2192 121.863 39.2643 122.27Z" fill="#629B3E"/>
<path opacity="0.5" d="M60.1147 125.868C60.1598 126.253 59.709 126.615 59.1229 126.66C58.5369 126.705 58.041 126.434 58.0184 126.049C57.9733 125.665 58.4242 125.302 59.0102 125.257C59.5738 125.212 60.0922 125.483 60.1147 125.868Z" fill="#629B3E"/>
<path opacity="0.5" d="M117.369 111.386C117.391 111.634 117.098 111.883 116.715 111.906C116.332 111.929 116.016 111.77 115.994 111.499C115.971 111.25 116.264 111.001 116.647 110.978C117.031 110.933 117.346 111.114 117.369 111.386Z" fill="#629B3E"/>
<path opacity="0.5" d="M131.434 114.757C131.479 115.142 130.938 115.504 130.24 115.572C129.541 115.64 128.977 115.368 128.932 114.984C128.887 114.599 129.428 114.237 130.104 114.169C130.803 114.101 131.389 114.373 131.434 114.757Z" fill="#629B3E"/>
<path opacity="0.5" d="M91.1536 120.437C91.1762 120.731 90.8155 121.003 90.3647 121.048C89.8913 121.093 89.4856 120.89 89.463 120.596C89.4405 120.301 89.8011 120.03 90.252 119.985C90.7253 119.917 91.1311 120.143 91.1536 120.437Z" fill="#629B3E"/>
<path opacity="0.5" d="M111.486 123.198C111.508 123.469 111.057 123.741 110.494 123.786C109.908 123.832 109.434 123.651 109.412 123.379C109.389 123.107 109.84 122.836 110.404 122.791C110.967 122.745 111.463 122.926 111.486 123.198Z" fill="#629B3E"/>
<path opacity="0.5" d="M54.9303 118.265C54.9528 118.604 54.5246 118.898 53.9385 118.966C53.3524 119.012 52.8791 118.785 52.834 118.468C52.8114 118.129 53.2397 117.835 53.8258 117.767C54.4118 117.699 54.8852 117.925 54.9303 118.265Z" fill="#629B3E"/>
<path opacity="0.5" d="M23.6208 118.536C23.6434 118.808 23.1926 119.079 22.629 119.125C22.043 119.17 21.5696 118.989 21.5471 118.717C21.5245 118.446 21.9754 118.174 22.5389 118.129C23.1024 118.084 23.5983 118.265 23.6208 118.536Z" fill="#629B3E"/>
<path opacity="0.5" d="M92.3257 122.27C94.0839 122.044 95.8421 121.818 97.6003 121.501C99.3585 121.229 101.094 120.912 102.83 120.573C106.301 119.894 109.772 119.102 113.176 118.152C116.58 117.201 119.938 116.07 123.252 114.78C126.52 113.422 129.699 111.861 132.742 110.005C129.856 112.087 126.678 113.762 123.432 115.21C120.141 116.613 116.76 117.744 113.356 118.717C109.908 119.623 106.436 120.415 102.943 121.026C99.4036 121.614 95.8872 122.089 92.3257 122.27Z" fill="#629B3E"/>
<path opacity="0.5" d="M26.0327 121.885C27.4303 122.723 29.0081 123.243 30.586 123.673C32.1639 124.081 33.7643 124.397 35.3872 124.578C38.6331 124.963 41.9016 125.031 45.17 124.827C46.8155 124.805 48.4384 124.578 50.0614 124.443C51.6844 124.262 53.3073 124.013 54.9303 123.764C56.5307 123.447 58.1536 123.175 59.754 122.859L64.5553 121.795L59.7991 122.994C58.1987 123.334 56.5757 123.628 54.9753 123.967C53.3524 124.216 51.7294 124.488 50.1065 124.691C48.4835 124.827 46.838 125.076 45.2151 125.121C41.9466 125.302 38.6557 125.212 35.3872 124.782C32.1413 124.329 28.8503 123.605 26.0327 121.885Z" fill="#629B3E"/>
<path d="M56.3954 126.887C56.418 130.326 55.5163 133.539 53.8934 136.323C50.9405 141.392 45.6434 144.945 39.4897 145.42L39.4672 145.488L27.9938 145.556L27.4528 142.139C26.0327 141.143 24.7704 139.944 23.6885 138.608C21.1639 135.463 19.6311 131.48 19.6085 127.135C19.586 122.881 20.9835 118.966 23.3503 115.843L21.5245 114.078C21.5245 114.078 32.9753 108.942 36.2213 108.647C36.7622 108.602 37.3032 108.557 37.8442 108.557C48.0327 108.489 56.3278 116.703 56.3954 126.887Z" fill="#EF5E3C"/>
<path d="M44.2008 129.059C44.2233 132.091 43.4118 134.942 42.0143 137.386C39.2192 142.252 33.9897 145.51 27.9938 145.556C18.9774 145.623 11.6291 138.337 11.5614 129.285C11.4938 120.234 18.752 112.856 27.7684 112.789C36.7848 112.721 44.1332 120.007 44.2008 129.059Z" fill="#F2674C"/>
<path d="M42.9159 129.082C42.9835 137.409 36.2889 144.22 27.9938 144.266C19.6987 144.334 12.9139 137.613 12.8688 129.285C12.8012 120.958 19.4958 114.146 27.7909 114.101C36.086 114.056 42.8483 120.754 42.9159 129.082Z" fill="#F07651"/>
<path opacity="0.5" d="M37.3709 129.987C37.416 137.205 35.8155 141.641 28.2192 141.709C20.6229 141.754 17.3996 137.341 17.3545 130.122C17.3094 122.904 20.4651 119.509 28.0614 119.464C35.6578 119.419 37.3032 122.745 37.3709 129.987Z" fill="#F39174"/>
<path d="M34.125 130.145C34.17 135.305 33.0881 138.473 27.9487 138.518C22.8094 138.563 20.6454 135.395 20.6004 130.236C20.5553 125.076 22.6967 122.655 27.836 122.632C32.9754 122.587 34.0799 124.986 34.125 130.145Z" fill="#F39174"/>
<path opacity="0.25" d="M53.8934 136.323C50.9406 141.392 45.6434 144.945 39.4897 145.42L39.4672 145.488L27.9938 145.556C33.9897 145.51 39.1967 142.229 42.0143 137.386C45.6434 137.5 50.1065 137.341 53.8934 136.323Z" fill="#E04336"/>
<path d="M65.8401 144.017C65.8626 147.049 65.0511 149.9 63.6536 152.344C60.8585 157.21 55.629 160.468 49.6331 160.513C40.6167 160.581 33.2683 153.295 33.2007 144.243C33.1331 135.191 40.3913 127.814 49.4077 127.746C58.4241 127.656 65.795 134.942 65.8401 144.017Z" fill="#EF5E3C"/>
<path d="M62.9098 144.017C62.9323 147.049 62.1208 149.9 60.7233 152.344C57.9282 157.209 52.6987 160.468 46.7028 160.513C37.6864 160.581 30.3381 153.295 30.2704 144.243C30.2028 135.191 37.461 127.814 46.4774 127.746C55.4938 127.678 62.8647 134.965 62.9098 144.017Z" fill="#F2674C"/>
<path d="M61.6249 144.039C61.6925 152.367 54.9979 159.178 46.7028 159.224C38.4077 159.291 31.6229 152.571 31.5778 144.243C31.5102 135.916 38.2048 129.104 46.4999 129.059C54.795 128.991 61.5573 135.712 61.6249 144.039Z" fill="#F07651"/>
<path opacity="0.5" d="M56.0799 144.945C56.1249 152.163 54.5245 156.599 46.9282 156.667C39.3319 156.734 36.1085 152.299 36.0635 145.08C36.0184 137.862 39.1741 134.49 46.7704 134.422C54.3893 134.377 56.0348 137.726 56.0799 144.945Z" fill="#F39174"/>
<path d="M52.8339 145.103C52.879 150.262 51.7971 153.431 46.6577 153.476C41.5184 153.521 39.3544 150.353 39.3094 145.194C39.2643 140.034 41.4057 137.613 46.545 137.59C51.6844 137.567 52.8114 139.944 52.8339 145.103Z" fill="#F39174"/>
<path d="M35.7705 150.33C35.793 152.525 35.2069 154.585 34.17 156.35C32.1414 159.857 28.3545 162.233 24.0266 162.256C17.5123 162.301 12.17 157.029 12.1475 150.489C12.1024 143.949 17.3545 138.586 23.8688 138.541C30.4057 138.518 35.7254 143.791 35.7705 150.33Z" fill="#EF5E3C"/>
<path d="M33.6516 150.353C33.6741 152.548 33.0881 154.607 32.0737 156.372C30.045 159.88 26.2582 162.256 21.9303 162.278C15.4159 162.323 10.0737 157.051 10.0512 150.511C10.0061 143.971 15.2582 138.608 21.7725 138.563C28.2868 138.518 33.6065 143.79 33.6516 150.353Z" fill="#F2674C"/>
<path d="M32.7049 150.353C32.75 156.372 27.9036 161.305 21.9077 161.351C15.9118 161.396 10.9979 156.531 10.9528 150.511C10.9077 144.492 15.7541 139.559 21.75 139.514C27.7684 139.468 32.6598 144.311 32.7049 150.353Z" fill="#F07651"/>
<path opacity="0.5" d="M28.6926 151.009C28.7376 156.237 27.5655 159.45 22.0655 159.495C16.5655 159.54 14.2438 156.35 14.1987 151.122C14.1536 145.895 16.4528 143.451 21.9528 143.406C27.4753 143.361 28.67 145.782 28.6926 151.009Z" fill="#F39174"/>
<path d="M26.3483 151.122C26.3709 154.856 25.6045 157.164 21.8852 157.187C18.166 157.21 16.5881 154.924 16.5656 151.19C16.543 147.456 18.0758 145.714 21.7951 145.691C25.5369 145.669 26.3258 147.389 26.3483 151.122Z" fill="#F39174"/>
<path d="M125.191 141.166C124.785 137.703 122.35 134.875 120.592 131.865C119.172 129.444 118.045 126.705 115.791 125.008C114.348 123.922 112.568 123.402 110.809 122.926C107.158 121.953 103.438 121.116 99.7418 120.301C98.8627 120.12 97.9836 120.03 97.1045 120.052L93.2499 120.075C93.2499 120.075 91.4467 120.754 91.334 121.818C89.711 122.836 88.5163 124.443 87.6372 126.14C86.6905 127.973 86.0368 129.919 85.1577 131.774C84.0758 134.083 82.6782 136.255 82.002 138.699C81.1905 141.618 81.4385 144.741 81.8893 147.751C82.2049 149.787 82.6106 151.869 83.5799 153.679C85.586 157.436 89.6885 159.586 93.7909 160.717C94.7151 160.966 95.6393 161.17 96.5635 161.351C96.6536 161.713 96.7213 161.916 96.7213 161.916L101.072 161.849C102.311 161.894 103.551 161.871 104.791 161.781H104.904C108.195 161.532 111.441 160.785 114.506 159.563C116.963 158.59 119.352 157.255 121.02 155.173C122.779 152.978 123.568 150.172 124.289 147.479C124.875 145.442 125.438 143.315 125.191 141.166Z" fill="#697F2A"/>
<path d="M83.9405 126.207C82.9938 128.04 82.3401 129.987 81.461 131.842C80.3791 134.15 78.9815 136.323 78.3053 138.767C77.4938 141.686 77.7418 144.809 78.1926 147.818C78.5082 149.855 78.9139 151.937 79.8832 153.747C81.8893 157.504 85.9918 159.653 90.0942 160.785C96.8791 162.663 104.272 162.233 110.832 159.608C113.289 158.635 115.678 157.3 117.346 155.218C119.104 153.023 119.893 150.217 120.615 147.502C121.178 145.42 121.742 143.293 121.494 141.165C121.088 137.703 118.654 134.874 116.895 131.865C115.475 129.443 114.348 126.705 112.117 125.008C110.674 123.922 108.893 123.401 107.135 122.926C103.484 121.953 99.7643 121.116 96.0676 120.324C93.25 119.713 90.4549 120.279 87.9303 121.704C86.127 122.723 84.8647 124.442 83.9405 126.207Z" fill="#708E2E"/>
<path d="M85.0676 127.271C84.1885 128.968 83.5798 130.779 82.7684 132.499C81.7766 134.648 80.4692 136.662 79.838 138.925C79.0716 141.641 79.3196 144.537 79.7253 147.321C80.0184 149.222 80.379 151.122 81.2807 152.82C83.1516 156.304 86.961 158.296 90.7479 159.359C97.0594 161.102 103.912 160.694 109.975 158.273C112.252 157.368 114.484 156.123 116.016 154.2C117.639 152.163 118.361 149.561 119.059 147.049C119.578 145.126 120.096 143.134 119.871 141.166C119.51 137.952 117.234 135.327 115.588 132.544C114.258 130.304 113.221 127.746 111.147 126.185C109.795 125.167 108.15 124.691 106.527 124.262C103.145 123.356 99.6741 122.587 96.2479 121.84C93.6331 121.274 91.0409 121.795 88.6967 123.107C87.0962 124.058 85.9241 125.619 85.0676 127.271Z" fill="#84A048"/>
<path d="M85.541 127.724C84.6844 129.353 84.0983 131.118 83.332 132.793C82.3627 134.875 81.1004 136.821 80.4918 139.016C79.7479 141.641 79.9959 144.447 80.4016 147.14C80.6721 148.973 81.0553 150.828 81.9119 152.457C83.7151 155.829 87.3893 157.775 91.0635 158.771C97.1721 160.446 103.799 160.061 109.66 157.73C111.869 156.848 114.01 155.648 115.498 153.793C117.076 151.824 117.775 149.312 118.428 146.868C118.924 145.012 119.443 143.089 119.217 141.166C118.857 138.043 116.67 135.531 115.092 132.815C113.807 130.643 112.816 128.176 110.787 126.66C109.479 125.687 107.902 125.212 106.324 124.782C103.033 123.899 99.6967 123.153 96.3832 122.429C93.8586 121.885 91.334 122.383 89.0799 123.673C87.502 124.601 86.375 126.14 85.541 127.724Z" fill="#A1BD71"/>
<path d="M115.904 144.899C115.859 145.284 115.791 145.669 115.701 146.031C115.385 147.23 114.822 148.339 114.258 149.448C113.289 151.326 112.297 153.295 110.652 154.63C109.096 155.897 107.135 156.508 105.174 156.848C105.107 156.87 105.016 156.87 104.949 156.893C103.889 157.074 102.83 157.164 101.77 157.21C97.6004 157.345 93.3852 156.418 89.6885 154.494C86.8258 153.023 84.1434 150.783 83.2418 147.705C83.1741 147.456 83.1065 147.208 83.0614 146.959C82.836 145.759 82.836 144.537 82.9037 143.315C82.9037 143.225 82.9036 143.157 82.9262 143.066C83.0614 140.781 83.3545 138.427 84.4139 136.391C85.293 134.694 86.668 133.291 87.8176 131.752C88.7418 130.507 89.5307 129.172 90.5225 127.973C91.1086 127.271 91.7622 126.592 92.5286 126.072C93.0245 125.732 93.543 125.461 94.1291 125.28C94.6024 125.121 95.0758 125.008 95.5491 124.94C97.1721 124.669 98.8176 124.85 100.35 125.529C102.965 126.705 105.58 127.882 108.127 129.195C109.344 129.806 110.584 130.485 111.486 131.503C112.883 133.11 113.289 135.305 113.965 137.319C114.529 139.016 115.34 140.69 115.723 142.41C115.904 143.225 115.994 144.062 115.904 144.899Z" fill="#B9CE94"/>
<path d="M89.4631 138.314C89.5307 139.106 88.9446 139.808 88.1331 139.876C87.3442 139.944 86.6454 139.355 86.5778 138.541C86.5102 137.749 88.7192 133.879 88.7192 133.879C88.7192 133.879 89.3954 137.522 89.4631 138.314Z" fill="#A1BD71"/>
<path d="M109.299 152.186C108.781 152.797 107.879 152.887 107.27 152.367C106.662 151.847 106.572 150.941 107.09 150.33C107.609 149.719 111.869 148.52 111.869 148.52C111.869 148.52 109.818 151.575 109.299 152.186Z" fill="#A1BD71"/>
<path d="M107.338 149.063C106.729 149.38 105.986 149.154 105.647 148.565C105.332 147.954 105.557 147.208 106.143 146.868C106.752 146.551 110.539 146.959 110.539 146.959C110.539 146.959 107.947 148.746 107.338 149.063Z" fill="#A1BD71"/>
<path d="M90.1167 153.634C89.3954 153.317 88.9446 152.571 89.1926 151.824C89.4405 151.054 90.3421 150.443 90.9958 150.896C92.5286 151.937 95.1208 153.431 95.1208 153.431C95.1208 153.431 91.4016 154.177 90.1167 153.634Z" fill="#A1BD71"/>
<path d="M91.8524 150.783C91.3114 150.398 91.086 149.719 91.4241 149.154C91.7397 148.588 92.5963 148.248 93.0471 148.724C94.1065 149.832 95.9323 151.484 95.9323 151.484C95.9323 151.484 92.7766 151.462 91.8524 150.783Z" fill="#A1BD71"/>
<path d="M100.441 149.222C101.117 149.765 101.387 150.692 100.891 151.417C100.418 152.141 99.2684 152.548 98.7048 151.869C97.3749 150.308 95.0757 147.977 95.0757 147.977C95.0757 147.977 99.2458 148.248 100.441 149.222Z" fill="#A1BD71"/>
<path d="M105.309 133.856C104.994 133.132 105.309 132.272 106.031 131.955C106.752 131.639 107.609 131.955 107.924 132.68C108.24 133.404 107.451 137.794 107.451 137.794C107.451 137.794 105.625 134.603 105.309 133.856Z" fill="#A1BD71"/>
<path d="M94.129 137.319C94.5348 138.269 94.084 139.378 93.1372 139.763C92.1905 140.17 91.086 139.717 90.7028 138.767C90.2971 137.816 91.4467 132.182 91.4467 132.182C91.4467 132.182 93.7233 136.346 94.129 137.319Z" fill="#A1BD71"/>
<path d="M101.703 134.965C101.094 134.218 101.117 133.2 101.725 132.68C102.357 132.159 103.348 132.363 103.957 133.11C104.566 133.856 105.377 138.925 105.377 138.925C105.377 138.925 102.311 135.712 101.703 134.965Z" fill="#A1BD71"/>
<path d="M114.326 142.116C113.852 142.025 113.379 141.935 112.928 141.844C111.418 141.595 109.908 141.414 108.42 141.301C106.932 141.188 105.422 141.12 103.934 141.098C103.258 141.098 102.582 141.098 101.928 141.12C101.568 141.12 101.252 140.894 101.139 140.555C100.26 137.613 99.2684 134.716 98.1864 131.82C97.4877 129.896 96.7438 127.973 95.9774 126.049C95.7295 125.393 95.0082 125.031 94.3319 125.235C94.2643 125.257 94.1967 125.28 94.1291 125.302C93.2725 125.574 92.9118 126.592 93.4303 127.316C94.6024 128.968 95.6393 130.733 96.5635 132.544C97.9385 135.214 98.5696 136.504 99.4713 139.378C99.4938 139.446 99.7192 140.125 99.877 140.645C99.9672 140.917 99.7643 141.188 99.4938 141.211C96.5184 141.369 93.5655 141.663 90.6352 142.071C89.17 142.274 87.6823 142.501 86.1946 142.75L83.9631 143.134C83.3319 143.247 82.8811 143.791 82.8811 144.424C82.8811 144.967 82.8811 145.51 82.9487 146.053C82.9938 146.506 83.4672 146.778 83.8729 146.574C84.1885 146.415 84.5266 146.28 84.8422 146.121C85.4959 145.827 86.1721 145.578 86.8483 145.307C88.2008 144.809 89.5983 144.379 90.9959 144.017C93.7909 143.27 96.6762 142.817 99.5614 142.636C100.08 142.614 100.531 142.953 100.666 143.451C101.184 145.533 101.568 147.66 101.793 149.787C101.996 151.711 102.063 153.657 101.928 155.58C101.883 156.485 102.65 157.232 103.551 157.119H103.574C104.318 157.051 104.859 156.327 104.723 155.58C104.363 153.521 103.957 151.484 103.506 149.493C103.191 148.09 102.604 145.85 102.199 144.288C101.973 143.406 102.65 142.546 103.574 142.569C103.686 142.569 103.799 142.569 103.912 142.591C105.354 142.659 106.797 142.84 108.195 143.112C109.592 143.383 110.99 143.791 112.297 144.288C113.176 144.65 114.033 145.058 114.867 145.51C115.318 145.782 115.904 145.465 115.949 144.945V144.922C115.971 144.628 115.994 144.311 115.971 144.017C115.904 143.066 115.227 142.297 114.326 142.116Z" fill="#D5E2BF"/>
<path d="M140.361 118.242C137.205 117.02 133.688 117.835 130.307 117.993C127.58 118.129 124.717 117.835 122.26 119.012C120.66 119.758 119.398 121.048 118.203 122.361C115.701 125.076 113.289 127.905 110.922 130.711C110.359 131.39 109.885 132.114 109.525 132.883L107.789 136.21C107.789 136.21 107.541 138.088 108.397 138.654C108.533 140.532 109.367 142.274 110.426 143.813C111.553 145.465 112.928 146.913 114.145 148.52C115.633 150.489 116.85 152.706 118.631 154.404C120.772 156.44 123.545 157.64 126.318 158.613C128.211 159.269 130.15 159.857 132.156 159.857C136.281 159.835 140 157.278 142.818 154.268C143.449 153.589 144.057 152.887 144.621 152.163C144.982 152.254 145.162 152.299 145.162 152.299L147.078 148.52C147.686 147.479 148.227 146.393 148.723 145.284L148.768 145.194C150.053 142.229 150.887 139.106 151.248 135.893C151.518 133.336 151.473 130.666 150.459 128.29C149.377 125.778 147.348 123.832 145.342 121.953C143.877 120.46 142.299 118.989 140.361 118.242Z" fill="#697F2A"/>
<path d="M108.781 147.004C109.908 148.656 111.283 150.104 112.477 151.711C113.965 153.679 115.182 155.897 116.963 157.594C119.104 159.631 121.877 160.83 124.65 161.803C126.543 162.46 128.482 163.048 130.488 163.048C134.613 163.025 138.332 160.468 141.15 157.459C145.838 152.457 148.836 145.872 149.58 139.038C149.85 136.481 149.805 133.811 148.791 131.435C147.709 128.923 145.68 126.977 143.697 125.099C142.186 123.673 140.609 122.202 138.67 121.456C135.514 120.234 131.998 121.048 128.617 121.207C125.889 121.342 123.027 121.048 120.57 122.225C118.969 122.972 117.729 124.262 116.512 125.574C114.01 128.29 111.598 131.118 109.232 133.924C107.428 136.074 106.639 138.744 106.707 141.573C106.797 143.542 107.676 145.397 108.781 147.004Z" fill="#708E2E"/>
<path d="M110.201 146.529C111.238 148.067 112.523 149.403 113.65 150.896C115.025 152.729 116.174 154.766 117.82 156.35C119.803 158.251 122.373 159.359 124.965 160.265C126.723 160.876 128.527 161.419 130.375 161.419C134.207 161.396 137.656 159.02 140.27 156.214C144.621 151.575 147.416 145.465 148.092 139.129C148.34 136.753 148.295 134.264 147.371 132.069C146.379 129.738 144.486 127.927 142.637 126.208C141.217 124.873 139.775 123.537 137.971 122.813C135.041 121.659 131.773 122.429 128.639 122.587C126.115 122.7 123.455 122.451 121.178 123.537C119.713 124.239 118.541 125.438 117.414 126.638C115.092 129.149 112.861 131.774 110.674 134.399C109.006 136.391 108.262 138.88 108.33 141.505C108.375 143.293 109.186 145.035 110.201 146.529Z" fill="#84A048"/>
<path d="M110.809 146.302C111.824 147.773 113.063 149.086 114.145 150.511C115.475 152.276 116.58 154.268 118.18 155.784C120.096 157.617 122.598 158.681 125.078 159.563C126.768 160.151 128.527 160.695 130.33 160.672C134.027 160.649 137.363 158.364 139.91 155.648C144.125 151.145 146.807 145.261 147.484 139.129C147.731 136.821 147.686 134.422 146.785 132.295C145.816 130.032 143.99 128.29 142.209 126.615C140.834 125.325 139.436 124.013 137.701 123.334C134.883 122.225 131.705 122.949 128.684 123.107C126.25 123.221 123.68 122.972 121.471 124.013C120.051 124.691 118.902 125.846 117.842 127.022C115.588 129.444 113.447 132.001 111.305 134.535C109.682 136.459 108.961 138.857 109.029 141.414C109.029 143.202 109.818 144.877 110.809 146.302Z" fill="#A1BD71"/>
<path d="M139.324 127.927C139.639 128.131 139.932 128.357 140.203 128.629C141.082 129.444 141.781 130.439 142.479 131.412C143.652 133.11 144.869 134.852 145.275 136.889C145.658 138.789 145.275 140.781 144.666 142.636C144.643 142.704 144.621 142.772 144.598 142.84C144.26 143.836 143.877 144.786 143.404 145.714C141.623 149.38 138.918 152.571 135.582 154.901C133.035 156.689 129.879 158.002 126.836 157.368C126.588 157.323 126.34 157.255 126.115 157.187C124.988 156.848 123.928 156.282 122.914 155.671C122.846 155.626 122.779 155.58 122.711 155.535C120.818 154.381 118.947 153.068 117.684 151.213C116.625 149.674 116.061 147.864 115.272 146.167C114.641 144.809 113.83 143.496 113.266 142.116C112.928 141.301 112.658 140.419 112.568 139.514C112.5 138.925 112.522 138.36 112.613 137.771C112.703 137.296 112.816 136.821 112.973 136.391C113.492 134.875 114.371 133.54 115.678 132.521C117.865 130.801 120.074 129.082 122.35 127.475C123.432 126.705 124.559 125.959 125.867 125.642C127.873 125.167 129.924 125.823 131.953 126.14C133.666 126.411 135.469 126.479 137.115 126.932C137.881 127.181 138.647 127.475 139.324 127.927Z" fill="#B9CE94"/>
<path d="M121.652 147.773C122.373 148.09 122.688 148.905 122.373 149.629C122.057 150.353 121.246 150.67 120.525 150.353C119.826 150.036 117.527 146.393 117.527 146.393C117.527 146.393 120.953 147.456 121.652 147.773Z" fill="#A1BD71"/>
<path d="M142.547 136.934C142.84 137.658 142.502 138.473 141.781 138.767C141.059 139.061 140.248 138.722 139.955 137.997C139.662 137.273 140.586 133.042 140.586 133.042C140.586 133.042 142.254 136.232 142.547 136.934Z" fill="#A1BD71"/>
<path d="M138.986 137.228C138.986 137.907 138.445 138.45 137.791 138.45C137.115 138.45 136.574 137.907 136.574 137.251C136.574 136.572 138.648 133.494 138.648 133.494C138.648 133.494 138.986 136.549 138.986 137.228Z" fill="#A1BD71"/>
<path d="M135.063 154.155C134.455 154.653 133.621 154.698 133.08 154.132C132.539 153.566 132.426 152.503 133.102 152.141C134.703 151.281 137.16 149.719 137.16 149.719C137.16 149.719 136.123 153.295 135.063 154.155Z" fill="#A1BD71"/>
<path d="M133.418 151.371C132.854 151.665 132.156 151.552 131.818 151.009C131.479 150.466 131.57 149.584 132.178 149.403C133.621 148.995 135.852 148.158 135.852 148.158C135.852 148.158 134.41 150.851 133.418 151.371Z" fill="#A1BD71"/>
<path d="M135.988 143.247C136.777 142.908 137.656 143.112 138.084 143.858C138.49 144.605 138.309 145.759 137.475 145.963C135.537 146.393 132.494 147.321 132.494 147.321C132.494 147.321 134.613 143.836 135.988 143.247Z" fill="#A1BD71"/>
<path d="M125.348 131.571C124.582 131.525 123.996 130.847 124.041 130.077C124.086 129.308 124.762 128.719 125.529 128.765C126.295 128.81 129.676 131.503 129.676 131.503C129.676 131.503 126.137 131.616 125.348 131.571Z" fill="#A1BD71"/>
<path d="M122.914 143.27C123.906 143.361 124.65 144.243 124.559 145.239C124.469 146.234 123.59 146.981 122.598 146.891C121.607 146.8 117.301 143.247 117.301 143.247C117.301 143.247 121.922 143.18 122.914 143.27Z" fill="#A1BD71"/>
<path d="M123.162 135.305C122.238 135.486 121.381 135.01 121.223 134.241C121.066 133.472 121.697 132.702 122.621 132.521C123.545 132.34 128.234 133.924 128.234 133.924C128.234 133.924 124.064 135.124 123.162 135.305Z" fill="#A1BD71"/>
<path d="M136.213 128.041C135.92 128.403 135.627 128.765 135.356 129.127C134.455 130.326 133.621 131.526 132.832 132.77C132.066 134.015 131.322 135.259 130.623 136.549C130.307 137.138 130.014 137.703 129.721 138.292C129.563 138.608 129.225 138.767 128.865 138.699C125.957 138.133 123.004 137.658 120.051 137.273C118.09 137.002 116.106 136.775 114.1 136.549C113.424 136.481 112.793 136.934 112.658 137.59C112.635 137.658 112.635 137.726 112.613 137.794C112.455 138.654 113.176 139.423 114.033 139.31C115.994 139.061 117.955 138.971 119.938 138.993C122.869 139.038 124.244 139.061 127.106 139.604C127.174 139.604 127.873 139.74 128.369 139.83C128.639 139.876 128.797 140.17 128.684 140.419C127.467 143.044 126.385 145.737 125.393 148.475C124.897 149.833 124.424 151.213 123.951 152.593L123.252 154.698C123.072 155.286 123.32 155.92 123.861 156.237C124.311 156.485 124.785 156.712 125.281 156.915C125.686 157.074 126.137 156.78 126.137 156.35C126.16 156.01 126.182 155.648 126.205 155.309C126.25 154.607 126.34 153.906 126.43 153.204C126.633 151.801 126.881 150.421 127.219 149.04C127.873 146.28 128.775 143.587 129.924 141.007C130.127 140.555 130.645 140.306 131.119 140.419C133.147 140.917 135.131 141.55 137.047 142.342C138.783 143.044 140.473 143.881 142.074 144.854C142.818 145.307 143.809 144.99 144.125 144.175L144.147 144.153C144.418 143.474 144.057 142.682 143.359 142.478C141.42 141.867 139.504 141.279 137.588 140.758C136.236 140.396 134.049 139.876 132.539 139.536C131.682 139.333 131.254 138.36 131.705 137.567C131.75 137.477 131.818 137.386 131.863 137.273C132.584 136.074 133.395 134.92 134.252 133.811C135.131 132.725 136.1 131.729 137.137 130.801C137.836 130.19 138.58 129.647 139.346 129.149C139.775 128.878 139.775 128.244 139.346 127.95C139.098 127.792 138.85 127.656 138.58 127.52C137.768 127.113 136.777 127.339 136.213 128.041Z" fill="#D5E2BF"/>
<path d="M206.09 104.325C201.131 104.348 197.299 106.249 194.617 110.028C191.912 113.784 190.604 119.012 190.65 125.687C190.74 139.604 195.992 146.529 206.383 146.438C209.088 146.415 212.131 145.986 215.512 145.126C218.916 144.266 222.229 146.8 222.252 150.33C222.275 152.706 220.742 154.834 218.488 155.535C214.408 156.802 209.99 157.436 205.211 157.459C196.172 157.526 189.229 154.811 184.406 149.335C179.582 143.858 177.125 135.983 177.057 125.687C177.012 119.193 178.139 113.513 180.461 108.625C182.783 103.737 186.141 99.9578 190.514 97.3328C194.91 94.7078 200.049 93.3727 205.977 93.3274C210.283 93.3048 214.588 94.0063 218.916 95.4546C221.846 96.4503 223.402 99.6636 222.275 102.56L222.027 103.171C220.967 105.932 217.879 107.335 215.107 106.271C214.385 106 213.686 105.751 212.965 105.502C210.666 104.71 208.344 104.303 206.09 104.325Z" fill="#29353D"/>
<path d="M229.465 98.1927C225.701 98.2153 222.635 95.1604 222.59 91.4039C222.568 87.6249 225.611 84.5473 229.352 84.502C233.117 84.4794 236.182 87.5344 236.227 91.2908C236.272 95.0925 233.229 98.1701 229.465 98.1927ZM229.397 87.7833C227.436 87.8059 225.859 89.4126 225.859 91.3813C225.881 93.3501 227.481 94.9341 229.443 94.9341C231.404 94.9115 232.982 93.3048 232.982 91.3361C232.959 89.3673 231.359 87.7833 229.397 87.7833Z" fill="#29353D"/>
<path d="M148.385 110.254C142.953 110.299 140.18 106.452 137.971 103.375C135.695 100.229 134.162 98.3059 131.164 98.3285C128.166 98.3511 126.656 100.297 124.424 103.465C122.238 106.566 119.533 110.435 114.1 110.48C108.668 110.526 105.895 106.679 103.686 103.601C101.41 100.456 99.877 98.5321 96.8791 98.5548C93.8811 98.5774 92.3709 100.524 90.1393 103.692C87.9528 106.792 85.2479 110.661 79.8155 110.707C74.3831 110.752 71.6332 106.905 69.4016 103.827C67.125 100.682 65.5922 98.7584 62.5942 98.7811C59.5963 98.8037 58.086 100.75 55.8545 103.918C53.668 107.018 50.9631 110.888 45.5307 110.933C40.0983 110.978 37.3258 107.131 35.1168 104.054C32.8401 100.908 31.3073 98.9847 28.3094 99.0074C27.0922 99.0074 26.1004 98.0343 26.0778 96.8123C26.0778 95.5903 27.0471 94.5947 28.2643 94.572C33.6967 94.5268 36.4692 98.3737 38.6782 101.451C40.9549 104.597 42.4877 106.52 45.4856 106.498C48.4836 106.475 49.9938 104.529 52.2254 101.361C54.4118 98.2606 57.1168 94.391 62.5491 94.3457C67.9815 94.3005 70.754 98.1474 72.9631 101.225C75.2397 104.37 76.7725 106.294 79.7704 106.271C82.7684 106.249 84.2786 104.303 86.5102 101.134C88.6967 98.0343 91.4016 94.1647 96.834 94.1195C102.266 94.0742 105.016 97.9212 107.248 100.999C109.525 104.144 111.057 106.068 114.055 106.045C117.053 106.022 118.563 104.076 120.795 100.908C122.982 97.808 125.686 93.9384 131.119 93.8932C136.551 93.8479 139.324 97.6949 141.533 100.772C143.809 103.918 145.342 105.841 148.34 105.819C151.338 105.796 152.871 103.85 155.08 100.682C157.266 97.5817 159.971 93.7121 165.404 93.6669C166.621 93.6669 167.613 94.6399 167.635 95.8619C167.635 97.0839 166.666 98.0796 165.449 98.1022C162.451 98.1248 160.941 100.071 158.709 103.239C156.545 106.362 153.818 110.231 148.385 110.254Z" fill="#29353D"/>
<path d="M148.543 131.752C143.111 131.797 140.338 127.95 138.129 124.873C135.852 121.727 134.32 119.804 131.322 119.826C128.324 119.849 126.791 121.795 124.582 124.963C122.395 128.063 119.691 131.933 114.258 131.978C108.826 132.023 106.053 128.176 103.844 125.099C101.568 121.953 100.035 120.03 97.0368 120.052C94.0389 120.075 92.5286 122.021 90.2971 125.189C88.1106 128.29 85.4057 132.159 79.9733 132.204C74.5409 132.25 71.7909 128.403 69.5594 125.325C67.2827 122.18 65.7499 120.256 62.752 120.279C59.754 120.301 58.2213 122.248 56.0122 125.416C53.8258 128.516 51.1208 132.385 45.6885 132.431C40.2561 132.476 37.5061 128.629 35.2745 125.551C32.9979 122.406 31.4651 120.482 28.4672 120.505C27.2499 120.505 26.2581 119.532 26.2356 118.31C26.2356 117.088 27.2049 116.092 28.4221 116.07C33.8544 116.024 36.627 119.871 38.836 122.949C41.1126 126.094 42.6454 128.018 45.6434 127.995C48.6413 127.973 50.1516 126.027 52.3831 122.859C54.5696 119.758 57.2745 115.889 62.7069 115.843C68.1393 115.798 70.9118 119.645 73.1208 122.723C75.3975 125.868 76.9303 127.792 79.9282 127.769C82.9262 127.746 84.4364 125.8 86.668 122.632C88.8545 119.532 91.5594 115.662 96.9917 115.617C102.424 115.572 105.174 119.419 107.406 122.496C109.682 125.642 111.215 127.565 114.213 127.543C117.211 127.52 118.721 125.574 120.953 122.406C123.139 119.306 125.844 115.436 131.277 115.391C136.709 115.346 139.482 119.193 141.691 122.27C143.967 125.416 145.5 127.339 148.498 127.316C151.496 127.294 153.029 125.348 155.238 122.18C157.424 119.079 160.129 115.21 165.561 115.165C166.779 115.165 167.77 116.138 167.793 117.36C167.793 118.582 166.824 119.577 165.606 119.6C162.609 119.623 161.076 121.569 158.867 124.737C156.68 127.86 153.975 131.729 148.543 131.752Z" fill="#29353D"/>
<path d="M148.678 153.25C143.246 153.295 140.473 149.448 138.264 146.37C135.988 143.225 134.455 141.301 131.457 141.324C128.459 141.347 126.949 143.293 124.717 146.461C122.531 149.561 119.826 153.431 114.393 153.476C108.961 153.521 106.188 149.674 103.979 146.597C101.703 143.451 100.17 141.528 97.1721 141.55C94.1741 141.573 92.6639 143.519 90.4323 146.687C88.2458 149.787 85.5409 153.657 80.1086 153.702C74.6762 153.747 71.9036 149.9 69.6946 146.823C67.418 143.677 65.8852 141.754 62.8872 141.777C59.8893 141.799 58.379 143.745 56.1475 146.913C53.961 150.014 51.2561 153.883 45.8237 153.928C40.3913 153.974 37.6413 150.127 35.4098 147.049C33.1331 143.904 31.6004 141.98 28.6024 142.003C27.3852 142.003 26.3934 141.03 26.3708 139.808C26.3708 138.586 27.3401 137.59 28.5573 137.567C33.9897 137.522 36.7622 141.369 38.9713 144.447C41.2479 147.592 42.7807 149.516 45.7786 149.493C48.7766 149.47 50.2868 147.524 52.5184 144.356C54.7049 141.256 57.4098 137.386 62.8422 137.341C68.2745 137.296 71.0471 141.143 73.2561 144.22C75.5327 147.366 77.0655 149.289 80.0635 149.267C83.0614 149.244 84.5717 147.298 86.8032 144.13C88.9897 141.03 91.6946 137.16 97.127 137.115C102.559 137.07 105.332 140.917 107.541 143.994C109.818 147.14 111.35 149.063 114.348 149.04C117.346 149.018 118.857 147.072 121.088 143.904C123.275 140.803 125.979 136.934 131.412 136.889C136.844 136.843 139.617 140.69 141.826 143.768C144.102 146.913 145.635 148.837 148.633 148.814C151.631 148.792 153.164 146.845 155.373 143.677C157.559 140.577 160.264 136.708 165.697 136.662C166.914 136.662 167.906 137.635 167.928 138.857C167.928 140.079 166.959 141.075 165.742 141.098C162.744 141.12 161.211 143.066 159.002 146.234C156.838 149.335 154.111 153.204 148.678 153.25Z" fill="#29353D"/>
</g>
<defs>
<clipPath id="clip0_634_3453">
<rect width="245" height="225" fill="white" transform="translate(-0.000244141)"/>
</clipPath>
</defs>
</svg>
