<svg width="245" height="225" viewBox="0 0 245 225" fill="none" xmlns="http://www.w3.org/2000/svg">
<g clip-path="url(#clip0_634_3395)">
<path d="M217.969 52.4257C154.137 -8.74002 58.1531 32.1218 25.5688 68.2834C-5.55471 106.795 11.9876 144.174 65.7463 206.473C119.505 268.771 297.758 128.883 217.969 52.4257Z" fill="#E2E9D7"/>
<mask id="mask0_634_3395" style="mask-type:alpha" maskUnits="userSpaceOnUse" x="10" y="21" width="229" height="202">
<path d="M217.969 52.4257C154.137 -8.74002 58.1531 32.1218 25.5688 68.2834C-5.55471 106.795 11.9876 144.174 65.7463 206.473C119.505 268.771 297.758 128.883 217.969 52.4257Z" fill="#E2E9D7"/>
</mask>
<g mask="url(#mask0_634_3395)">
<path d="M188.899 99.9172C188.899 99.9172 218.117 133.059 228.312 153.515C228.312 153.515 216.054 180.15 176.319 201.787C176.319 201.787 174.553 201.402 171.858 199.479C167.653 196.483 172.313 194.287 173.233 193.692C183.313 187.175 200.927 159.103 201.437 156.666C201.948 154.23 179.36 132.385 172.498 124.307C165.633 116.231 178.229 95.7562 188.899 99.9172Z" fill="#FFB27D"/>
<path d="M112.552 98.9773C112.552 98.9773 74.3106 135.312 65.4691 134.35C56.6251 133.387 22.0376 125.05 22.0376 125.05L19.1527 131.662C19.1527 131.662 53.8624 151.998 70.5296 151.707C87.1968 151.415 109.016 135.567 109.016 135.567L112.552 98.9773Z" fill="#FFB27D"/>
<path d="M140.308 51.1789C140.308 51.1789 140.498 55.2657 138.044 56.0644C135.588 56.8631 140.574 65.6801 140.181 71.6369C139.791 77.5914 137.15 79.9828 137.15 79.9828C137.15 79.9828 138.418 76.7066 137.709 74.6811C137.709 74.6811 137.821 78.8947 134.74 81.0206C131.659 83.1465 132.485 84.9831 132.485 84.9831C132.485 84.9831 125.517 82.9002 125.323 77.6871C125.323 77.6871 125.024 80.045 125.266 81.0206C125.266 81.0206 119.249 76.5129 118.964 71.3189C118.677 66.1249 123.699 61.7415 125.987 61.6626C128.275 61.5837 133.379 57.0999 133.242 55.4068C133.103 53.7066 140.308 51.1789 140.308 51.1789Z" fill="#2C3A64"/>
<path d="M178.274 59.587C182.328 53.443 172.805 40.044 157.005 29.6595C141.204 19.2751 125.109 15.8375 121.055 21.9815C117.001 28.1256 126.524 41.5246 142.324 51.909C158.125 62.2935 174.22 65.7311 178.274 59.587Z" fill="#E2AF64"/>
<path d="M156.362 240.921C151.98 264.098 146.337 295.63 141.983 320.297C141.468 323.21 140.97 326.025 140.495 328.717C140.388 329.339 140.28 329.958 140.172 330.566H96.6469C96.5846 329.946 96.5271 329.329 96.472 328.717C94.5264 307.709 94.79 289.143 96.0048 273.716C96.472 267.738 97.0878 262.226 97.7707 257.225C100.634 227.702 101.597 215.19 101.887 211.053L101.949 210.142C101.952 210.087 101.957 210.034 101.959 209.989L101.969 209.85C101.976 209.766 101.981 209.692 101.983 209.628L101.993 209.446C101.995 209.384 102 209.358 102 209.358L116.836 213.762L124.094 215.917L125.805 221.341L129.227 232.188L154.067 240.187L156.362 240.921Z" fill="#233862"/>
<path d="M184.907 246.758C184.157 258.801 182.92 301.265 181.54 328.717C181.509 329.344 181.478 329.959 181.447 330.566H136.324C136.185 329.954 136.046 329.337 135.907 328.717C131.117 307.219 127.195 283.078 124.384 263.486C123.89 263.507 118.739 228.493 105.829 213.057C105.711 212.918 105.697 212.808 105.766 212.725C106.406 211.904 114.598 213.322 114.598 213.322C115.293 213.507 116.038 213.652 116.831 213.76C123.028 214.607 132.023 213.241 140.948 211.165C140.948 211.165 140.948 211.165 140.95 211.165C143.363 210.603 145.764 209.991 148.11 209.355C154.718 207.564 160.838 205.598 165.201 204.118C166.284 203.752 167.257 203.413 168.105 203.116C168.791 202.875 169.394 202.659 169.9 202.478C169.902 202.478 169.902 202.478 169.902 202.478C171.12 202.04 171.798 201.784 171.798 201.784C171.798 201.784 172.104 202.052 172.624 202.607C174.357 204.451 178.459 209.448 181.485 218.17C183.929 225.188 185.666 234.62 184.907 246.758Z" fill="#2B478B"/>
<path d="M129.953 22.6858L158.353 65.6943C158.353 65.6943 161.6 59.3453 165.206 61.6219C170.832 65.1706 182.92 53.0249 180.4 35.8789C180.234 34.7574 180.036 33.6932 179.817 32.6793C174.151 24.5319 167.859 15.4591 163.342 9.08136C150.3 1.21858 129.953 22.6858 129.953 22.6858Z" fill="#2C3A64"/>
<path d="M117.471 109.564C121.446 113.199 126.608 116.451 133.297 118.979C158.377 128.465 171.278 107.969 177.048 93.4822C173.791 90.9856 170.53 90.0913 168.642 89.601C167.169 89.2208 165.625 88.8812 164.238 88.6062C163.507 88.4603 162.856 88.0419 162.443 87.4225C160.052 83.8187 157.632 74.6909 158.502 61.8565L157.239 62.0167L136.072 64.8218C136.072 64.8218 136.125 71.4219 135.749 77.6036C135.586 80.258 135.339 82.8359 134.977 84.7872C134.63 86.6525 133.089 88.061 131.196 88.2451C131.196 88.2451 131.194 88.2523 131.184 88.2619C130.846 88.6756 123.603 97.5882 117.471 109.564Z" fill="#FFB27D"/>
<path d="M136.07 64.8265C136.07 64.8265 136.127 71.4218 135.746 77.6083C147.465 78.022 154.328 67.7654 157.237 62.0214L136.07 64.8265Z" fill="#ED985F"/>
<path d="M131.79 70.434C131.79 70.434 159.439 72.6484 160.555 55.4426C161.672 38.2368 165.992 26.9352 148.386 24.795C130.779 22.6547 126.921 28.9966 125.148 34.6497C123.375 40.3029 124.626 69.4153 131.79 70.434Z" fill="#FFB27D"/>
<path d="M126.581 25.1345C131.189 20.2298 134.349 21.5714 136.063 23.2429C151.721 15.9039 160.685 28.7957 160.685 28.7957C161.749 41.2594 170.219 48.8974 170.219 48.8974C170.219 48.8974 164.976 51.6881 153.537 47.9624C150.044 46.8241 147.032 44.1027 144.53 40.8768C148.735 49.0505 154.778 55.1293 154.778 55.1293C141.296 47.838 136.947 28.2002 136.52 26.1269C134.733 27.533 131.194 30.6107 129.972 33.7721C128.314 38.067 127.116 47.0465 124.501 46.573C124.504 46.573 119.671 32.4903 126.581 25.1345Z" fill="#2C3A64"/>
<path d="M180.992 44.3444C180.992 44.3444 193.849 18.8023 175.881 8.7036C157.912 -1.3927 144.76 2.57216 134.876 14.9211L180.992 44.3444Z" fill="#EDBD77"/>
<path d="M181.725 139.411C182.71 140.434 183.325 141.01 183.325 141.01C204.27 138.409 205.252 116.944 205.252 116.944C205.252 116.944 188.858 95.3689 173.554 90.6221C169.828 89.4671 164.24 88.6062 164.24 88.6062C159.451 92.5686 153.935 98.3772 148.747 103.1C142.767 108.545 132.471 110.394 128.663 100.738C127.137 96.8683 130.805 88.8405 131.182 88.2618C131.191 88.2475 131.194 88.2427 131.194 88.2427C130.801 88.269 130.417 88.2977 130.044 88.3216C128.167 88.4723 126.478 88.6994 124.942 88.8549C117.474 89.6034 107.156 94.5439 86.3101 120.878C86.3101 120.878 97.5741 134.762 109.018 135.57C108.558 157.566 110.925 193.393 110.925 193.393C105.927 203.205 180.189 225.93 183.395 216.57C188.201 209.25 183.404 195.234 179.25 184.49C178.231 181.867 178.006 179.074 177.1 177.043C176.523 175.742 176.058 174.401 175.718 173.033C174.855 169.601 174.762 166 175.478 162.499C177.222 153.998 179.609 146.054 181.725 139.411Z" fill="#F99746"/>
<path d="M182.393 41.0754C181.852 40.5206 181.296 39.9634 180.723 39.4014L180.721 39.399C175.176 33.9898 168.108 28.4633 159.995 23.4128C153.465 19.3499 146.962 16.0283 140.86 13.5365H140.857C139.65 13.0391 138.459 12.58 137.285 12.1519C123.294 7.04396 112.018 6.65656 108.606 12.116C105.004 17.8744 111.098 28.5973 123.033 39.4731L123.035 39.4755C123.025 39.3799 123.013 39.2866 123.004 39.1958C122.994 39.1025 122.99 39.0068 122.98 38.9112C122.97 38.8036 122.961 38.6912 122.951 38.5812C122.944 38.5023 122.939 38.421 122.932 38.3373C122.925 38.2009 122.918 38.067 122.908 37.9283C122.898 37.7562 122.889 37.584 122.884 37.407C122.884 37.3879 122.882 37.3664 122.882 37.3448C122.875 37.2181 122.872 37.089 122.87 36.9598V36.8403C122.867 36.7566 122.867 36.6729 122.867 36.5868C122.865 36.2855 122.867 35.977 122.875 35.6709C122.875 35.5633 122.877 35.4509 122.884 35.3433C122.886 35.2811 122.891 35.2189 122.891 35.1591C122.898 35.0563 122.901 34.9559 122.91 34.8578C122.92 34.6689 122.932 34.4848 122.949 34.3006C122.963 34.1165 122.982 33.93 123.002 33.7435C123.002 33.7339 123.004 33.7219 123.004 33.7124C123.011 33.6454 123.018 33.5761 123.025 33.5115C123.033 33.4685 123.035 33.4254 123.04 33.3848C123.059 33.2556 123.073 33.1265 123.093 32.9974C123.121 32.7845 123.155 32.5741 123.196 32.366C123.203 32.3326 123.208 32.2943 123.215 32.2608C123.258 32.0121 123.308 31.7634 123.366 31.5171C123.39 31.3928 123.421 31.2708 123.452 31.1512C123.454 31.1369 123.459 31.1201 123.462 31.1058C122.187 28.4251 121.954 26.1055 122.994 24.4411C124.2 22.5113 126.941 21.7317 130.662 21.9756C130.664 21.9756 130.664 21.9756 130.669 21.9756C130.77 21.9828 130.873 21.9899 130.978 21.9995H130.98C132.356 22.1047 133.856 22.3439 135.459 22.7169H135.461C135.837 22.803 136.218 22.8963 136.606 22.9967C138.015 23.3674 139.494 23.8265 141.025 24.3765H141.044C145.623 26.0242 150.657 28.4753 155.722 31.6295C157.826 32.94 159.817 34.3006 161.679 35.6852H161.682C161.866 35.8239 162.053 35.9626 162.235 36.1013C170.842 42.6178 176.528 49.6173 177.179 54.4526C177.352 55.7392 177.172 56.8727 176.588 57.8029C176.542 57.877 176.492 57.9488 176.437 58.0181C176.429 58.0301 176.425 58.0396 176.417 58.0492C176.037 58.5705 175.533 58.9962 174.92 59.3358C174.918 59.3382 174.918 59.3381 174.913 59.3381C174.829 59.3884 174.745 59.4314 174.659 59.4697C174.656 59.4673 174.656 59.4697 174.656 59.4697C174.026 59.7782 173.288 60.0006 172.464 60.1345C172.462 60.1345 172.462 60.1345 172.462 60.1345C172.462 60.1345 172.462 60.1345 172.459 60.1345C172.38 60.199 172.299 60.2612 172.217 60.3234C172.16 60.3688 172.097 60.4166 172.035 60.4597C171.975 60.5027 171.918 60.5458 171.855 60.5888C171.836 60.6008 171.819 60.6127 171.8 60.6295C171.695 60.6964 171.594 60.7682 171.491 60.8351C171.331 60.9404 171.168 61.0384 171.007 61.1341C170.928 61.1795 170.847 61.2273 170.768 61.2704C170.686 61.3134 170.607 61.3565 170.526 61.3971C170.418 61.4521 170.312 61.5047 170.204 61.5549C170.164 61.5765 170.125 61.5956 170.085 61.6099C170.044 61.6291 170.006 61.6434 169.965 61.6625C169.962 61.6625 169.962 61.6649 169.958 61.6649C169.948 61.6673 169.938 61.6745 169.929 61.6769C169.879 61.6984 169.831 61.7175 169.78 61.7391C169.706 61.7678 169.634 61.7989 169.562 61.8228C169.469 61.8562 169.38 61.8897 169.292 61.9184C169.205 61.9471 169.119 61.9734 169.035 61.9949C169.028 61.9973 169.021 62.0021 169.011 62.0045C168.939 62.0236 168.872 62.0404 168.8 62.0571C168.776 62.0667 168.75 62.0715 168.724 62.0786C168.659 62.093 168.594 62.1097 168.527 62.1217C168.446 62.136 168.367 62.1528 168.283 62.1647C168.232 62.1743 168.185 62.1791 168.134 62.1863C168.074 62.1958 168.017 62.2006 167.959 62.2078C167.883 62.2173 167.808 62.2221 167.732 62.2269C167.701 62.2293 167.669 62.2293 167.638 62.2293H167.602C167.583 62.2317 167.562 62.2317 167.542 62.2317H167.521C167.492 62.2341 167.468 62.2341 167.439 62.2341C167.238 62.2341 167.037 62.2221 166.843 62.1982C166.649 62.1743 166.457 62.1336 166.272 62.0834C166.179 62.0547 166.088 62.0284 165.997 61.9973C165.93 61.9734 165.86 61.9447 165.796 61.916C165.745 61.8969 165.697 61.8754 165.647 61.8515C165.606 61.8323 165.568 61.8156 165.527 61.7941C165.494 61.7797 165.455 61.7606 165.422 61.7391C165.35 61.7032 165.283 61.6625 165.216 61.6195C165.074 61.531 164.931 61.4521 164.792 61.3923C164.746 61.3708 164.698 61.3517 164.655 61.3349C164.636 61.3278 164.619 61.3206 164.6 61.3134C164.533 61.2847 164.463 61.2632 164.396 61.2464C164.128 61.1651 163.862 61.1293 163.598 61.1293C163.596 61.1293 163.596 61.1293 163.591 61.1293H163.56C163.55 61.1293 163.541 61.1293 163.531 61.1317H163.493C163.459 61.1317 163.428 61.1341 163.395 61.1388C163.373 61.1388 163.352 61.1388 163.33 61.1412C163.27 61.1484 163.215 61.1532 163.16 61.1628C163.153 61.1628 163.148 61.1651 163.141 61.1651C163.117 61.1675 163.088 61.1747 163.064 61.1795C163.019 61.1867 162.975 61.1938 162.932 61.2082C162.889 61.2178 162.846 61.2297 162.801 61.2417C162.748 61.2536 162.7 61.2704 162.647 61.2871C162.614 61.2991 162.58 61.311 162.547 61.323C162.496 61.3373 162.444 61.3588 162.396 61.3828C162.393 61.3828 162.393 61.3828 162.393 61.3828C162.352 61.3971 162.317 61.4138 162.276 61.433C162.24 61.4521 162.202 61.4665 162.168 61.4856C162.125 61.5047 162.084 61.5286 162.041 61.5502L161.921 61.6147C161.878 61.6386 161.837 61.6649 161.797 61.6889C161.756 61.7128 161.72 61.7391 161.679 61.763C161.638 61.7869 161.6 61.8132 161.559 61.8395C161.519 61.8634 161.478 61.8921 161.442 61.9232C161.365 61.9758 161.289 62.0332 161.214 62.0954C161.174 62.1241 161.138 62.1528 161.104 62.1839C161.068 62.2149 161.03 62.246 160.994 62.2795C160.92 62.3417 160.848 62.4063 160.778 62.4708C160.706 62.533 160.637 62.6 160.567 62.6717C160.534 62.7052 160.5 62.7387 160.467 62.7769C160.433 62.8104 160.4 62.8439 160.368 62.8797C160.328 62.9156 160.294 62.9539 160.261 62.9897H160.263C161.614 63.5469 162.947 64.0635 164.257 64.537C168.455 66.0555 172.402 67.1507 175.965 67.7916C184.219 69.2742 190.399 68.3105 192.773 64.513C195.924 59.4481 191.594 50.5499 182.393 41.0754Z" fill="#FFCF83"/>
<path d="M165.812 185.91C176.509 189.33 171.515 183.478 179.777 184.074C178.758 181.45 178.006 179.076 177.098 177.048C176.521 175.747 176.056 174.406 175.715 173.038C174.853 169.606 174.759 166.005 175.476 162.504C177.385 153.216 179.477 146.398 181.725 139.415C179.362 133.217 169.275 143.378 169.275 143.378C169.275 143.378 159.935 153.17 162.379 169.824C164.655 185.336 156.583 182.957 165.812 185.91Z" fill="#ED7D2B"/>
<path d="M173.552 90.6244C173.552 90.6244 156.281 101.639 151.865 124.861L146.641 123.207C146.641 123.207 148.841 106.474 168.819 89.4479C168.819 89.4479 170.324 89.7444 170.83 89.8711C171.508 90.0385 173.552 90.6244 173.552 90.6244Z" fill="#2B478B"/>
<path d="M112.552 125.449L118.02 125.808C116.925 105.673 127.048 91.9274 130.044 88.3236C128.167 88.4743 126.466 88.656 124.942 88.8569C113.841 105.771 112.552 125.449 112.552 125.449Z" fill="#2B478B"/>
<path d="M151.34 137.744C151.678 136.309 155.025 122.37 155.025 122.37C155.025 122.37 155.797 118.01 148.122 117.58C140.447 117.149 113.223 115.717 113.223 115.717C113.223 115.717 109.514 117.953 109.459 122.537C109.404 127.121 105.699 153.357 105.699 153.357L101.887 211.055L184.909 246.758C184.909 246.758 190.602 217.596 184.229 197.272C180.512 185.418 175.718 173.04 175.718 173.04C175.718 173.04 146.174 159.651 151.34 137.744Z" fill="#2B478B"/>
<path d="M152.08 122.836C152.464 121.631 151.795 120.344 150.588 119.962C149.38 119.579 148.091 120.246 147.707 121.451C147.324 122.657 147.993 123.943 149.2 124.326C150.405 124.706 151.697 124.041 152.08 122.836Z" fill="#ED7D2B"/>
<path d="M151.687 122.712C152.071 121.506 151.402 120.22 150.197 119.837C148.989 119.455 147.7 120.122 147.317 121.327C146.934 122.532 147.602 123.819 148.81 124.201C150.015 124.582 151.304 123.917 151.687 122.712Z" fill="#F99746"/>
<path d="M150.923 122.016C150.923 121.831 150.775 121.683 150.59 121.683C150.406 121.683 150.257 121.831 150.257 122.016C150.257 122.2 150.406 122.348 150.59 122.348C150.775 122.348 150.923 122.2 150.923 122.016Z" fill="#2B478B"/>
<path d="M148.745 122.021C148.745 121.836 148.596 121.688 148.412 121.688C148.227 121.688 148.079 121.836 148.079 122.021C148.079 122.205 148.227 122.353 148.412 122.353C148.596 122.353 148.745 122.202 148.745 122.021Z" fill="#2B478B"/>
<path d="M118.322 119.928C118.705 118.723 118.037 117.436 116.829 117.054C115.621 116.671 114.332 117.338 113.949 118.544C113.566 119.749 114.234 121.035 115.442 121.418C116.649 121.798 117.938 121.133 118.322 119.928Z" fill="#ED7D2B"/>
<path d="M117.929 119.804C118.312 118.598 117.644 117.312 116.436 116.929C115.229 116.547 113.939 117.214 113.556 118.419C113.173 119.624 113.841 120.911 115.049 121.293C116.256 121.674 117.546 121.009 117.929 119.804Z" fill="#F99746"/>
<path d="M117.164 119.108C117.164 118.924 117.016 118.775 116.831 118.775C116.647 118.775 116.498 118.924 116.498 119.108C116.498 119.292 116.647 119.44 116.831 119.44C117.016 119.44 117.164 119.292 117.164 119.108Z" fill="#2B478B"/>
<path d="M114.989 119.113C114.989 118.929 114.84 118.78 114.656 118.78C114.471 118.78 114.323 118.929 114.323 119.113C114.323 119.297 114.471 119.445 114.656 119.445C114.84 119.445 114.989 119.295 114.989 119.113Z" fill="#2B478B"/>
<path d="M177.172 54.4575C177.172 54.4575 177.362 58.5419 174.908 59.343C172.452 60.1418 177.438 68.9587 177.048 74.9156C176.657 80.87 174.017 83.2614 174.017 83.2614C174.017 83.2614 175.284 79.9852 174.575 77.9598C174.575 77.9598 174.687 82.1733 171.606 84.2992C168.525 86.4252 169.351 88.2617 169.351 88.2617C169.351 88.2617 162.384 86.1789 162.189 80.9633C162.189 80.9633 161.89 83.3212 162.132 84.2969C162.132 84.2969 156.115 79.7891 155.83 74.5951C155.543 69.4011 160.565 65.0177 162.853 64.9388C165.141 64.8599 170.245 60.3761 170.109 58.683C169.967 56.9852 177.172 54.4575 177.172 54.4575Z" fill="#2C3A64"/>
<path d="M140.313 60.8208C140.313 60.8208 136.194 63.3126 133.262 63.0233C130.357 62.7363 128.776 59.2401 128.776 59.2401C128.776 59.2401 134.409 58.4103 140.313 60.8208Z" fill="#FFF2E9"/>
<path d="M166.44 209.355H110.952C108.63 209.355 105.98 207.475 105.038 205.158L91.0689 170.84C90.1248 168.523 91.2438 166.643 93.5656 166.643H149.054C151.378 166.643 154.026 168.523 154.968 170.84L168.937 205.158C169.881 207.478 168.764 209.355 166.44 209.355Z" fill="#A4C9FF"/>
<path d="M163.129 209.355H107.64C105.318 209.355 102.668 207.476 101.727 205.158L87.7574 170.84C86.8133 168.523 87.9323 166.643 90.2541 166.643H145.743C148.064 166.643 150.715 168.523 151.656 170.84L165.625 205.158C166.569 207.478 165.453 209.355 163.129 209.355Z" fill="#71A4FF"/>
<path d="M93.2996 169.274C94.3562 169.274 95.5711 170.137 96 171.192C96.4289 172.246 95.9161 173.11 94.8594 173.11C93.8027 173.11 92.5879 172.246 92.159 171.192C91.7301 170.137 92.2429 169.274 93.2996 169.274Z" fill="#2B478B"/>
<path d="M99.4 170.073C100.016 170.073 100.725 170.575 100.977 171.192C101.226 171.806 100.926 172.311 100.31 172.311C99.6947 172.311 98.9854 171.806 98.7338 171.192C98.4823 170.575 98.7818 170.073 99.4 170.073Z" fill="#2B478B"/>
<path d="M121.106 186.913C120.181 184.638 121.276 182.792 123.557 182.792C125.836 182.792 128.436 184.636 129.361 186.913C130.286 189.187 129.191 191.03 126.91 191.03C124.631 191.03 122.034 189.187 121.106 186.913Z" fill="#A4C9FF"/>
<path d="M173.048 194.105C173.048 194.105 165.419 189.763 163.579 187.756C162.393 186.46 162.321 188.127 162.398 188.596C162.551 189.533 162.69 191.394 164.863 193.166C167.988 195.715 173.048 194.105 173.048 194.105Z" fill="#FFB27D"/>
<path d="M173.048 194.106C173.048 194.106 159.285 189.981 156.115 190.339C152.945 190.698 145.707 192.948 145.124 193.536C144.542 194.122 147.034 194.744 148.929 194.189C151.359 193.481 155.186 194.278 155.186 194.278C155.186 194.278 147.47 195.947 145.539 196.796C145.347 196.88 145.311 197.143 145.477 197.274C145.939 197.64 147.128 197.87 148.834 197.633C151.285 197.293 155.583 197.353 155.583 197.353L146.814 199.257C146.703 199.28 146.622 199.376 146.627 199.489C146.641 199.905 147.341 200.349 149.392 200.443C150.971 200.514 156.319 199.725 156.319 199.725L151.556 202.234C151.556 202.234 152.71 203.059 155.142 202.258C156.81 201.708 161.789 200.464 162.937 200.706C164.087 200.947 169.821 202.968 172.529 202.624C175.174 202.286 176.322 201.787 176.322 201.787L173.048 194.106Z" fill="#FFB27D"/>
<path d="M12.0505 118.094C11.6983 117.936 2.72735 111.95 2.72735 111.95C2.72735 111.95 1.97259 114.786 3.29283 115.327C4.61307 115.865 12.0505 118.094 12.0505 118.094Z" fill="#FFB27D"/>
<path d="M211.3 175.941C203.251 184.052 191.899 193.302 176.322 201.784C176.322 201.784 174.556 201.399 171.86 199.477C167.657 196.48 172.313 194.285 173.235 193.692C177.802 190.739 183.922 183.357 189.292 175.941H211.3Z" fill="#FFB27D"/>
</g>
<path d="M22.0376 125.051C22.0376 125.051 15.1321 117.688 12.5947 116.81C10.0572 115.932 1 114.407 1 114.407C1 114.407 1.03594 116.568 5.09012 118.063C9.1443 119.558 9.99252 126.571 12.391 128.556C14.7871 130.541 21.1247 132.26 21.1247 132.26L22.0376 125.051Z" fill="#FFB27D"/>
<path d="M19.1526 131.665C19.1526 131.665 12.4243 131.371 10.2391 130C8.05388 128.63 4.4933 126.839 5.18098 125.749C5.86865 124.658 13.2869 125.481 13.2869 125.481L19.1526 131.665Z" fill="#FFB27D"/>
<path d="M180.713 43.3741C180.713 43.3741 193.57 17.832 175.602 7.73333C157.634 -2.36298 144.482 1.60189 134.598 13.9509L180.713 43.3741Z" fill="#EDBD77"/>
<path d="M182.114 40.105C181.573 39.5502 181.017 38.993 180.444 38.431L180.442 38.4286C174.897 33.0194 167.829 27.493 159.716 22.4424C153.186 18.3795 146.683 15.0579 140.581 12.5661H140.578C139.371 12.0687 138.18 11.6096 137.006 11.1815C123.015 6.07358 111.739 5.68618 108.327 11.1456C104.726 16.904 110.819 27.6269 122.754 38.5028L122.756 38.5052C122.747 38.4095 122.735 38.3162 122.725 38.2254C122.715 38.1321 122.711 38.0365 122.701 37.9408C122.691 37.8332 122.682 37.7208 122.672 37.6108C122.665 37.5319 122.66 37.4506 122.653 37.3669C122.646 37.2306 122.639 37.0966 122.629 36.958C122.62 36.7858 122.61 36.6136 122.605 36.4366C122.605 36.4175 122.603 36.396 122.603 36.3745C122.596 36.2477 122.593 36.1186 122.591 35.9895V35.8699C122.588 35.7862 122.588 35.7025 122.588 35.6164C122.586 35.3151 122.588 35.0066 122.596 34.7005C122.596 34.5929 122.598 34.4805 122.605 34.3729C122.608 34.3107 122.612 34.2485 122.612 34.1888C122.62 34.0859 122.622 33.9855 122.632 33.8875C122.641 33.6985 122.653 33.5144 122.67 33.3303C122.684 33.1461 122.703 32.9596 122.723 32.7731C122.723 32.7635 122.725 32.7516 122.725 32.742C122.732 32.675 122.739 32.6057 122.747 32.5411C122.754 32.4981 122.756 32.455 122.761 32.4144C122.78 32.2852 122.794 32.1561 122.814 32.027C122.842 31.8141 122.876 31.6037 122.917 31.3957C122.924 31.3622 122.929 31.3239 122.936 31.2904C122.979 31.0417 123.029 30.793 123.087 30.5467C123.111 30.4224 123.142 30.3004 123.173 30.1808C123.175 30.1665 123.18 30.1498 123.183 30.1354C121.908 27.4547 121.675 25.1351 122.715 23.4707C123.921 21.5409 126.662 20.7613 130.383 21.0052C130.385 21.0052 130.385 21.0052 130.39 21.0052C130.491 21.0124 130.594 21.0196 130.699 21.0291H130.702C132.077 21.1343 133.577 21.3735 135.18 21.7465H135.182C135.558 21.8326 135.939 21.9259 136.328 22.0263C137.736 22.397 139.215 22.8561 140.746 23.4061H140.765C145.344 25.0538 150.378 27.5049 155.444 30.6591C157.547 31.9696 159.538 33.3303 161.4 34.7149H161.403C161.587 34.8536 161.774 34.9923 161.956 35.131C170.563 41.6474 176.249 48.6469 176.901 53.4822C177.073 54.7688 176.893 55.9023 176.309 56.8325C176.263 56.9066 176.213 56.9784 176.158 57.0477C176.151 57.0597 176.146 57.0693 176.139 57.0788C175.758 57.6001 175.254 58.0258 174.641 58.3654C174.639 58.3678 174.639 58.3678 174.634 58.3678C174.55 58.418 174.466 58.461 174.38 58.4993C174.377 58.4969 174.377 58.4993 174.377 58.4993C173.747 58.8078 173.009 59.0302 172.185 59.1641C172.183 59.1641 172.183 59.1641 172.183 59.1641C172.183 59.1641 172.183 59.1641 172.18 59.1641C172.101 59.2287 172.02 59.2908 171.938 59.353C171.881 59.3984 171.818 59.4463 171.756 59.4893C171.696 59.5324 171.639 59.5754 171.576 59.6184C171.557 59.6304 171.54 59.6424 171.521 59.6591C171.416 59.7261 171.315 59.7978 171.212 59.8648C171.052 59.97 170.889 60.068 170.728 60.1637C170.649 60.2091 170.568 60.2569 170.489 60.3C170.407 60.343 170.328 60.3861 170.247 60.4267C170.139 60.4817 170.033 60.5343 169.925 60.5846C169.885 60.6061 169.846 60.6252 169.806 60.6396C169.765 60.6587 169.727 60.673 169.686 60.6922C169.683 60.6922 169.684 60.6946 169.679 60.6946C169.669 60.6969 169.66 60.7041 169.65 60.7065C169.6 60.728 169.552 60.7472 169.501 60.7687C169.427 60.7974 169.355 60.8285 169.283 60.8524C169.19 60.8859 169.101 60.9193 169.013 60.948C168.926 60.9767 168.84 61.003 168.756 61.0246C168.749 61.027 168.742 61.0317 168.732 61.0341C168.66 61.0533 168.593 61.07 168.521 61.0867C168.497 61.0963 168.471 61.1011 168.445 61.1083C168.38 61.1226 168.315 61.1393 168.248 61.1513C168.167 61.1656 168.088 61.1824 168.004 61.1943C167.954 61.2039 167.906 61.2087 167.855 61.2159C167.795 61.2254 167.738 61.2302 167.68 61.2374C167.604 61.247 167.529 61.2517 167.453 61.2565C167.422 61.2589 167.39 61.2589 167.359 61.2589H167.323C167.304 61.2613 167.283 61.2613 167.263 61.2613H167.242C167.213 61.2637 167.189 61.2637 167.16 61.2637C166.959 61.2637 166.758 61.2517 166.564 61.2278C166.37 61.2039 166.178 61.1633 165.994 61.113C165.9 61.0843 165.809 61.058 165.718 61.027C165.651 61.003 165.581 60.9743 165.517 60.9456C165.466 60.9265 165.418 60.905 165.368 60.8811C165.327 60.8619 165.289 60.8452 165.248 60.8237C165.215 60.8093 165.176 60.7902 165.143 60.7687C165.071 60.7328 165.004 60.6922 164.937 60.6491C164.795 60.5606 164.652 60.4817 164.513 60.4219C164.467 60.4004 164.419 60.3813 164.376 60.3645C164.357 60.3574 164.34 60.3502 164.321 60.343C164.254 60.3143 164.184 60.2928 164.117 60.2761C163.849 60.1948 163.583 60.1589 163.319 60.1589C163.317 60.1589 163.317 60.1589 163.312 60.1589H163.281C163.272 60.1589 163.262 60.1589 163.252 60.1613H163.214C163.181 60.1613 163.149 60.1637 163.116 60.1685C163.094 60.1685 163.073 60.1685 163.051 60.1708C162.991 60.178 162.936 60.1828 162.881 60.1924C162.874 60.1924 162.869 60.1948 162.862 60.1948C162.838 60.1972 162.809 60.2043 162.785 60.2091C162.74 60.2163 162.697 60.2235 162.653 60.2378C162.61 60.2474 162.567 60.2593 162.522 60.2713C162.469 60.2832 162.421 60.3 162.368 60.3167C162.335 60.3287 162.301 60.3406 162.268 60.3526C162.217 60.3669 162.165 60.3885 162.117 60.4124C162.114 60.4124 162.114 60.4124 162.114 60.4124C162.074 60.4267 162.038 60.4435 161.997 60.4626C161.961 60.4817 161.923 60.4961 161.889 60.5152C161.846 60.5343 161.805 60.5582 161.762 60.5798L161.642 60.6443C161.599 60.6683 161.558 60.6946 161.518 60.7185C161.477 60.7424 161.441 60.7687 161.4 60.7926C161.359 60.8165 161.321 60.8428 161.28 60.8691C161.24 60.893 161.199 60.9217 161.163 60.9528C161.086 61.0054 161.01 61.0628 160.935 61.125C160.895 61.1537 160.859 61.1824 160.825 61.2135C160.789 61.2446 160.751 61.2757 160.715 61.3091C160.641 61.3713 160.569 61.4359 160.499 61.5004C160.427 61.5626 160.358 61.6296 160.288 61.7013C160.255 61.7348 160.221 61.7683 160.188 61.8065C160.154 61.84 160.121 61.8735 160.09 61.9094C160.049 61.9452 160.015 61.9835 159.982 62.0194H159.984C161.336 62.5766 162.668 63.0931 163.978 63.5666C168.176 65.0851 172.123 66.1803 175.686 66.8212C183.94 68.3039 190.12 67.3401 192.494 63.5427C195.645 58.4778 191.315 49.5795 182.114 40.105Z" fill="#FFCF83"/>
<path d="M225.725 62.5836C166.941 6.30136 78.5475 43.9008 48.5399 77.1752C19.8777 112.612 36.0327 147.007 85.5403 204.331C135.048 261.656 299.204 132.936 225.725 62.5836Z" stroke="#818E6C" stroke-width="1.3"/>
</g>
<defs>
<clipPath id="clip0_634_3395">
<rect width="245" height="225" fill="white"/>
</clipPath>
</defs>
</svg>
