<svg width="245" height="225" viewBox="0 0 245 225" fill="none" xmlns="http://www.w3.org/2000/svg">
<path d="M179.366 211.974L55.7002 176.16C37.7058 170.961 31.577 148.864 44.3102 135.286L142.398 31.0244C156.53 15.9798 181.997 23.3638 185.663 43.5523L211.241 183.627C214.571 201.88 197.333 217.173 179.366 211.974Z" fill="#E2E9D7"/>
<path d="M181.633 203.318C179.198 203.318 176.708 202.986 174.273 202.267L50.6348 166.453C41.9594 163.937 35.3549 157.299 32.9482 148.671C30.5415 140.042 32.7803 130.999 38.937 124.445L136.997 20.1834C143.713 13.0206 153.788 10.3104 163.247 13.0483C172.734 15.7862 179.702 23.4467 181.465 33.0709L207.043 173.146C208.638 181.94 205.588 190.762 198.872 196.736C194.03 201.023 187.902 203.318 181.633 203.318ZM155.747 13.3248C149.086 13.3248 142.762 16.0351 138.004 21.096L39.9445 125.385C34.1236 131.58 31.9967 140.153 34.2635 148.311C36.5303 156.47 42.7989 162.747 50.9986 165.126L174.637 200.94C182.836 203.318 191.568 201.354 197.92 195.713C204.301 190.043 207.183 181.719 205.672 173.395L180.094 33.2921C178.415 24.0552 171.978 16.9754 162.855 14.3481C160.476 13.6567 158.097 13.3248 155.747 13.3248Z" fill="#818E6C"/>
<path d="M89.4962 24.3108C89.4962 24.3108 120.24 19.7508 136.886 21.7643C153.533 23.7778 171.196 24.0028 171.196 24.0028C171.196 24.0028 185.497 21.7169 186.766 23.8962C188.034 26.0756 180.411 36.3919 180.411 36.3919C180.411 36.3919 187.783 82.5606 191.983 98.2423C196.184 113.924 196.555 163.67 196.555 163.67C196.555 163.67 205.327 171.7 205.327 172.636C205.327 173.571 190.835 172.636 190.835 172.636C190.835 172.636 104.371 183.023 76.9067 172.636C76.9067 172.636 59.0636 177.847 59.3388 175.834C59.6141 173.82 68.2664 161.242 68.2664 161.242C68.2664 161.242 70.3008 101.831 71.318 94.4166C72.3352 87.0021 80.4729 35.6575 80.4729 35.6575C80.4729 35.6575 73.6277 25.4715 73.6277 24.216C73.6277 22.9605 89.4962 24.3108 89.4962 24.3108Z" fill="#D9B1A9"/>
<path d="M172.25 52.2157C175.098 55.5439 179.394 84.1003 183.08 104.449C186.766 124.797 184.923 149.694 183.08 151.825C181.237 153.946 140.56 158.506 133.44 158.506C126.319 158.506 79.9464 154.858 78.271 151.825C76.5956 148.793 75.6502 112.823 78.271 103.016C80.8918 93.2085 86.1095 51.4103 87.3421 50.143C88.5748 48.8756 128.904 47.0516 133.44 47.2056C137.975 47.3596 169.401 48.8875 172.25 52.2157Z" fill="#EADCDB"/>
<path d="M91.1091 123.86L99.8621 124.319L99.7738 126.055L93.118 125.706L92.831 131.048L98.9791 131.376L98.8908 133.091L92.7427 132.763L92.3564 140.05L90.2592 139.94L91.1091 123.86Z" fill="#79933A"/>
<path d="M102.412 135.112C102.379 137.952 104.189 139.176 106.308 139.23C107.831 139.274 108.748 139.034 109.553 138.717L109.873 140.235C109.112 140.552 107.831 140.902 105.966 140.847C102.368 140.749 100.282 138.356 100.381 134.861C100.48 131.365 102.633 128.677 106.032 128.776C109.851 128.874 110.767 132.228 110.712 134.347C110.701 134.773 110.646 135.112 110.613 135.319L102.412 135.112ZM108.681 133.779C108.736 132.446 108.218 130.349 105.834 130.283C103.681 130.229 102.688 132.162 102.478 133.615L108.681 133.779Z" fill="#79933A"/>
<path d="M113.13 132.785C113.141 131.419 113.119 130.25 113.052 129.18L114.907 129.191L114.962 131.463H115.061C115.602 129.912 116.894 128.94 118.317 128.95C118.56 128.95 118.726 128.972 118.925 129.027L118.913 131.015C118.693 130.971 118.483 130.939 118.185 130.939C116.684 130.928 115.613 132.042 115.315 133.626C115.26 133.91 115.216 134.249 115.216 134.609L115.172 140.771L113.074 140.76L113.13 132.785Z" fill="#79933A"/>
<path d="M123.892 125.848L123.925 129.169L126.971 129.136L126.993 130.742L123.947 130.775L124.013 137.013C124.024 138.444 124.443 139.252 125.635 139.241C126.187 139.23 126.607 139.154 126.861 139.088L126.971 140.661C126.563 140.836 125.911 140.956 125.095 140.967C124.101 140.978 123.307 140.672 122.788 140.104C122.181 139.493 121.949 138.466 121.938 137.1L121.872 130.786L120.061 130.808L120.039 129.202L121.85 129.18L121.816 126.405L123.892 125.848Z" fill="#79933A"/>
<path d="M131.43 125.782C131.474 126.503 130.956 127.082 130.117 127.104C129.366 127.126 128.825 126.558 128.803 125.848C128.781 125.105 129.322 124.526 130.095 124.504C130.889 124.471 131.408 125.039 131.43 125.782ZM129.443 140.65L129.145 129.092L131.265 129.038L131.563 140.596L129.443 140.65Z" fill="#79933A"/>
<path d="M134.433 123.532L136.552 123.456L137.17 140.41L135.051 140.487L134.433 123.532Z" fill="#79933A"/>
<path d="M142.347 125.356C142.402 126.066 141.905 126.667 141.055 126.711C140.305 126.744 139.753 126.198 139.72 125.487C139.687 124.745 140.205 124.144 140.978 124.111C141.773 124.067 142.314 124.613 142.347 125.356ZM140.702 140.268L140.139 128.71L142.258 128.612L142.821 140.17L140.702 140.268Z" fill="#79933A"/>
<path d="M144.852 138.859L149.676 131.714C150.139 131.059 150.581 130.48 151.078 129.824V129.781L144.764 130.196L144.654 128.503L153.55 127.924L153.616 129.234L148.859 136.281C148.417 136.958 147.976 137.559 147.479 138.192V138.236L154.301 137.788L154.411 139.46L144.941 140.071L144.852 138.859Z" fill="#79933A"/>
<path d="M157.005 133.823C157.314 136.652 159.246 137.657 161.365 137.461C162.877 137.329 163.771 136.98 164.533 136.576L165.029 138.04C164.312 138.444 163.076 138.935 161.221 139.099C157.634 139.416 155.283 137.275 154.963 133.801C154.643 130.327 156.464 127.399 159.853 127.104C163.65 126.766 164.963 129.977 165.162 132.097C165.206 132.523 165.184 132.861 165.184 133.08L157.005 133.823ZM163.065 131.769C162.965 130.436 162.204 128.415 159.819 128.623C157.678 128.808 156.917 130.851 156.883 132.315L163.065 131.769Z" fill="#79933A"/>
<path d="M167.381 130.272C167.226 128.918 167.071 127.76 166.873 126.7L168.716 126.493L169.047 128.743L169.147 128.732C169.5 127.126 170.659 126.012 172.072 125.848C172.314 125.826 172.48 125.826 172.679 125.848L172.91 127.814C172.69 127.793 172.469 127.793 172.182 127.825C170.692 127.989 169.765 129.224 169.654 130.829C169.643 131.124 169.632 131.463 169.665 131.813L170.372 137.941L168.286 138.171L167.381 130.272Z" fill="#79933A"/>
<path d="M112.302 110.914C112.18 115.415 109.355 117.742 105.977 117.655C102.489 117.567 100.105 114.825 100.204 110.86C100.315 106.709 102.997 104.054 106.529 104.141C110.138 104.24 112.401 107.036 112.302 110.914ZM102.037 110.871C101.959 113.667 103.427 116.213 106.121 116.278C108.825 116.344 110.425 113.919 110.503 110.947C110.569 108.347 109.266 105.594 106.419 105.518C103.593 105.452 102.114 107.998 102.037 110.871Z" fill="#98A835"/>
<path d="M114.245 111.111C114.245 110.008 114.234 109.057 114.178 108.183L115.691 108.194L115.735 110.04H115.812C116.253 108.784 117.291 107.987 118.45 107.998C118.649 107.998 118.781 108.019 118.936 108.063L118.925 109.68C118.748 109.636 118.571 109.625 118.34 109.614C117.125 109.603 116.253 110.521 116.011 111.799C115.966 112.029 115.933 112.302 115.933 112.597L115.911 117.611L114.2 117.6L114.245 111.111Z" fill="#98A835"/>
<path d="M128.505 108.118C128.472 108.795 128.439 109.56 128.461 110.707L128.527 116.169C128.549 118.321 128.141 119.654 127.225 120.473C126.309 121.336 124.984 121.631 123.781 121.642C122.644 121.653 121.386 121.402 120.613 120.899L121.033 119.588C121.662 119.971 122.655 120.309 123.825 120.298C125.591 120.276 126.872 119.348 126.85 116.977L126.839 115.929H126.794C126.276 116.813 125.26 117.524 123.792 117.534C121.441 117.567 119.73 115.601 119.697 113.001C119.653 109.811 121.739 107.987 123.914 107.954C125.558 107.932 126.474 108.773 126.894 109.549H126.938L127.004 108.129L128.505 108.118ZM126.761 111.843C126.761 111.548 126.739 111.297 126.651 111.067C126.331 110.084 125.47 109.276 124.212 109.287C122.567 109.308 121.408 110.696 121.43 112.87C121.452 114.716 122.412 116.234 124.278 116.213C125.337 116.202 126.287 115.524 126.651 114.432C126.75 114.137 126.783 113.809 126.772 113.514L126.761 111.843Z" fill="#98A835"/>
<path d="M136.574 117.262L136.397 116.082H136.342C135.834 116.835 134.841 117.535 133.483 117.578C131.563 117.644 130.536 116.333 130.492 114.978C130.415 112.706 132.413 111.395 136.077 111.297L136.066 111.1C136.044 110.325 135.779 108.937 133.837 109.003C132.954 109.035 132.048 109.33 131.386 109.778L130.956 108.664C131.717 108.129 132.843 107.768 134.046 107.725C136.949 107.626 137.722 109.56 137.788 111.45L137.91 114.956C137.932 115.776 137.998 116.562 138.141 117.196L136.574 117.262ZM136.155 112.488C134.267 112.509 132.148 112.914 132.203 114.738C132.236 115.841 132.998 116.344 133.881 116.311C135.117 116.267 135.879 115.47 136.121 114.662C136.177 114.487 136.21 114.29 136.199 114.115L136.155 112.488Z" fill="#98A835"/>
<path d="M140.305 110.27C140.25 109.298 140.183 108.511 140.084 107.735L141.607 107.648L141.795 109.199H141.839C142.258 108.282 143.307 107.353 144.874 107.266C146.188 107.189 148.263 107.856 148.451 111.078L148.76 116.682L147.038 116.781L146.74 111.373C146.651 109.866 146.022 108.631 144.389 108.719C143.252 108.784 142.413 109.625 142.17 110.587C142.104 110.805 142.082 111.1 142.093 111.384L142.402 117.021L140.68 117.119L140.305 110.27Z" fill="#98A835"/>
<path d="M152.59 104.327C152.656 104.906 152.259 105.398 151.574 105.452C150.967 105.496 150.504 105.059 150.46 104.48C150.416 103.879 150.835 103.387 151.464 103.344C152.104 103.289 152.546 103.726 152.59 104.327ZM151.541 116.475L150.868 107.102L152.59 106.982L153.263 116.355L151.541 116.475Z" fill="#98A835"/>
<path d="M162.756 115.23C162.325 115.503 161.354 115.896 160.085 116.005C157.226 116.245 155.206 114.487 154.952 111.624C154.698 108.74 156.519 106.479 159.599 106.217C160.614 106.13 161.542 106.304 162.027 106.501L161.751 107.856C161.321 107.659 160.659 107.495 159.72 107.582C157.546 107.768 156.519 109.451 156.685 111.406C156.873 113.569 158.396 114.793 160.272 114.629C161.255 114.541 161.873 114.235 162.347 113.984L162.756 115.23Z" fill="#98A835"/>
<path d="M130.927 99.4504C143.669 99.4504 154 89.2265 154 76.6148C154 64.003 143.669 53.7791 130.927 53.7791C118.184 53.7791 107.854 64.003 107.854 76.6148C107.854 89.2265 118.184 99.4504 130.927 99.4504Z" fill="#29353D"/>
<path d="M143.959 60.9449C142.954 61.5134 141.949 62.0701 140.967 62.6623C140.118 63.1716 139.268 63.7046 138.55 64.3916C137.892 65.0193 137.353 65.7536 136.839 66.5117C135.606 68.312 134.529 70.2544 133.99 72.3627C133.452 74.471 133.488 76.7806 134.421 78.7586C137.64 78.0716 141.015 75.8567 143.241 73.4405C144.474 72.114 145.718 70.7637 146.532 69.1411C146.999 68.2054 147.31 67.1986 147.621 66.1919C148.53 63.2427 149.44 60.3053 150.35 57.3561C148.219 58.5524 146.089 59.7486 143.959 60.9449Z" fill="#79933A"/>
<path d="M124.369 69.224C122.107 66.9025 118.888 65.6707 115.776 64.5929C114.089 64.0007 112.39 63.444 110.678 62.8873C110.846 64.0836 111.001 65.268 111.157 66.4643C111.731 70.6927 112.437 75.1935 115.405 78.3677C116.913 79.9667 118.888 81.0919 120.91 82.0394C123.1 83.058 126.559 83.3423 128.988 83.212C129.993 79.8245 128.725 76.2002 127.037 73.0733C126.295 71.6994 125.47 70.3492 124.369 69.224Z" fill="#79933A"/>
<path d="M146.065 61.8095C146.065 61.8095 143.971 64.2139 142.81 65.3154C138.394 69.4846 135.678 75.1698 134.146 81.0208C132.614 86.8718 132.195 92.9479 131.788 98.9766" stroke="#68822B" stroke-width="0.75" stroke-miterlimit="10" stroke-linecap="round" stroke-linejoin="round"/>
<path d="M119.127 71.6994C123.962 74.1156 127.313 78.8059 129.203 83.8279C131.094 88.8498 131.214 93.6349 131.788 98.9648" stroke="#68822B" stroke-width="0.75" stroke-miterlimit="10" stroke-linecap="round" stroke-linejoin="round"/>
<path d="M73.2328 153.851C73.2328 153.851 77.3256 169.035 90.4177 170.859" stroke="#2B2B2B" stroke-width="0.75" stroke-miterlimit="10" stroke-linecap="round" stroke-linejoin="round"/>
<path d="M78.9052 158.92C78.9052 158.92 85.6547 170.764 99.4649 170.302" stroke="#2B2B2B" stroke-width="0.75" stroke-miterlimit="10" stroke-linecap="round" stroke-linejoin="round"/>
<path d="M178.173 36.4274C178.173 36.4274 160.581 37.8487 156.489 36.4274C152.396 35.0061 124.572 30.2329 120.695 31.3107C116.805 32.3767 87.2344 37.6 83.4648 36.0247" stroke="#2B2B2B" stroke-width="0.75" stroke-miterlimit="10" stroke-linecap="round" stroke-linejoin="round"/>
<path d="M189.422 105.266C189.422 105.266 193.108 122.985 192.283 130.269" stroke="#2B2B2B" stroke-width="0.75" stroke-miterlimit="10" stroke-linecap="round" stroke-linejoin="round"/>
<path d="M188.094 112.42C188.094 112.42 190.751 127.936 189.422 133.905" stroke="#2B2B2B" stroke-width="0.75" stroke-miterlimit="10" stroke-linecap="round" stroke-linejoin="round"/>
</svg>
