<svg width="245" height="225" viewBox="0 0 245 225" fill="none" xmlns="http://www.w3.org/2000/svg">
<path d="M221.238 155.495L107.305 213.612C100.928 216.874 93.1011 214.324 89.8443 207.937L31.824 93.8136C28.5672 87.4262 31.1124 79.5859 37.4892 76.3236L151.422 18.2065C157.854 14.9442 165.654 17.4937 168.911 23.8811L226.931 138.005C230.16 144.392 227.642 152.232 221.238 155.495Z" fill="#E2E9D7"/>
<path d="M86.6969 209.582C81.7159 209.582 76.9265 206.84 74.5181 202.125L16.4978 88.0019C14.8284 84.7396 14.5547 81.0388 15.6768 77.5572C16.7989 74.0757 19.2073 71.2521 22.4641 69.6073L136.397 11.4901C143.102 8.06339 151.34 10.7499 154.761 17.4663L212.782 131.59C216.203 138.306 213.521 146.558 206.815 149.984L92.8821 208.102C90.8842 209.116 88.7769 209.582 86.6969 209.582ZM142.582 11.353C140.694 11.353 138.806 11.7917 137.027 12.6963L23.0935 70.8135C20.1652 72.2938 18.0031 74.8433 16.9905 77.9959C15.9779 81.121 16.2242 84.4655 17.7294 87.3988L75.7497 201.522C78.8149 207.581 86.259 209.993 92.3074 206.923L206.241 148.806C212.289 145.735 214.697 138.279 211.632 132.22L153.557 18.0968C151.395 13.8203 147.043 11.353 142.582 11.353Z" fill="#818E6C"/>
<path d="M79.4105 59.7811C85.599 53.097 95.4965 52.8665 110.292 63.8041C125.087 74.7416 129.943 86.8945 123.324 95.4224C116.706 103.95 101.46 100.137 89.9842 92.2585C78.5088 84.3801 73.222 66.4651 79.4105 59.7811Z" fill="#C9968D"/>
<path opacity="0.3" d="M102.75 98.6283C110.968 101.289 118.98 100.996 123.304 95.4224C128.058 89.3041 126.869 81.3419 120.394 73.2749C107.545 81.8029 103.816 92.908 102.75 98.6283Z" fill="#9C4242"/>
<path d="M80.6192 71.452C80.6192 71.452 86.8692 85.1344 99.943 92.8871" stroke="#2B2B2B" stroke-width="0.75" stroke-miterlimit="10" stroke-linecap="round" stroke-linejoin="round"/>
<path d="M92.4635 59.2153C92.4635 59.2153 104.226 62.7145 115.066 73.4216" stroke="#2B2B2B" stroke-width="0.75" stroke-miterlimit="10" stroke-linecap="round" stroke-linejoin="round"/>
<path d="M85.8651 70.6348C85.8651 70.6348 96.4799 83.8982 102.279 85.5535" stroke="#2B2B2B" stroke-width="0.75" stroke-miterlimit="10" stroke-linecap="round" stroke-linejoin="round"/>
<path d="M86.2339 61.5411C86.2339 61.5411 103.078 71.9968 106.91 76.9627" stroke="#2B2B2B" stroke-width="0.75" stroke-miterlimit="10" stroke-linecap="round" stroke-linejoin="round"/>
<path d="M26.5119 84.5349C31.5418 79.1022 39.5864 78.9149 51.6116 87.8048C63.6368 96.6947 67.5842 106.572 62.2045 113.504C56.8248 120.435 44.4331 117.336 35.1061 110.932C25.779 104.529 21.4819 89.9676 26.5119 84.5349Z" fill="#C9968D"/>
<path opacity="0.3" d="M45.4822 116.109C52.161 118.272 58.6733 118.034 62.1876 113.504C66.0516 108.531 65.0856 102.059 59.8225 95.5025C49.3795 102.434 46.3483 111.46 45.4822 116.109Z" fill="#9C4242"/>
<path d="M27.4944 94.0208C27.4944 94.0208 32.5743 105.142 43.2005 111.443" stroke="#2B2B2B" stroke-width="0.75" stroke-miterlimit="10" stroke-linecap="round" stroke-linejoin="round"/>
<path d="M37.1212 84.0751C37.1212 84.0751 46.6814 86.9192 55.4921 95.6218" stroke="#2B2B2B" stroke-width="0.75" stroke-miterlimit="10" stroke-linecap="round" stroke-linejoin="round"/>
<path d="M31.7581 93.3567C31.7581 93.3567 40.3856 104.137 45.0991 105.482" stroke="#2B2B2B" stroke-width="0.75" stroke-miterlimit="10" stroke-linecap="round" stroke-linejoin="round"/>
<path d="M32.0579 85.9654C32.0579 85.9654 45.7487 94.4636 48.8633 98.4998" stroke="#2B2B2B" stroke-width="0.75" stroke-miterlimit="10" stroke-linecap="round" stroke-linejoin="round"/>
<path d="M128.159 138.819C123.652 132.945 124.824 124.984 135.615 114.631C146.406 104.277 156.808 102.052 162.732 108.524C168.657 114.996 163.512 126.687 155.627 134.801C147.742 142.914 132.665 144.694 128.159 138.819Z" fill="#C9968D"/>
<path opacity="0.3" d="M162.48 125.446C165.739 119.228 166.602 112.769 162.73 108.541C158.48 103.893 151.938 103.754 144.587 107.836C149.658 119.298 158.044 123.809 162.48 125.446Z" fill="#9C4242"/>
<path d="M137.674 139.451C137.674 139.451 149.493 136.32 157.496 126.908" stroke="#2B2B2B" stroke-width="0.75" stroke-miterlimit="10" stroke-linecap="round" stroke-linejoin="round"/>
<path d="M129.495 128.285C129.495 128.285 133.911 119.341 143.975 112.124" stroke="#2B2B2B" stroke-width="0.75" stroke-miterlimit="10" stroke-linecap="round" stroke-linejoin="round"/>
<path d="M137.739 135.136C137.739 135.136 149.82 128.451 151.941 124.032" stroke="#2B2B2B" stroke-width="0.75" stroke-miterlimit="10" stroke-linecap="round" stroke-linejoin="round"/>
<path d="M130.504 133.594C130.504 133.594 141.19 121.533 145.693 119.144" stroke="#2B2B2B" stroke-width="0.75" stroke-miterlimit="10" stroke-linecap="round" stroke-linejoin="round"/>
<path d="M216.497 125.098C221.948 132.62 220.431 142.803 207.091 156.024C193.751 169.246 180.964 172.075 173.772 163.756C166.579 155.459 173.013 140.519 182.788 130.147C192.562 119.775 211.046 117.575 216.497 125.098Z" fill="#825047"/>
<path opacity="0.3" d="M174.263 142.132C170.206 150.095 169.058 158.35 173.772 163.756C178.915 169.707 186.948 169.916 195.985 164.699C189.919 150.032 179.694 144.249 174.263 142.132Z" fill="#D38D8D"/>
<path d="M186.292 147.098C186.292 147.098 197.644 132.473 211.681 127.759" stroke="#B4807B" stroke-width="0.75" stroke-miterlimit="10" stroke-linecap="round" stroke-linejoin="round"/>
<path d="M184.591 134.925C184.591 134.925 192.214 127.319 201.21 125.202" stroke="#B4807B" stroke-width="0.75" stroke-miterlimit="10" stroke-linecap="round" stroke-linejoin="round"/>
<path d="M191.968 151.561C191.968 151.561 203.935 141.357 205.062 137.607" stroke="#B4807B" stroke-width="0.75" stroke-miterlimit="10" stroke-linecap="round" stroke-linejoin="round"/>
<path d="M197.358 156.716C197.358 156.716 211.415 146.323 214.243 135.176" stroke="#B4807B" stroke-width="0.75" stroke-miterlimit="10" stroke-linecap="round" stroke-linejoin="round"/>
<path d="M175.199 92.6581C167.985 95.5916 153.99 86.0579 143.17 61.4798C132.35 36.9017 141.756 26.7813 148.58 24.2041C155.383 21.6269 172.76 20.9983 181.961 45.7859C191.141 70.5735 193.252 85.3035 175.199 92.6581Z" fill="#C9BC8D"/>
<path opacity="0.3" d="M174.584 32.5016C165.363 21.3964 153.826 22.2136 148.58 24.2041C143.088 26.2785 135.916 33.2559 139.031 48.7822C156.162 44.5496 168.293 37.0903 174.584 32.5016Z" fill="#9C4242"/>
<path d="M183.395 79.3319C183.395 79.3319 186.654 60.0131 172.945 41.2809" stroke="#2B2B2B" stroke-width="0.75" stroke-miterlimit="10" stroke-linecap="round" stroke-linejoin="round"/>
<path d="M161.203 80.2538C161.203 80.2538 147.658 63.9313 144.727 50.0184" stroke="#2B2B2B" stroke-width="0.75" stroke-miterlimit="10" stroke-linecap="round" stroke-linejoin="round"/>
<path d="M171.408 85.115C171.408 85.115 157.842 65.0837 154.072 54.2509" stroke="#2B2B2B" stroke-width="0.75" stroke-miterlimit="10" stroke-linecap="round" stroke-linejoin="round"/>
<path d="M173.375 72.5221C173.375 72.5221 169.645 48.6984 164.113 44.3192" stroke="#2B2B2B" stroke-width="0.75" stroke-miterlimit="10" stroke-linecap="round" stroke-linejoin="round"/>
<path d="M63.6597 165.015C57.7375 159.19 58.3728 146.765 72.6146 126.503C86.8564 106.22 101.59 108.923 104.582 111.207C107.574 113.491 119.992 129.269 102.143 152.191C84.2949 175.135 73.5982 174.758 63.6597 165.015Z" fill="#C9BC8D"/>
<path opacity="0.3" d="M111.324 132.223C112.881 120.384 106.61 112.737 104.582 111.186C102.512 109.615 94.8277 107.834 85.5859 113.575C90.8728 120.447 99.3359 128.703 111.324 132.223Z" fill="#9C4242"/>
<path d="M78.7826 166.293C78.7826 166.293 96.467 155.271 104.746 135.513" stroke="#2B2B2B" stroke-width="0.75" stroke-miterlimit="10" stroke-linecap="round" stroke-linejoin="round"/>
<path d="M65.0941 151.521C65.0941 151.521 69.4179 135.617 85.0326 121.998" stroke="#2B2B2B" stroke-width="0.75" stroke-miterlimit="10" stroke-linecap="round" stroke-linejoin="round"/>
<path d="M74.6843 156.906C74.6843 156.906 87.0818 144.439 92.3277 133.711" stroke="#2B2B2B" stroke-width="0.75" stroke-miterlimit="10" stroke-linecap="round" stroke-linejoin="round"/>
<path d="M74.9506 146.765C74.9506 146.765 83.6596 132.391 90.7293 125.623" stroke="#2B2B2B" stroke-width="0.75" stroke-miterlimit="10" stroke-linecap="round" stroke-linejoin="round"/>
<path d="M131.232 187.93C124.441 184.216 119.993 178.529 118.237 173.306C116.481 168.083 117.417 163.208 120.578 160.074C123.739 156.824 128.305 155.78 133.105 155.78C137.787 155.896 142.587 157.289 147.036 159.726C149.26 160.887 151.251 163.092 153.358 165.413C154.411 166.69 155.465 167.851 156.519 169.243C157.104 169.824 157.689 170.52 158.158 171.216C158.743 171.913 159.211 172.493 159.797 173.074C160.85 174.35 162.021 175.627 163.075 176.788C164.128 177.832 165.065 178.877 165.884 179.689C167.523 181.43 168.694 182.475 168.694 182.475C168.694 182.475 167.523 183.403 165.416 184.68C164.362 185.376 163.075 186.073 161.436 186.885C160.031 187.582 158.275 188.278 156.285 188.858C155.348 189.206 154.294 189.555 153.358 189.787C152.304 189.903 151.251 190.135 150.197 190.367C147.973 190.599 145.631 190.947 143.524 190.831C138.958 190.715 134.627 189.671 131.232 187.93Z" fill="#93890E"/>
<path d="M132.285 182.823C132.636 182.823 132.753 182.475 132.636 182.243C131.934 180.85 131.349 179.573 130.763 178.18C130.178 176.904 129.71 175.511 129.124 174.118C128.071 171.449 127.368 168.663 126.666 165.994C132.051 170.288 137.905 174.002 144.109 176.787C145.982 178.528 147.856 180.153 149.846 181.778L152.89 183.983C153.943 184.796 154.997 185.492 156.168 186.073C156.519 186.305 156.87 186.305 156.987 186.073C157.221 185.841 157.104 185.608 156.753 185.376C154.88 184.332 153.124 183.055 151.485 181.778C149.846 180.734 148.324 179.341 146.802 177.948C149.612 179.225 152.655 180.037 155.582 180.966C157.104 181.314 158.626 181.546 160.148 181.894C160.967 182.01 161.67 182.243 162.489 182.359L164.831 182.591C165.182 182.591 165.416 182.475 165.416 182.126C165.416 181.894 165.182 181.662 164.948 181.546C157.924 180.734 151.134 178.877 144.695 175.975C142.119 174.814 139.661 173.654 137.202 172.145C140.246 172.493 143.407 172.609 146.334 172.609C147.856 172.493 149.377 172.377 150.782 172.261C152.187 172.145 153.592 171.913 154.997 171.681C155.231 171.681 155.465 171.332 155.348 171.1C155.348 170.868 154.997 170.636 154.763 170.752C148.675 171.797 142.002 171.913 135.095 170.984C126.315 165.297 118.354 158.217 112.032 149.977C111.915 149.745 111.681 149.628 111.447 149.745C111.213 149.861 111.213 150.209 111.447 150.441C115.544 155.78 120.344 160.538 125.495 164.833C126.783 170.636 128.773 176.555 131.583 182.359C131.7 182.707 132.051 182.939 132.285 182.823Z" fill="#46420E"/>
<path d="M100.773 46.1501C99.5871 45.3127 98.0453 44.9538 96.7407 44.4753C95.9105 44.236 95.1989 43.8772 94.6059 43.5183C94.0129 43.0398 93.4199 42.4416 93.0641 41.8435C92.3525 40.408 92.8269 38.6136 94.2501 38.4939C93.0641 38.3743 91.7595 38.0154 90.6921 37.2977C89.5061 36.5799 88.5573 35.6229 87.9644 34.4266C87.6086 33.8285 87.49 33.2304 87.3714 32.5126C87.3714 31.7948 87.3714 31.1967 87.6086 30.5986C87.9644 29.4023 88.7945 28.5649 89.9805 28.3256C88.2016 27.4883 86.897 25.335 87.0156 23.3013C87.1342 21.148 88.4387 19.3536 90.3363 18.7555C89.8619 16.8414 89.6247 14.6882 90.5735 12.7741C90.9293 12.176 91.4037 11.5779 91.9967 11.219C94.3687 9.90308 96.3849 11.3386 97.2151 13.0134C97.8081 14.09 97.9267 15.4059 98.0453 16.6022C98.7569 14.3293 102.196 14.3293 102.789 16.2433C103.026 17.2003 103.145 18.0377 102.908 19.1144C102.789 20.0714 102.433 21.0284 101.722 21.9854C102.789 21.6265 103.857 21.6265 104.805 21.7462C105.754 21.9854 106.466 22.4639 106.94 23.1817C107.77 24.4976 107.415 26.7705 105.991 28.3256C106.94 27.8471 107.889 27.7275 108.838 27.7275C109.787 27.7275 110.498 28.0864 111.091 28.5649C111.566 29.163 111.803 29.8808 111.803 30.8378C111.803 31.6752 111.566 32.6322 110.973 33.4696C111.803 32.6322 112.989 32.5126 113.819 32.7518C114.649 32.9911 115.242 33.5892 115.717 34.307C116.547 35.6229 117.14 37.2977 117.377 39.0921C117.614 41.0061 117.614 43.0398 117.14 45.0734C116.903 46.9875 115.954 49.1407 114.531 50.8155C112.989 52.4903 110.973 53.6866 108.601 53.5669C106.703 53.4473 103.857 53.0884 101.959 52.1314C100.892 51.5333 99.8243 50.2174 99.4685 49.0211C98.9941 47.8249 99.3499 46.6286 100.773 46.1501Z" fill="#F6A274"/>
<path d="M125.204 49.8585C125.204 50.0977 125.086 50.2173 124.849 50.2173C122.121 50.9351 117.495 49.8585 112.87 47.2267C108.245 44.7145 103.857 40.2883 100.654 35.5032C97.4522 30.7181 95.6732 25.5742 94.7244 21.6265C94.25 19.7124 94.0128 18.0377 93.7756 16.8414C93.657 15.6451 93.5384 14.8077 93.5384 14.6881C93.5384 14.4488 93.657 14.2096 94.0128 14.2096C94.25 14.2096 94.4872 14.3292 94.4872 14.5685C94.4872 14.5685 94.6058 15.2862 94.7244 16.3629C94.843 16.961 94.9616 17.5592 95.0802 18.3965C95.0802 19.1143 95.3174 19.9517 95.5546 20.9087C95.9104 22.8227 96.622 24.976 97.5708 27.3686C98.5196 29.7611 99.7056 32.1537 101.247 34.5462C104.212 39.3313 108.719 43.6378 113.226 46.2696C117.733 48.9014 122.239 49.9781 124.849 49.3799C124.967 49.2603 125.204 49.4996 125.204 49.7388L125.204 49.8585Z" fill="#F07651"/>
</svg>
