<svg width="40" height="42" viewBox="0 0 40 42" fill="none" xmlns="http://www.w3.org/2000/svg">
<path d="M2.90027 25.4117C5.61712 31.2778 12.1673 41.076 16.6334 33.3406C21.0995 25.6051 9.33883 24.8316 2.90027 25.4117Z" fill="#9EBC6A"/>
<path d="M36.6576 25.4037C30.219 24.8235 18.4584 25.5971 22.9245 33.3325C27.3905 41.068 33.9407 31.2697 36.6576 25.4037Z" fill="#9EBC6A"/>
<rect x="20.1262" y="34.9819" width="1.20301" height="10.5419" transform="rotate(-120 20.1262 34.9819)" fill="#9EBC6A"/>
<rect x="20.4224" y="41.1306" width="1.14393" height="21.2662" transform="rotate(180 20.4224 41.1306)" fill="#9EBC6A"/>
<rect width="1.20301" height="12.4708" transform="matrix(-0.5 0.866025 0.866025 0.5 9.36035 28.1931)" fill="#9EBC6A"/>
<path d="M31.9521 9.37329C31.0967 6.77836 28.2676 5.35829 25.6337 6.20102C25.3391 6.29569 25.0619 6.41674 24.7988 6.55642C24.8524 6.2662 24.8839 5.96977 24.8839 5.66403C24.8839 2.93718 22.6391 0.725586 19.8698 0.725586C17.1005 0.725586 14.8557 2.93718 14.8557 5.66558C14.8557 5.96977 14.8872 6.26775 14.9408 6.55798C14.6777 6.4183 14.4005 6.29569 14.1059 6.20257C11.4736 5.35829 8.64445 6.77836 7.78908 9.37329C6.93214 11.9682 8.37351 14.7556 11.0074 15.5983C11.3019 15.693 11.5981 15.7551 11.8942 15.7939C11.6784 15.9972 11.4752 16.2191 11.2925 16.4659C9.66523 18.6728 10.1614 21.7629 12.4015 23.3661C14.6415 24.9693 17.7779 24.4804 19.4051 22.2735C19.5863 22.0267 19.7391 21.7675 19.8682 21.5021C19.9974 21.7675 20.1486 22.0267 20.3314 22.2735C21.9586 24.4804 25.095 24.9708 27.335 23.3661C29.575 21.7629 30.0728 18.6728 28.444 16.4659C28.2628 16.2191 28.0596 15.9972 27.8422 15.7939C28.1384 15.7551 28.4345 15.693 28.7291 15.5983C31.3661 14.7556 32.8075 11.9682 31.9521 9.37329ZM19.8698 17.0417C17.5999 17.0417 15.7599 15.229 15.7599 12.9925C15.7599 10.7561 17.5999 8.94339 19.8698 8.94339C22.1398 8.94339 23.9797 10.7561 23.9797 12.9925C23.9797 15.229 22.1398 17.0417 19.8698 17.0417Z" fill="#F7C35F"/>
</svg>
