<svg width="1233" height="402" viewBox="0 0 1233 402" fill="none" xmlns="http://www.w3.org/2000/svg">
<path d="M1206.68 70.9336H934.93C918.361 70.9336 904.93 84.3651 904.93 100.934V159.518C904.93 176.087 891.498 189.518 874.93 189.518H635.995C619.426 189.518 605.995 202.95 605.995 219.518V251.906C605.995 268.475 592.531 281.906 575.962 281.906C483.294 281.906 429.836 281.906 337.167 281.906C320.599 281.906 307.135 295.338 307.135 311.906V345.332C307.135 361.901 293.703 375.332 277.135 375.332H8.46985" stroke="#A1BD71" stroke-width="1.5"/>
<path d="M346.072 240.997C340.61 248.755 332.962 264.272 346.072 264.272C359.182 264.272 351.534 248.755 346.072 240.997Z" fill="#9EBC6A"/>
<rect width="0.925781" height="8.59289" transform="matrix(-1 -8.63605e-08 -8.63605e-08 1 346.535 262.619)" fill="#9EBC6A"/>
<path d="M627.257 157.925C629.998 166.297 637.298 180.601 644.575 170.846C651.853 161.091 636.062 158.168 627.257 157.925Z" fill="#9EBC6A"/>
<path d="M668.83 150.244C660.063 151.093 644.512 155.1 652.445 164.329C660.379 173.558 666.674 158.784 668.83 150.244Z" fill="#9EBC6A"/>
<rect x="648.207" y="168.163" width="0.859462" height="8.88811" transform="rotate(-131.603 648.207 168.163)" fill="#9EBC6A"/>
<rect width="0.925781" height="24.9933" transform="matrix(-1 -8.63605e-08 -8.63605e-08 1 648.515 156.199)" fill="#9EBC6A"/>
<rect width="0.859461" height="9.02336" transform="matrix(-0.66243 0.749124 0.749124 0.66243 641.467 168.274)" fill="#9EBC6A"/>
<g filter="url(#filter0_d_2251_2)">
<circle cx="19.8" cy="375.621" r="13.5623" fill="white"/>
<circle cx="19.8" cy="375.621" r="13.3123" stroke="#A1BD71" stroke-width="0.5"/>
</g>
<g filter="url(#filter1_d_2251_2)">
<circle cx="19.8" cy="375.621" r="6.17297" fill="#A1BD71"/>
<circle cx="19.8" cy="375.621" r="5.92297" stroke="#A1BD71" stroke-width="0.5"/>
</g>
<g filter="url(#filter2_d_2251_2)">
<circle cx="345.46" cy="283.06" r="13.5623" transform="rotate(-75 345.46 283.06)" fill="white"/>
<circle cx="345.46" cy="283.06" r="13.3123" transform="rotate(-75 345.46 283.06)" stroke="#A1BD71" stroke-width="0.5"/>
</g>
<g filter="url(#filter3_d_2251_2)">
<circle cx="345.46" cy="283.06" r="6.17297" transform="rotate(-75 345.46 283.06)" fill="#A1BD71"/>
<circle cx="345.46" cy="283.06" r="5.92297" transform="rotate(-75 345.46 283.06)" stroke="#A1BD71" stroke-width="0.5"/>
</g>
<g filter="url(#filter4_d_2251_2)">
<circle cx="647.881" cy="190.867" r="13.5623" fill="white"/>
<circle cx="647.881" cy="190.867" r="13.3123" stroke="#A1BD71" stroke-width="0.5"/>
</g>
<g filter="url(#filter5_d_2251_2)">
<circle cx="647.88" cy="190.866" r="6.17297" fill="#A1BD71"/>
<circle cx="647.88" cy="190.866" r="5.92297" stroke="#A1BD71" stroke-width="0.5"/>
</g>
<path d="M932.9 44.4117C935.617 50.2778 942.167 60.076 946.633 52.3406C951.099 44.6051 939.339 43.8316 932.9 44.4117Z" fill="#9EBC6A"/>
<path d="M966.658 44.4037C960.219 43.8235 948.458 44.5971 952.924 52.3325C957.391 60.068 963.941 50.2697 966.658 44.4037Z" fill="#9EBC6A"/>
<rect x="950.126" y="53.9819" width="1.20301" height="10.5419" transform="rotate(-120 950.126 53.9819)" fill="#9EBC6A"/>
<rect x="950.422" y="60.1306" width="1.14393" height="21.2662" transform="rotate(180 950.422 60.1306)" fill="#9EBC6A"/>
<rect width="1.20301" height="12.4708" transform="matrix(-0.5 0.866025 0.866025 0.5 939.36 47.1931)" fill="#9EBC6A"/>
<path d="M1182.81 42.5302C1185.73 48.8237 1192.75 59.3357 1197.54 51.0367C1202.34 42.7377 1189.72 41.9078 1182.81 42.5302Z" fill="#9EBC6A"/>
<path d="M1219.03 42.5215C1212.12 41.8991 1199.5 42.729 1204.29 51.028C1209.09 59.327 1216.11 48.8149 1219.03 42.5215Z" fill="#9EBC6A"/>
<rect x="1201.29" y="52.7974" width="1.29065" height="11.3099" transform="rotate(-120 1201.29 52.7974)" fill="#9EBC6A"/>
<rect x="1201.46" y="62.4678" width="1.39314" height="24.8617" transform="rotate(180 1201.46 62.4678)" fill="#9EBC6A"/>
<rect x="1201.3" y="38.717" width="1.33734" height="15.8101" transform="rotate(-143.232 1201.3 38.717)" fill="#9EBC6A"/>
<rect x="1194.53" y="32.6084" width="1.33734" height="9.12348" transform="rotate(-40.2188 1194.53 32.6084)" fill="#9EBC6A"/>
<rect width="1.29065" height="13.3794" transform="matrix(-0.5 0.866025 0.866025 0.5 1189.74 45.5142)" fill="#9EBC6A"/>
<path d="M1200.65 24.7361C1199.95 22.6135 1197.64 21.4519 1195.48 22.1412C1195.24 22.2187 1195.01 22.3177 1194.8 22.432C1194.84 22.1946 1194.87 21.9521 1194.87 21.702C1194.87 19.4714 1193.03 17.6624 1190.77 17.6624C1188.5 17.6624 1186.66 19.4714 1186.66 21.7032C1186.66 21.9521 1186.69 22.1958 1186.73 22.4332C1186.52 22.319 1186.29 22.2187 1186.05 22.1425C1183.9 21.4519 1181.58 22.6135 1180.88 24.7361C1180.18 26.8588 1181.36 29.1388 1183.52 29.8282C1183.76 29.9056 1184 29.9564 1184.24 29.9882C1184.07 30.1545 1183.9 30.336 1183.75 30.5379C1182.42 32.3431 1182.83 34.8707 1184.66 36.1822C1186.49 37.4936 1189.06 37.0937 1190.39 35.2884C1190.53 35.0866 1190.66 34.8745 1190.77 34.6575C1190.87 34.8745 1190.99 35.0866 1191.14 35.2884C1192.48 37.0937 1195.04 37.4948 1196.87 36.1822C1198.71 34.8707 1199.11 32.3431 1197.78 30.5379C1197.63 30.336 1197.47 30.1545 1197.29 29.9882C1197.53 29.9564 1197.77 29.9056 1198.01 29.8282C1200.17 29.1388 1201.35 26.8588 1200.65 24.7361ZM1190.77 31.0089C1188.91 31.0089 1187.4 29.526 1187.4 27.6967C1187.4 25.8673 1188.91 24.3845 1190.77 24.3845C1192.62 24.3845 1194.13 25.8673 1194.13 27.6967C1194.13 29.526 1192.62 31.0089 1190.77 31.0089Z" fill="#F7C35F"/>
<path d="M1232.33 11.8667C1231.24 8.56994 1227.65 6.76579 1224.3 7.83645C1223.92 7.95673 1223.57 8.11052 1223.24 8.28798C1223.31 7.91927 1223.35 7.54266 1223.35 7.15423C1223.35 3.68987 1220.49 0.880127 1216.98 0.880127C1213.46 0.880127 1210.61 3.68987 1210.61 7.1562C1210.61 7.54266 1210.65 7.92124 1210.71 8.28995C1210.38 8.1125 1210.03 7.95673 1209.65 7.83842C1206.31 6.76579 1202.71 8.56994 1201.63 11.8667C1200.54 15.1635 1202.37 18.7047 1205.72 19.7754C1206.09 19.8957 1206.47 19.9745 1206.84 20.0238C1206.57 20.2821 1206.31 20.5641 1206.08 20.8776C1204.01 23.6814 1204.64 27.6072 1207.49 29.644C1210.33 31.6808 1214.32 31.0597 1216.39 28.2559C1216.62 27.9424 1216.81 27.6131 1216.97 27.2759C1217.14 27.6131 1217.33 27.9424 1217.56 28.2559C1219.63 31.0597 1223.61 31.6828 1226.46 29.644C1229.31 27.6072 1229.94 23.6814 1227.87 20.8776C1227.64 20.5641 1227.38 20.2821 1227.1 20.0238C1227.48 19.9745 1227.86 19.8957 1228.23 19.7754C1231.58 18.7047 1233.41 15.1635 1232.33 11.8667ZM1216.98 21.6091C1214.09 21.6091 1211.75 19.3061 1211.75 16.4648C1211.75 13.6235 1214.09 11.3205 1216.98 11.3205C1219.86 11.3205 1222.2 13.6235 1222.2 16.4648C1222.2 19.3061 1219.86 21.6091 1216.98 21.6091Z" fill="#F7C35F"/>
<g filter="url(#filter6_d_2251_2)">
<circle cx="949.993" cy="71.5195" r="13.5623" fill="white"/>
<circle cx="949.993" cy="71.5195" r="13.3123" stroke="#A1BD71" stroke-width="0.5"/>
</g>
<g filter="url(#filter7_d_2251_2)">
<circle cx="1200.48" cy="70.9241" r="13.5623" transform="rotate(-180 1200.48 70.9241)" fill="white"/>
<circle cx="1200.48" cy="70.9241" r="13.3123" transform="rotate(-180 1200.48 70.9241)" stroke="#A1BD71" stroke-width="0.5"/>
</g>
<g filter="url(#filter8_d_2251_2)">
<circle cx="949.993" cy="71.5194" r="6.17297" fill="#A1BD71"/>
<circle cx="949.993" cy="71.5194" r="5.92297" stroke="#A1BD71" stroke-width="0.5"/>
</g>
<g filter="url(#filter9_d_2251_2)">
<circle cx="1200.48" cy="70.9242" r="6.17297" transform="rotate(-180 1200.48 70.9242)" fill="#A1BD71"/>
<circle cx="1200.48" cy="70.9242" r="5.92297" transform="rotate(-180 1200.48 70.9242)" stroke="#A1BD71" stroke-width="0.5"/>
</g>
<path d="M961.952 28.3733C961.097 25.7784 958.268 24.3583 955.634 25.201C955.339 25.2957 955.062 25.4167 954.799 25.5564C954.852 25.2662 954.884 24.9698 954.884 24.664C954.884 21.9372 952.639 19.7256 949.87 19.7256C947.1 19.7256 944.856 21.9372 944.856 24.6656C944.856 24.9698 944.887 25.2678 944.941 25.558C944.678 25.4183 944.4 25.2957 944.106 25.2026C941.474 24.3583 938.644 25.7784 937.789 28.3733C936.932 30.9682 938.374 33.7556 941.007 34.5983C941.302 34.693 941.598 34.7551 941.894 34.7939C941.678 34.9972 941.475 35.2191 941.292 35.4659C939.665 37.6728 940.161 40.7629 942.401 42.3661C944.641 43.9693 947.778 43.4804 949.405 41.2735C949.586 41.0267 949.739 40.7675 949.868 40.5021C949.997 40.7675 950.149 41.0267 950.331 41.2735C951.959 43.4804 955.095 43.9708 957.335 42.3661C959.575 40.7629 960.073 37.6728 958.444 35.4659C958.263 35.2191 958.06 34.9972 957.842 34.7939C958.138 34.7551 958.435 34.693 958.729 34.5983C961.366 33.7556 962.807 30.9682 961.952 28.3733ZM949.87 36.0417C947.6 36.0417 945.76 34.229 945.76 31.9925C945.76 29.7561 947.6 27.9434 949.87 27.9434C952.14 27.9434 953.98 29.7561 953.98 31.9925C953.98 34.229 952.14 36.0417 949.87 36.0417Z" fill="#F7C35F"/>
<defs>
<filter id="filter0_d_2251_2" x="0.137793" y="361.959" width="39.3245" height="39.3245" filterUnits="userSpaceOnUse" color-interpolation-filters="sRGB">
<feFlood flood-opacity="0" result="BackgroundImageFix"/>
<feColorMatrix in="SourceAlpha" type="matrix" values="0 0 0 0 0 0 0 0 0 0 0 0 0 0 0 0 0 0 127 0" result="hardAlpha"/>
<feOffset dy="6"/>
<feGaussianBlur stdDeviation="3.05"/>
<feComposite in2="hardAlpha" operator="out"/>
<feColorMatrix type="matrix" values="0 0 0 0 0.75 0 0 0 0 0.75 0 0 0 0 0.75 0 0 0 0.25 0"/>
<feBlend mode="normal" in2="BackgroundImageFix" result="effect1_dropShadow_2251_2"/>
<feBlend mode="normal" in="SourceGraphic" in2="effect1_dropShadow_2251_2" result="shape"/>
</filter>
<filter id="filter1_d_2251_2" x="7.52708" y="369.348" width="24.5459" height="24.5459" filterUnits="userSpaceOnUse" color-interpolation-filters="sRGB">
<feFlood flood-opacity="0" result="BackgroundImageFix"/>
<feColorMatrix in="SourceAlpha" type="matrix" values="0 0 0 0 0 0 0 0 0 0 0 0 0 0 0 0 0 0 127 0" result="hardAlpha"/>
<feOffset dy="6"/>
<feGaussianBlur stdDeviation="3.05"/>
<feComposite in2="hardAlpha" operator="out"/>
<feColorMatrix type="matrix" values="0 0 0 0 0.75 0 0 0 0 0.75 0 0 0 0 0.75 0 0 0 0.25 0"/>
<feBlend mode="normal" in2="BackgroundImageFix" result="effect1_dropShadow_2251_2"/>
<feBlend mode="normal" in="SourceGraphic" in2="effect1_dropShadow_2251_2" result="shape"/>
</filter>
<filter id="filter2_d_2251_2" x="325.794" y="269.394" width="39.3312" height="39.3313" filterUnits="userSpaceOnUse" color-interpolation-filters="sRGB">
<feFlood flood-opacity="0" result="BackgroundImageFix"/>
<feColorMatrix in="SourceAlpha" type="matrix" values="0 0 0 0 0 0 0 0 0 0 0 0 0 0 0 0 0 0 127 0" result="hardAlpha"/>
<feOffset dy="6"/>
<feGaussianBlur stdDeviation="3.05"/>
<feComposite in2="hardAlpha" operator="out"/>
<feColorMatrix type="matrix" values="0 0 0 0 0.75 0 0 0 0 0.75 0 0 0 0 0.75 0 0 0 0.25 0"/>
<feBlend mode="normal" in2="BackgroundImageFix" result="effect1_dropShadow_2251_2"/>
<feBlend mode="normal" in="SourceGraphic" in2="effect1_dropShadow_2251_2" result="shape"/>
</filter>
<filter id="filter3_d_2251_2" x="333.185" y="276.785" width="24.549" height="24.549" filterUnits="userSpaceOnUse" color-interpolation-filters="sRGB">
<feFlood flood-opacity="0" result="BackgroundImageFix"/>
<feColorMatrix in="SourceAlpha" type="matrix" values="0 0 0 0 0 0 0 0 0 0 0 0 0 0 0 0 0 0 127 0" result="hardAlpha"/>
<feOffset dy="6"/>
<feGaussianBlur stdDeviation="3.05"/>
<feComposite in2="hardAlpha" operator="out"/>
<feColorMatrix type="matrix" values="0 0 0 0 0.75 0 0 0 0 0.75 0 0 0 0 0.75 0 0 0 0.25 0"/>
<feBlend mode="normal" in2="BackgroundImageFix" result="effect1_dropShadow_2251_2"/>
<feBlend mode="normal" in="SourceGraphic" in2="effect1_dropShadow_2251_2" result="shape"/>
</filter>
<filter id="filter4_d_2251_2" x="628.218" y="177.204" width="39.3245" height="39.3245" filterUnits="userSpaceOnUse" color-interpolation-filters="sRGB">
<feFlood flood-opacity="0" result="BackgroundImageFix"/>
<feColorMatrix in="SourceAlpha" type="matrix" values="0 0 0 0 0 0 0 0 0 0 0 0 0 0 0 0 0 0 127 0" result="hardAlpha"/>
<feOffset dy="6"/>
<feGaussianBlur stdDeviation="3.05"/>
<feComposite in2="hardAlpha" operator="out"/>
<feColorMatrix type="matrix" values="0 0 0 0 0.75 0 0 0 0 0.75 0 0 0 0 0.75 0 0 0 0.25 0"/>
<feBlend mode="normal" in2="BackgroundImageFix" result="effect1_dropShadow_2251_2"/>
<feBlend mode="normal" in="SourceGraphic" in2="effect1_dropShadow_2251_2" result="shape"/>
</filter>
<filter id="filter5_d_2251_2" x="635.608" y="184.593" width="24.5459" height="24.5459" filterUnits="userSpaceOnUse" color-interpolation-filters="sRGB">
<feFlood flood-opacity="0" result="BackgroundImageFix"/>
<feColorMatrix in="SourceAlpha" type="matrix" values="0 0 0 0 0 0 0 0 0 0 0 0 0 0 0 0 0 0 127 0" result="hardAlpha"/>
<feOffset dy="6"/>
<feGaussianBlur stdDeviation="3.05"/>
<feComposite in2="hardAlpha" operator="out"/>
<feColorMatrix type="matrix" values="0 0 0 0 0.75 0 0 0 0 0.75 0 0 0 0 0.75 0 0 0 0.25 0"/>
<feBlend mode="normal" in2="BackgroundImageFix" result="effect1_dropShadow_2251_2"/>
<feBlend mode="normal" in="SourceGraphic" in2="effect1_dropShadow_2251_2" result="shape"/>
</filter>
<filter id="filter6_d_2251_2" x="930.331" y="57.8573" width="39.3245" height="39.3245" filterUnits="userSpaceOnUse" color-interpolation-filters="sRGB">
<feFlood flood-opacity="0" result="BackgroundImageFix"/>
<feColorMatrix in="SourceAlpha" type="matrix" values="0 0 0 0 0 0 0 0 0 0 0 0 0 0 0 0 0 0 127 0" result="hardAlpha"/>
<feOffset dy="6"/>
<feGaussianBlur stdDeviation="3.05"/>
<feComposite in2="hardAlpha" operator="out"/>
<feColorMatrix type="matrix" values="0 0 0 0 0.75 0 0 0 0 0.75 0 0 0 0 0.75 0 0 0 0.25 0"/>
<feBlend mode="normal" in2="BackgroundImageFix" result="effect1_dropShadow_2251_2"/>
<feBlend mode="normal" in="SourceGraphic" in2="effect1_dropShadow_2251_2" result="shape"/>
</filter>
<filter id="filter7_d_2251_2" x="1180.82" y="57.2618" width="39.3245" height="39.3245" filterUnits="userSpaceOnUse" color-interpolation-filters="sRGB">
<feFlood flood-opacity="0" result="BackgroundImageFix"/>
<feColorMatrix in="SourceAlpha" type="matrix" values="0 0 0 0 0 0 0 0 0 0 0 0 0 0 0 0 0 0 127 0" result="hardAlpha"/>
<feOffset dy="6"/>
<feGaussianBlur stdDeviation="3.05"/>
<feComposite in2="hardAlpha" operator="out"/>
<feColorMatrix type="matrix" values="0 0 0 0 0.75 0 0 0 0 0.75 0 0 0 0 0.75 0 0 0 0.25 0"/>
<feBlend mode="normal" in2="BackgroundImageFix" result="effect1_dropShadow_2251_2"/>
<feBlend mode="normal" in="SourceGraphic" in2="effect1_dropShadow_2251_2" result="shape"/>
</filter>
<filter id="filter8_d_2251_2" x="937.72" y="65.2464" width="24.5459" height="24.5459" filterUnits="userSpaceOnUse" color-interpolation-filters="sRGB">
<feFlood flood-opacity="0" result="BackgroundImageFix"/>
<feColorMatrix in="SourceAlpha" type="matrix" values="0 0 0 0 0 0 0 0 0 0 0 0 0 0 0 0 0 0 127 0" result="hardAlpha"/>
<feOffset dy="6"/>
<feGaussianBlur stdDeviation="3.05"/>
<feComposite in2="hardAlpha" operator="out"/>
<feColorMatrix type="matrix" values="0 0 0 0 0.75 0 0 0 0 0.75 0 0 0 0 0.75 0 0 0 0.25 0"/>
<feBlend mode="normal" in2="BackgroundImageFix" result="effect1_dropShadow_2251_2"/>
<feBlend mode="normal" in="SourceGraphic" in2="effect1_dropShadow_2251_2" result="shape"/>
</filter>
<filter id="filter9_d_2251_2" x="1188.21" y="64.6512" width="24.5459" height="24.5459" filterUnits="userSpaceOnUse" color-interpolation-filters="sRGB">
<feFlood flood-opacity="0" result="BackgroundImageFix"/>
<feColorMatrix in="SourceAlpha" type="matrix" values="0 0 0 0 0 0 0 0 0 0 0 0 0 0 0 0 0 0 127 0" result="hardAlpha"/>
<feOffset dy="6"/>
<feGaussianBlur stdDeviation="3.05"/>
<feComposite in2="hardAlpha" operator="out"/>
<feColorMatrix type="matrix" values="0 0 0 0 0.75 0 0 0 0 0.75 0 0 0 0 0.75 0 0 0 0.25 0"/>
<feBlend mode="normal" in2="BackgroundImageFix" result="effect1_dropShadow_2251_2"/>
<feBlend mode="normal" in="SourceGraphic" in2="effect1_dropShadow_2251_2" result="shape"/>
</filter>
</defs>
</svg>
