<svg width="445" height="421" viewBox="0 0 445 421" fill="none" xmlns="http://www.w3.org/2000/svg">
<path d="M40.7848 143.144C46.5091 135.577 58.9564 123.565 62.9518 136.051C66.9473 148.537 49.8386 145.982 40.7848 143.144Z" fill="#A1BD71"/>
<path d="M90.0232 154.657C80.608 153.483 63.9813 148.71 72.7968 139.006C81.6122 129.303 87.9542 145.397 90.0232 154.657Z" fill="#A1BD71"/>
<rect width="0.925781" height="8.11258" transform="matrix(-0.672441 0.740151 0.740151 0.672441 69.1926 135.106)" fill="#A1BD71"/>
<rect x="60.2583" y="138.473" width="0.925781" height="9.59702" transform="rotate(-107.744 60.2583 138.473)" fill="#A1BD71"/>
<path d="M50.0605 105.248C54.2987 96.7592 64.33 82.6664 70.5491 94.2069C76.7683 105.748 59.4814 106.376 50.0605 105.248Z" fill="#A1BD71"/>
<path d="M99.5848 106.712C90.114 107.286 72.8937 105.645 79.7786 94.4888C86.6634 83.3326 95.8514 97.9891 99.5848 106.712Z" fill="#A1BD71"/>
<rect width="0.925781" height="8.11258" transform="matrix(-0.525176 0.850994 0.850994 0.525176 75.5198 91.3167)" fill="#A1BD71"/>
<rect x="67.3551" y="96.2656" width="0.925781" height="9.59702" transform="rotate(-118.32 67.3551 96.2656)" fill="#A1BD71"/>
<path d="M21.6061 183.432C28.4865 176.899 42.7243 167.074 44.6325 180.044C46.5407 193.014 30.0767 187.707 21.6061 183.432Z" fill="#A1BD71"/>
<path d="M68.327 201.802C59.2287 199.11 43.6017 191.691 53.88 183.554C64.1582 175.416 67.7939 192.328 68.327 201.802Z" fill="#A1BD71"/>
<rect width="0.925781" height="8.11258" transform="matrix(-0.784023 0.620731 0.620731 0.784023 50.9592 179.119)" fill="#A1BD71"/>
<rect x="41.5958" y="180.985" width="0.925781" height="9.59702" transform="rotate(-98.3696 41.5958 180.985)" fill="#A1BD71"/>
<path d="M5.65424 229.993C11.1232 222.24 23.1635 209.82 27.5727 222.166C31.9818 234.512 14.7975 232.528 5.65424 229.993Z" fill="#A1BD71"/>
<path d="M54.3925 238.903C44.9433 238.043 28.1669 233.826 36.6542 223.835C45.1415 213.843 52.0161 229.717 54.3925 238.903Z" fill="#A1BD71"/>
<rect width="0.925781" height="8.11258" transform="matrix(-0.647411 0.762141 0.762141 0.647411 32.9221 220.057)" fill="#A1BD71"/>
<rect x="24.1049" y="223.719" width="0.925781" height="9.59702" transform="rotate(-109.653 24.1049 223.719)" fill="#A1BD71"/>
<path d="M51.3882 298.084C45.1211 290.961 35.8451 276.36 48.8783 274.946C61.9115 273.532 55.9821 289.782 51.3882 298.084Z" fill="#A1BD71"/>
<path d="M71.3997 252.759C68.3638 261.749 60.357 277.083 52.616 266.502C44.8751 255.922 61.9131 252.932 71.3997 252.759Z" fill="#A1BD71"/>
<rect width="0.925781" height="8.11258" transform="matrix(0.590476 0.807055 0.807055 -0.590476 48.0734 269.252)" fill="#A1BD71"/>
<rect x="49.5823" y="278.68" width="0.925781" height="9.59702" transform="rotate(173.809 49.5823 278.68)" fill="#A1BD71"/>
<path d="M122.581 284.626C113.271 282.794 97.0205 276.865 106.495 267.805C115.97 258.745 121.167 275.244 122.581 284.626Z" fill="#A1BD71"/>
<path d="M110.842 236.491C113.91 245.47 116.9 262.507 104.316 258.832C91.7325 255.157 103.423 242.407 110.842 236.491Z" fill="#A1BD71"/>
<rect width="0.925781" height="8.11258" transform="matrix(0.959895 0.280358 0.280358 -0.959895 102.389 263.78)" fill="#A1BD71"/>
<rect x="109.328" y="270.338" width="0.925781" height="9.59702" transform="rotate(136.282 109.328 270.338)" fill="#A1BD71"/>
<path d="M168.489 263.978C159.029 263.252 142.194 259.274 150.539 249.163C158.884 239.052 165.983 254.826 168.489 263.978Z" fill="#A1BD71"/>
<path d="M151.176 217.555C155.278 226.111 160.249 242.679 147.321 240.508C134.392 238.337 144.504 224.301 151.176 217.555Z" fill="#A1BD71"/>
<rect width="0.925781" height="8.11258" transform="matrix(0.986188 0.165631 0.165631 -0.986188 145.988 245.648)" fill="#A1BD71"/>
<rect x="153.65" y="251.345" width="0.925781" height="9.59702" transform="rotate(129.534 153.65 251.345)" fill="#A1BD71"/>
<path d="M213.944 249.233C204.546 247.926 187.989 242.918 196.94 233.34C205.892 223.763 212.006 239.945 213.944 249.233Z" fill="#A1BD71"/>
<path d="M199.523 201.832C203.09 210.624 207.032 227.467 194.262 224.503C181.491 221.539 192.448 208.154 199.523 201.832Z" fill="#A1BD71"/>
<rect width="0.925781" height="8.11258" transform="matrix(0.974109 0.226078 0.226078 -0.974109 192.615 229.552)" fill="#A1BD71"/>
<rect x="199.911" y="235.71" width="0.925781" height="9.59702" transform="rotate(133.066 199.911 235.71)" fill="#A1BD71"/>
<path d="M437.586 360.29C428.136 361.141 410.875 360.006 417.43 348.652C423.985 337.299 433.599 351.68 437.586 360.29Z" fill="#A1BD71"/>
<path d="M412.823 317.376C418.285 325.134 425.933 340.65 412.823 340.65C399.713 340.65 407.361 325.134 412.823 317.376Z" fill="#A1BD71"/>
<rect width="0.925781" height="8.11258" transform="matrix(1 4.76264e-08 4.76264e-08 -1 412.084 346.29)" fill="#A1BD71"/>
<rect x="420.942" y="350.432" width="0.925781" height="9.59702" transform="rotate(120 420.942 350.432)" fill="#A1BD71"/>
<path d="M391.886 387.994C382.437 388.846 365.176 387.71 371.73 376.357C378.285 365.004 387.899 379.385 391.886 387.994Z" fill="#A1BD71"/>
<path d="M367.123 345.081C372.586 352.839 380.233 368.355 367.123 368.355C354.014 368.355 361.661 352.839 367.123 345.081Z" fill="#A1BD71"/>
<rect width="0.925781" height="8.11258" transform="matrix(1 4.76264e-08 4.76264e-08 -1 366.384 373.995)" fill="#A1BD71"/>
<rect x="375.242" y="378.137" width="0.925781" height="9.59702" transform="rotate(120 375.242 378.137)" fill="#A1BD71"/>
<path d="M330.57 414.15C321.451 411.529 305.767 404.231 315.982 396.015C326.197 387.798 329.963 404.681 330.57 414.15Z" fill="#A1BD71"/>
<path d="M322.991 365.187C325.28 374.395 326.802 391.627 314.579 386.888C302.355 382.15 315.094 370.447 322.991 365.187Z" fill="#A1BD71"/>
<rect width="0.925781" height="8.11258" transform="matrix(0.932397 0.361436 0.361436 -0.932397 311.851 391.88)" fill="#A1BD71"/>
<rect x="318.613" y="398.943" width="0.925781" height="9.59702" transform="rotate(141.188 318.613 398.943)" fill="#A1BD71"/>
<path d="M261.081 350.87C265.015 342.236 274.539 327.795 281.165 339.107C287.79 350.419 270.536 351.662 261.081 350.87Z" fill="#A1BD71"/>
<path d="M310.626 350.572C301.182 351.482 283.914 350.454 290.398 339.06C296.882 327.666 306.585 341.987 310.626 350.572Z" fill="#A1BD71"/>
<rect width="0.925781" height="8.11258" transform="matrix(-0.494591 0.869126 0.869126 0.494591 285.862 335.629)" fill="#A1BD71"/>
<rect x="277.881" y="341.279" width="0.925781" height="9.59702" transform="rotate(-120.357 277.881 341.279)" fill="#A1BD71"/>
<path d="M267.668 289.695C272.364 281.45 283.151 267.927 288.729 279.791C294.308 291.654 277.013 291.337 267.668 289.695Z" fill="#A1BD71"/>
<path d="M317.61 294.587C308.122 294.642 291.017 292.062 298.502 281.299C305.987 270.536 314.359 285.673 317.61 294.587Z" fill="#A1BD71"/>
<rect width="0.925781" height="8.11258" transform="matrix(-0.570928 0.821 0.821 0.570928 294.294 277.472)" fill="#A1BD71"/>
<rect x="285.776" y="282.119" width="0.925781" height="9.59702" transform="rotate(-115.185 285.776 282.119)" fill="#A1BD71"/>
<path d="M275.819 251.425C276.993 242.009 281.768 225.383 291.47 234.199C301.173 243.015 285.079 249.356 275.819 251.425Z" fill="#A1BD71"/>
<path d="M323.55 236.603C314.809 240.294 298.023 244.472 300.806 231.661C303.59 218.85 317.129 229.618 323.55 236.603Z" fill="#A1BD71"/>
<rect width="0.925781" height="8.11258" transform="matrix(-0.212331 0.977198 0.977198 0.212331 295.452 229.741)" fill="#A1BD71"/>
<rect x="289.635" y="237.482" width="0.925781" height="9.59702" transform="rotate(-137.741 289.635 237.482)" fill="#A1BD71"/>
<path d="M261.316 240.318C252.068 238.197 236.01 231.764 245.763 223.004C255.516 214.243 260.195 230.896 261.316 240.318Z" fill="#A1BD71"/>
<path d="M251.401 191.332C254.188 200.402 256.646 217.524 244.183 213.459C231.72 209.393 243.802 197.013 251.401 191.332Z" fill="#A1BD71"/>
<rect width="0.925781" height="8.11258" transform="matrix(0.950692 0.310136 0.310136 -0.950692 241.731 218.591)" fill="#A1BD71"/>
<rect x="248.843" y="225.161" width="0.925781" height="9.59702" transform="rotate(138.067 248.843 225.161)" fill="#A1BD71"/>
<path d="M43.2372 0.754883C66.0466 22.7195 99.1623 89.796 49.1507 182.385C-13.3637 298.121 85.4768 273.622 115.044 259.261C144.612 244.899 305.122 180.695 298.364 246.589C291.606 312.483 254.76 420.117 343.983 385.135C363.64 375.455 404.175 355.415 412.664 346.011L414.965 344.049C417.267 342.087 419.835 340.461 422.593 339.22L426.004 337.685" stroke="#A1BD71"/>
</svg>
